<svg viewBox="0 0 800 800" xmlns="http://www.w3.org/2000/svg"><path d="M602.9804574646323,494.96083492604123 L610.6012260290618,475.8310513129711 M610.6012260290618,475.8310513129711 L612.8443004014259,456.25187231193985 M612.8443004014259,456.25187231193985 L609.6583984054005,436.7237127076419 M609.6583984054005,436.7237127076419 L601.1308410913034,417.7445649545771 M601.1308410913034,417.7445649545771 L587.4846668852138,399.7973588566619 M587.4846668852138,399.7973588566619 L569.072419069629,383.33780214169326 M569.072419069629,383.33780214169326 L546.3667445986327,368.7829976760937 M546.3667445986327,368.7829976760937 L519.9480642653061,356.5011294941931 M519.9480642653061,356.5011294941931 L490.489674836333,346.8024074167211 M490.489674836333,346.8024074167211 L458.7407117665738,339.9314879790952 M458.7407117665738,339.9314879790952 L425.50734116938816,336.06151570571836 M425.50734116938816,336.06151570571836 L391.63259509122713,335.2899740788756 M391.63259509122713,335.2899740788756 L357.97545292475996,337.63628061978983 M357.97545292475996,337.63628061978983 L325.38946531464615,343.0413545641707 M325.38946531464615,343.0413545641707 L294.70159843783716,351.36902163315455 M294.70159843783716,351.36902163315455 L266.69161860143214,362.4093342068629 M266.69161860143214,362.4093342068629 L242.07253973683484,375.88361745037946 M242.07253973683484,375.88361745037946 L221.4726823047187,391.45129390163515 M221.4726823047187,391.45129390163515 L205.41965950015125,408.71822095122917 M205.41965950015125,408.71822095122917 L194.3267269668826,427.2463997186962 M194.3267269668826,427.2463997186962 L188.48189241123248,446.5648733235193 M188.48189241123248,446.5648733235193 L188.0401055260135,466.18153017368934 M188.0401055260135,466.18153017368934 L193.01871993306585,485.5955646353872 M192.78812304573927,369.683560268122 L193.01871993306585,485.5955646353872 M192.78812304573927,369.683560268122 L187.80405578214103,350.29115390764065 M187.80405578214103,350.29115390764065 L188.2464229640755,330.69636722131725 M188.2464229640755,330.69636722131725 L194.09784264823136,311.39944738721795 M194.09784264823136,311.39944738721795 L205.20318431574512,292.89195561040583 M205.20318431574512,292.89195561040583 L221.27411283262126,275.6443205290641 M221.27411283262126,275.6443205290641 L241.89690792270693,260.0940484132684 M241.89690792270693,260.0940484132684 L266.5433671611561,246.6348374828073 M266.5433671611561,246.6348374828073 L294.5844716732534,235.60688035942462 M294.5844716732534,235.60688035942462 L325.3064176859909,227.28853640154756 M325.3064176859909,227.28853640154756 L357.9285772452747,221.88951520758403 M357.9285772452747,221.88951520758403 L391.62307189190267,219.5458365131961 M391.62307189190267,219.5458365131961 L425.53541023042334,220.31651399302388 M425.53541023042334,220.31651399302388 L458.8056663070973,224.1821521783248 M458.8056663070973,224.1821521783248 L490.58987858456857,231.04537825907312 M490.58987858456857,231.04537825907312 L520.0809909670322,240.73324412181773 M520.0809909670322,240.73324412181773 L546.5290392741806,253.0013704162496 M546.5290392741806,253.0013704162496 L569.2599797278313,267.53989819249244 M569.2599797278313,267.53989819249244 L587.69274498905,283.98105901605334 M587.69274498905,283.98105901605334 L601.3541586809488,301.90821973522355 M601.3541586809488,301.90821973522355 L609.8912793005109,320.86618447510403 M609.8912793005109,320.86618447510403 L613.0808124685088,340.3725643434262 M613.0808124685088,340.3725643434262 L610.8353311505923,359.92992303964235 M610.8353311505923,359.92992303964235 L603.206165614158,379.03840297882675 M603.206165614158,379.03840297882675 L602.9804574646323,494.96083492604123 M204.7269067150541,460.5689103696798 L193.01871993306585,485.5955646353872 M602.9804574646323,494.96083492604123 L471.71072628633345,419.2880416326055 M471.71072628633345,419.2880416326055 L204.7269067150541,460.5689103696798 M471.71072628633345,419.2880416326055 L471.7901966326882,303.44997313345635 M603.206165614158,379.03840297882675 L471.7901966326882,303.44997313345635 M471.7901966326882,303.44997313345635 L204.50944497659086,344.6847898089783 M204.50944497659086,344.6847898089783 L192.78812304573927,369.683560268122 M204.7269067150541,460.5689103696798 L204.50944497659086,344.6847898089783" stroke="black"  stroke-width="4"  fill="red"/>
<path d="M328.29212698948186,729.000427514613 L328.0503279720919,379.67381906464993 M596.552211893995,687.2931875170428 L597.2117653637472,338.10566419507234 M328.29212698948186,729.000427514613 L596.552211893995,687.2931875170428 M328.0503279720919,379.67381906464993 L597.2117653637472,338.10566419507234 M667.6219949063716,532.2246097284326 L668.5176198486042,183.55616113943404 M596.552211893995,687.2931875170428 L667.6219949063716,532.2246097284326 M597.2117653637472,338.10566419507234 L668.5176198486042,183.55616113943404 M471.71072628633345,419.2880416326055 L471.94966850656493,70.99957248538709 M667.6219949063716,532.2246097284326 L471.71072628633345,419.2880416326055 M668.5176198486042,183.55616113943404 L471.94966850656493,70.99957248538709 M204.7269067150541,460.5689103696798 L204.07306682501053,112.14136085841619 M471.71072628633345,419.2880416326055 L204.7269067150541,460.5689103696798 M471.94966850656493,70.99957248538709 L204.07306682501053,112.14136085841619 M132.38086184396593,615.2111148276631 L131.48238015139566,266.26449538930365 M204.7269067150541,460.5689103696798 L132.38086184396593,615.2111148276631 M204.07306682501053,112.14136085841619 L131.48238015139566,266.26449538930365 M132.38086184396593,615.2111148276631 L328.29212698948186,729.000427514613 M131.48238015139566,266.26449538930365 L328.0503279720919,379.67381906464993" stroke="black"  stroke-width="4"  fill="red"/></svg>