<svg version="1.1" xmlns="http://www.w3.org/2000/svg" viewBox="-115.99816999428903 -9.531447759001283 223.3366578122073 19.062895518002566" fill="none" stroke="black" stroke-width="0.6%" vector-effect="non-scaling-stroke">
    <path d="M 74.92307 -3.5731 L 74.92307 -3.75451 L 102.1123 -3.36491 L 106.33849 -3.64341 L 79.14925 -4.03302 L 74.92307 -3.75451" />
    <path d="M 102.1123 6.63037 L 102.1123 -3.36491" />
    <path d="M 97.07037 6.55812 L 102.1123 6.63037 L 106.33849 6.35186 L 106.33849 -3.64341" />
    <path d="M 56.56854 -2.78295 L 56.56854 -3.04204 L 77.78175 -2.39017 L 84.85281 -2.60746 L 63.63961 -3.25933 L 56.56854 -3.04204 L 56.56854 -6.95324 L 63.63961 -6.73595 L 84.85281 -7.38781 L 77.78175 -7.6051 L 56.56854 -6.95324" />
    <path d="M 77.78175 7.6051 L 77.78175 -2.39017" />
    <path d="M 70.05705 7.36773 L 77.78175 7.6051 L 84.85281 7.38781 L 84.85281 -2.60746" />
    <path d="M 44.65824 -2.41826 L 44.65824 -2.7699 L 61.86553 -2.01474 L 70.05705 -2.19099 L 52.84976 -2.94615 L 52.84976 -7.04913 L 70.05705 -7.80428 L 61.86553 -7.98054 L 44.65824 -7.22538 L 52.84976 -7.04913" />
    <path d="M 52.84976 -2.94615 L 44.65824 -2.7699 L 44.65824 -7.22538" />
    <path d="M 61.86553 7.98054 L 61.86553 -2.01474" />
    <path d="M 53.13264 7.59729 L 61.86553 7.98054 L 70.05705 7.80428 L 70.05705 -2.19099" />
    <path d="M -56.56854 -2.78295 L -56.56854 -3.04204 L -56.56854 -6.95324 L -77.78175 -7.6051 L -84.85281 -7.38781 L -63.63961 -6.73595 L -56.56854 -6.95324" />
    <path d="M -56.56854 -3.04204 L -63.63961 -3.25933 L -63.63961 -6.73595" />
    <path d="M -84.85281 7.38781 L -84.85281 -2.60746 L -77.78175 -2.39017 L -56.56854 -3.04204" />
    <path d="M -63.63961 -3.25933 L -84.85281 -2.60746" />
    <path d="M -77.78175 7.6051 L -77.78175 -2.39017" />
    <path d="M -84.85281 7.38781 L -77.78175 7.6051 L -70.05705 7.36773" />
    <path d="M -66.76004 -3.16344 L -66.76004 -3.37361 L -72.49581 -3.62532 L -97.07037 -3.09656 L -91.3346 -2.84484 L -66.76004 -3.37361 L -66.76004 -6.62167 L -91.3346 -7.15044 L -97.07037 -6.89872 L -72.49581 -6.36995 L -66.76004 -6.62167" />
    <path d="M -97.07037 6.89872 L -97.07037 -3.09656" />
    <path d="M -91.3346 7.15044 L -91.3346 -2.84484" />
    <path d="M -97.07037 6.89872 L -91.3346 7.15044 L -84.85281 7.01097" />
    <path d="M -84.85281 -7.01097 L -84.85281 -7.38781" />
    <path d="M -52.84976 -2.94615 L -52.84976 -7.04913 L -44.65824 -7.22538 L -61.86553 -7.98054 L -70.05705 -7.80428 L -52.84976 -7.04913" />
    <path d="M -44.65824 -2.7699 L -44.65824 -7.22538" />
    <path d="M -70.05705 -7.36773 L -70.05705 -7.80428" />
    <path d="M 63.63961 -3.25933 L 63.63961 -6.73595" />
    <path d="M 84.85281 -3.95129 L 84.85281 -7.38781" />
    <path d="M 70.05705 -7.36773 L 70.05705 -7.80428" />
    <path d="M 31.39101 -2.56544 L 31.39101 -7.42984 L 40.45409 -7.29997 L 53.13264 -8.13547 L 44.06956 -8.26534 L 31.39101 -7.42984" />
    <path d="M 40.45409 -2.69531 L 40.45409 -7.29997" />
    <path d="M 53.13264 -7.59729 L 53.13264 -8.13547" />
    <path d="M 17.16999 -2.43489 L 17.16999 -7.56039 L 26.82925 -7.48086 L 34.59382 -8.37132 L 24.93456 -8.45086 L 17.16999 -7.56039" />
    <path d="M 26.82925 -2.51442 L 26.82925 -7.48086" />
    <path d="M 34.59382 -7.6409 L 34.59382 -8.37132" />
    <path d="M 2.42726 -2.3822 L 2.42726 -7.61308 L 12.38921 -7.58629 L 15.00388 -8.50466 L 5.04194 -8.53145 L 2.42726 -7.61308" />
    <path d="M 12.38921 -2.40898 L 12.38921 -7.58629" />
    <path d="M 15.00388 -1.49061 L 15.00388 -8.50466" />
    <path d="M -12.38921 -2.40898 L -12.38921 -7.58629 L -2.42726 -7.61308 L -5.04194 -8.53145 L -15.00388 -8.50466 L -12.38921 -7.58629" />
    <path d="M -2.42726 -2.3822 L -2.42726 -7.61308" />
    <path d="M -15.00388 -1.49061 L -15.00388 -8.50466" />
    <path d="M -26.82925 -2.51442 L -26.82925 -7.48086 L -17.16999 -7.56039 L -24.93456 -8.45086 L -34.59382 -8.37132 L -26.82925 -7.48086" />
    <path d="M -17.16999 -2.43489 L -17.16999 -7.56039" />
    <path d="M -34.59382 -7.6409 L -34.59382 -8.37132" />
    <path d="M -40.45409 -2.69531 L -40.45409 -7.29997 L -31.39101 -7.42984 L -44.06956 -8.26534 L -53.13264 -8.13547 L -40.45409 -7.29997" />
    <path d="M -31.39101 -2.56544 L -31.39101 -7.42984" />
    <path d="M -53.13264 -7.59729 L -53.13264 -8.13547" />
    <path d="M -72.49581 -3.62532 L -72.49581 -6.36995" />
    <path d="M -97.07037 -6.55812 L -97.07037 -6.89872" />
    <path d="M -79.14925 -4.03302 L -79.14925 -5.96226 L -74.92307 -6.24076 L -102.1123 -6.63037 L -106.33849 -6.35186 L -79.14925 -5.96226" />
    <path d="M -74.92307 -3.75451 L -74.92307 -6.24076" />
    <path d="M -106.33849 -6.03228 L -106.33849 -6.35186" />
    <path d="M -83.39779 -4.47002 L -83.39779 -5.52526 L -80.8096 -5.82208 L -109.78737 -6.06068 L -112.37557 -5.76386 L -83.39779 -5.52526" />
    <path d="M -80.8096 -4.1732 L -80.8096 -5.82208" />
    <path d="M -112.37557 -5.45399 L -112.37557 -5.76386" />
    <path d="M -85.11233 -4.92305 L -85.11233 -5.07223 L -84.24077 -5.37835 L -114.12661 -5.4587 L -114.99817 -5.15257 L -85.11233 -5.07223" />
    <path d="M -84.24077 -4.61693 L -84.24077 -5.37835" />
    <path d="M -114.99817 -4.8427 L -114.99817 -5.15257" />
    <path d="M -84.24077 -4.46308 L -84.24077 -4.61693 L -85.11233 -4.92305 L -114.99817 -4.8427 L -114.12661 -4.53658 L -84.24077 -4.61693" />
    <path d="M -114.99817 5.15257 L -114.99817 -4.8427" />
    <path d="M -114.12661 5.4587 L -114.12661 -4.53658" />
    <path d="M -114.99817 5.15257 L -114.12661 5.4587 L -112.37557 5.45399" />
    <path d="M -80.8096 -4.00922 L -80.8096 -4.1732 L -83.39779 -4.47002 L -112.37557 -4.23142 L -109.78737 -3.9346 L -80.8096 -4.1732" />
    <path d="M -112.37557 5.76386 L -112.37557 -4.23142" />
    <path d="M -109.78737 6.06068 L -109.78737 -3.9346" />
    <path d="M -112.37557 5.76386 L -109.78737 6.06068 L -106.33849 6.03228" />
    <path d="M -74.92307 -3.5731 L -74.92307 -3.75451 L -79.14925 -4.03302 L -106.33849 -3.64341 L -102.1123 -3.36491 L -74.92307 -3.75451" />
    <path d="M -106.33849 6.35186 L -106.33849 -3.64341" />
    <path d="M -102.1123 6.63037 L -102.1123 -3.36491" />
    <path d="M -106.33849 6.35186 L -102.1123 6.63037 L -97.07037 6.55812" />
    <path d="M -44.65824 -2.41826 L -44.65824 -2.7699 L -52.84976 -2.94615 L -70.05705 -2.19099 L -61.86553 -2.01474 L -44.65824 -2.7699" />
    <path d="M -70.05705 7.80428 L -70.05705 -2.19099" />
    <path d="M -61.86553 7.98054 L -61.86553 -2.01474" />
    <path d="M -70.05705 7.80428 L -61.86553 7.98054 L -53.13264 7.59729" />
    <path d="M -31.39101 -1.99126 L -31.39101 -2.56544 L -40.45409 -2.69531 L -53.13264 -1.8598 L -44.06956 -1.72994 L -31.39101 -2.56544" />
    <path d="M -53.13264 8.13547 L -53.13264 -1.8598" />
    <path d="M -44.06956 8.26534 L -44.06956 -1.72994" />
    <path d="M -53.13264 8.13547 L -44.06956 8.26534 L -34.59382 7.6409" />
    <path d="M -17.16999 7.56039 L -17.16999 -2.43489 L -26.82925 -2.51442 L -34.59382 -1.62395 L -24.93456 -1.54442 L -17.16999 -2.43489" />
    <path d="M -34.59382 8.37132 L -34.59382 -1.62395" />
    <path d="M -24.93456 8.45086 L -24.93456 -1.54442" />
    <path d="M -34.59382 8.37132 L -24.93456 8.45086 L -17.16999 7.56039" />
    <path d="M -2.42726 7.61308 L -2.42726 -2.3822 L -12.38921 -2.40898 L -15.00388 -1.49061 L -5.04194 -1.46383 L -2.42726 -2.3822" />
    <path d="M -15.00388 8.50466 L -15.00388 -1.49061" />
    <path d="M -5.04194 8.53145 L -5.04194 -1.46383" />
    <path d="M -15.00388 8.50466 L -5.04194 8.53145 L -2.42726 7.61308" />
    <path d="M 2.42726 7.61308 L 2.42726 -2.3822 L 5.04194 -1.46383 L 15.00388 -1.49061 L 12.38921 -2.40898 L 2.42726 -2.3822" />
    <path d="M 5.04194 8.53145 L 5.04194 -1.46383" />
    <path d="M 2.42726 7.61308 L 5.04194 8.53145 L 15.00388 8.50466 L 15.00388 -1.49061" />
    <path d="M 17.16999 7.56039 L 17.16999 -2.43489 L 24.93456 -1.54442 L 34.59382 -1.62395 L 26.82925 -2.51442 L 17.16999 -2.43489" />
    <path d="M 24.93456 8.45086 L 24.93456 -1.54442" />
    <path d="M 17.16999 7.56039 L 24.93456 8.45086 L 34.59382 8.37132 L 34.59382 -1.62395" />
    <path d="M 31.39101 -1.99126 L 31.39101 -2.56544 L 44.06956 -1.72994 L 53.13264 -1.8598 L 40.45409 -2.69531 L 31.39101 -2.56544" />
    <path d="M 44.06956 8.26534 L 44.06956 -1.72994" />
    <path d="M 34.59382 7.6409 L 44.06956 8.26534 L 53.13264 8.13547 L 53.13264 -1.8598" />
    <path d="M 66.76004 -3.16344 L 66.76004 -3.37361 L 91.3346 -2.84484 L 97.07037 -3.09656 L 72.49581 -3.62532 L 66.76004 -3.37361" />
    <path d="M 91.3346 7.15044 L 91.3346 -2.84484" />
    <path d="M 84.85281 7.01097 L 91.3346 7.15044 L 97.07037 6.89872 L 97.07037 -3.09656" />
</svg>