<svg viewBox="0 0 800 800" xmlns="http://www.w3.org/2000/svg"><path d="M302.3016151407844,584.6852519551328 L342.7697673285948,596.7784321988074 M342.7697673285948,596.7784321988074 L386.09595110382554,604.9404440696953 M386.09595110382554,604.9404440696953 L431.1406727775085,608.9550451724604 M431.1406727775085,608.9550451724604 L476.71831611793345,608.7158232063111 M476.71831611793345,608.7158232063111 L521.6288784726225,604.2291105100815 M521.6288784726225,604.2291105100815 L564.6903306039446,595.6138369203045 M564.6903306039446,595.6138369203045 L604.7702824526607,583.0982378680851 M604.7702824526607,583.0982378680851 L640.8162754143261,567.0135562704711 M640.8162754143261,567.0135562704711 L671.8837703648892,547.7849724756859 M671.8837703648892,547.7849724756859 L697.1611168637585,525.920035252962 M697.1611168637585,525.920035252962 L715.9906094720334,501.9948244947693 M715.9906094720334,501.9948244947693 L727.8854470292822,476.6384960454217 M727.8854470292822,476.6384960454217 L732.5417982324302,450.516408608415 M732.5417982324302,450.516408608415 L729.8460749346459,424.31250146150404 M729.8460749346459,424.31250146150404 L719.8769871809475,398.71130690267785 M719.8769871809475,398.71130690267785 L702.9026798611519,374.3801188452421 M702.9026798611519,374.3801188452421 L679.3729429951161,351.9517463727223 M679.3729429951161,351.9517463727223 L649.9067675169908,332.00835457439837 M649.9067675169908,332.00835457439837 L615.275873941373,315.0666294261814 M615.275873941373,315.0666294261814 L576.3843066370857,301.5648109608631 M576.3843066370857,301.5648109608631 L534.2450327494334,291.85166649715006 M534.2450327494334,291.85166649715006 L489.9537667314502,286.17786884570387 M489.9537667314502,286.17786884570387 L444.66101262550444,284.68974240471084 M444.66101262550444,284.68974240471084 L399.54273228575295,287.42564395782944 M399.54273228575295,287.42564395782944 L355.77045536661865,294.3150445412458 M355.77045536661865,294.3150445412458 L314.48147306551846,305.18023221925193 M314.48147306551846,305.18023221925193 L276.7498806393702,319.74075399031807 M276.7498806393702,319.74075399031807 L243.5589737982043,337.6203257315752 M243.5589737982043,337.6203257315752 L215.77598774247824,358.3562717602392 M215.77598774247824,358.3562717602392 L194.12937047299573,381.4110707627281 M194.12937047299573,381.4110707627281 L179.18958404798533,406.18596263868056 M179.18958404798533,406.18596263868056 L171.35374506628744,432.03618445666166 M171.35374506628744,432.03618445666166 L170.83453830531613,458.2875187311627 M170.83453830531613,458.2875187311627 L177.65382534113888,484.25371520406253 M177.65382534113888,484.25371520406253 L191.64125772778692,509.2544843500093 M191.64125772778692,509.2544843500093 L212.43786994363288,532.6333753604431 M212.17174963960986,379.28769854159475 L212.43786994363288,532.6333753604431 M212.17174963960986,379.28769854159475 L191.35207362400368,355.9348147767832 M191.35207362400368,355.9348147767832 L177.34917882527154,330.9618766024279 M177.34917882527154,330.9618766024279 L170.52241999027487,305.02460716563604 M170.52241999027487,305.02460716563604 L171.0423232225121,278.802539688629 M171.0423232225121,278.802539688629 L178.8869902732962,252.9811592043588 M178.8869902732962,252.9811592043588 L193.84348818854681,228.2339291367921 M193.84348818854681,228.2339291367921 L215.51424899675118,205.20488920066276 M215.51424899675118,205.20488920066276 L243.32816939405035,184.49212603640228 M243.32816939405035,184.49212603640228 L276.5559880292663,166.632554858868 M276.5559880292663,166.632554858868 L314.3295059095593,152.08832849281958 M314.3295059095593,152.08832849281958 L355.6643382713645,141.23530504330097 M355.6643382713645,141.23530504330097 L399.48520315019755,134.35361952949324 M399.48520315019755,134.35361952949324 L444.65355485746056,131.62078219030298 M444.65355485746056,131.62078219030298 L489.99657258478294,133.10724189745355 M489.99657258478294,133.10724189745355 L534.3369985813758,138.77468542808174 M534.3369985813758,138.77468542808174 L576.5230601598148,148.47695449234075 M576.5230601598148,148.47695449234075 L615.4578329552357,161.96366059494707 M615.4578329552357,161.96366059494707 L650.1272288225362,178.8864314687327 M650.1272288225362,178.8864314687327 L679.6261998204996,198.8075226157605 M679.6261998204996,198.8075226157605 L703.1821651017026,221.2108310662021 M703.1821651017026,221.2108310662021 L720.175439524664,245.51484702928173 M720.175439524664,245.51484702928173 L730.1557238870639,271.0874718204526 M730.1557238870639,271.0874718204526 L732.8545638927139,297.2621584958614 M732.8545638927139,297.2621584958614 L728.1931496806258,323.35513874716486 M728.1931496806258,323.35513874716486 L716.2851836289351,348.68323433097845 M716.2851836289351,348.68323433097845 L697.434824296201,372.5818247119203 M697.434824296201,372.5818247119203 L672.1294061535616,394.4224500690942 M672.1294061535616,394.4224500690942 L641.0273614469656,413.6296661341272 M641.0273614469656,413.6296661341272 L604.9412425653472,429.696482819506 M604.9412425653472,429.696482819506 L564.8166424030292,442.1981868368808 M564.8166424030292,442.1981868368808 L521.707197063494,450.8038985370996 M521.707197063494,450.8038985370996 L476.74656599414834,455.285632484607 M476.74656599414834,455.285632484607 L431.1181049921636,455.5245890127127 M431.1181049921636,455.5245890127127 L386.02316398820267,451.51444271133414 M386.02316398820267,451.51444271133414 L342.64868990856485,443.36148941851235 M342.64868990856485,443.36148941851235 L302.1354540069352,431.2817346962741 M302.1354540069352,431.2817346962741 L302.3016151407844,584.6852519551328 M217.4914373456491,531.8510292611229 L212.43786994363288,532.6333753604431 M302.3016151407844,584.6852519551328 L303.66228344856506,581.7611794657394 M303.66228344856506,581.7611794657394 L217.4914373456491,531.8510292611229 M303.66228344856506,581.7611794657394 L303.49764586948726,428.3609091413101 M302.1354540069352,431.2817346962741 L303.49764586948726,428.3609091413101 M303.49764586948726,428.3609091413101 L217.2309483467026,378.50622245791124 M217.2309483467026,378.50622245791124 L212.17174963960986,379.28769854159475 M217.4914373456491,531.8510292611229 L217.2309483467026,378.50622245791124" stroke="black"  stroke-width="4"  fill="red"/>
<path d="M153.74379290501608,668.3792178096971 L153.41164966705526,514.8828824337166 M271.8821833257832,650.0565565134712 L271.6819276460295,496.58052197929084 M153.74379290501608,668.3792178096971 L271.8821833257832,650.0565565134712 M153.41164966705526,514.8828824337166 L271.6819276460295,496.58052197929084 M303.66228344856506,581.7611794657394 L303.49764586948726,428.3609091413101 M271.8821833257832,650.0565565134712 L303.66228344856506,581.7611794657394 M271.6819276460295,496.58052197929084 L303.49764586948726,428.3609091413101 M217.4914373456491,531.8510292611229 L217.2309483467026,378.50622245791124 M303.66228344856506,581.7611794657394 L217.4914373456491,531.8510292611229 M303.49764586948726,428.3609091413101 L217.2309483467026,378.50622245791124 M99.5408374207243,550.1110317303135 L99.14888006044777,396.74592386032435 M217.4914373456491,531.8510292611229 L99.5408374207243,550.1110317303135 M217.2309483467026,378.50622245791124 L99.14888006044777,396.74592386032435 M67.57342915004796,618.34376467365 L67.145436107286,464.9028923527842 M99.5408374207243,550.1110317303135 L67.57342915004796,618.34376467365 M99.14888006044777,396.74592386032435 L67.145436107286,464.9028923527842 M67.57342915004796,618.34376467365 L153.74379290501608,668.3792178096971 M67.145436107286,464.9028923527842 L153.41164966705526,514.8828824337166" stroke="black"  stroke-width="4"  fill="red"/></svg>