<svg viewBox="0 0 800 800" xmlns="http://www.w3.org/2000/svg"><path d="M614.6951555504585,358.3999519647052 L614.9335732690042,192.8063595843929 M184.58799918893902,606.722434470413 L184.3479858175618,440.85200833563243 M614.6951555504585,358.3999519647052 L645.7066090728022,379.28782574609295 M645.7066090728022,379.28782574609295 L670.6929104065887,402.7232617910071 M670.6929104065887,402.7232617910071 L689.0350976826691,428.13344658156393 M689.0350976826691,428.13344658156393 L700.2757734589212,454.89605416784565 M700.2757734589212,454.89605416784565 L704.1308420121368,482.3542578154711 M704.1308420121368,482.3542578154711 L700.4972902174771,509.8327176835625 M700.4972902174771,509.8327176835625 L689.4564478253205,536.6541111682463 M689.4564478253205,536.6541111682463 L671.272849497265,562.1558572272005 M671.272849497265,562.1558572272005 L646.3883688114738,585.7066673115801 M646.3883688114738,585.7066673115801 L615.4120008110615,606.7224344704128 M615.4120008110615,606.7224344704128 L579.105147966148,624.6809678498356 M579.105147966148,624.6809678498356 L538.3630992059446,639.1353769223502 M538.3630992059446,639.1353769223502 L494.19275079216266,649.7254836520109 M494.19275079216266,649.7254836520109 L447.6875565473196,656.1871629146215 M447.6875565473196,656.1871629146215 L400.00000000000006,658.3591287792075 M400.00000000000006,658.3591287792075 L352.3124434526804,656.1871629146215 M352.3124434526804,656.1871629146215 L305.8072492078374,649.7254836520109 M305.8072492078374,649.7254836520109 L261.63690079405546,639.1353769223501 M261.63690079405546,639.1353769223501 L220.89485203385212,624.6809678498356 M220.89485203385212,624.6809678498356 L184.58799918893902,606.722434470413 M614.9335732690042,192.8063595843929 L645.9795415475725,213.67087638525814 M645.9795415475725,213.67087638525814 L670.9936926527046,237.08012223855914 M670.9936926527046,237.08012223855914 L689.3563707588096,262.46192847570853 M689.3563707588096,262.46192847570853 L700.6096610825714,289.19466792367234 M700.6096610825714,289.19466792367234 L704.4691410577565,316.62224932534815 M704.4691410577565,316.62224932534815 L700.8316709223076,344.0700868722504 M700.8316709223076,344.0700868722504 L689.7786587984815,370.86161200033143 M689.7786587984815,370.86161200033143 L671.5749226495063,396.33497916609684 M671.5749226495063,396.33497916609684 L646.662818839587,419.8595986310706 M646.662818839587,419.8595986310706 L615.6520141824387,440.85200833563226 M615.6520141824387,440.85200833563226 L579.3047560999511,458.7905925869021 M579.3047560999511,458.7905925869021 L538.5173312579985,473.2289520543636 M538.5173312579985,473.2289520543636 L494.2977614811376,483.8073039035111 M494.2977614811376,483.8073039035111 L447.7407255756581,490.2618124296973 M447.7407255756581,490.2618124296973 L400.00000000000006,492.4313682725435 M400.00000000000006,492.4313682725435 L352.259274424342,490.2618124296973 M352.259274424342,490.2618124296973 L305.70223851886243,483.8073039035111 M305.70223851886243,483.8073039035111 L261.4826687420016,473.2289520543636 M261.4826687420016,473.2289520543636 L220.695243900049,458.7905925869021 M220.695243900049,458.7905925869021 L184.3479858175618,440.85200833563243 M184.58799918893902,606.722434470413 L153.61163118852627,585.7066673115801 M153.61163118852627,585.7066673115801 L128.72715050273496,562.1558572272004 M128.72715050273496,562.1558572272004 L110.54355217467958,536.6541111682463 M110.54355217467958,536.6541111682463 L99.50270978252303,509.8327176835625 M99.50270978252303,509.8327176835625 L95.86915798786333,482.354257815471 M95.86915798786333,482.354257815471 L99.72422654107885,454.89605416784565 M99.72422654107885,454.89605416784565 L110.964902317331,428.1334465815638 M110.964902317331,428.1334465815638 L129.30708959341132,402.723261791007 M129.30708959341132,402.723261791007 L154.29339092719792,379.28782574609295 M154.29339092719792,379.28782574609295 L185.3048444495411,358.3999519647055 M185.3048444495411,358.3999519647055 L221.5766129429465,340.5693121487047 M221.5766129429465,340.5693121487047 L262.21684177851586,326.23027776576447 M262.21684177851586,326.23027776576447 L306.228601244273,315.73173298037625 M306.228601244273,315.73173298037625 L352.533961381659,309.328840201818 M352.533961381659,309.328840201818 L400,307.177130758959 M400,307.177130758959 L447.466038618341,309.328840201818 M447.466038618341,309.328840201818 L493.77139875572703,315.73173298037625 M493.77139875572703,315.73173298037625 L537.7831582214841,326.2302777657645 M537.7831582214841,326.2302777657645 L578.4233870570536,340.5693121487047 M578.4233870570536,340.5693121487047 L614.6951555504585,358.3999519647052 M184.3479858175618,440.85200833563243 L153.33718116041308,419.85959863107047 M153.33718116041308,419.85959863107047 L128.42507735049372,396.33497916609684 M128.42507735049372,396.33497916609684 L110.22134120151861,370.86161200033143 M110.22134120151861,370.86161200033143 L99.16832907769248,344.0700868722503 M99.16832907769248,344.0700868722503 L95.53085894224353,316.6222493253481 M95.53085894224353,316.6222493253481 L99.39033891742861,289.1946679236722 M99.39033891742861,289.1946679236722 L110.64362924119035,262.46192847570853 M110.64362924119035,262.46192847570853 L129.00630734729543,237.08012223855897 M129.00630734729543,237.08012223855897 L154.02045845242753,213.67087638525805 M154.02045845242753,213.67087638525805 L185.06642673099535,192.8063595843931 M185.06642673099535,192.8063595843931 L221.3785223677026,174.99566842328477 M221.3785223677026,174.99566842328477 L262.06390064102766,160.67268321888173 M262.06390064102766,160.67268321888173 L306.1245284607586,150.18589297580465 M306.1245284607586,150.18589297580465 L352.4812854397172,143.79017071666334 M352.4812854397172,143.79017071666334 L400,141.64087122079258 M400,141.64087122079258 L447.5187145602828,143.79017071666334 M447.5187145602828,143.79017071666334 L493.8754715392414,150.18589297580465 M493.8754715392414,150.18589297580465 L537.9360993589723,160.6726832188818 M537.9360993589723,160.6726832188818 L578.6214776322975,174.99566842328477 M578.6214776322975,174.99566842328477 L614.9335732690042,192.8063595843929" stroke="black"  stroke-width="4"  fill="red"/>
<path d="M109.1767595497372,655.6539553764461 L108.85250979377503,489.72919656218613 M121.94366961189252,653.6755120406195 L121.63366238685688,487.75294866869194 M109.1767595497372,655.6539553764461 L121.94366961189252,653.6755120406195 M108.85250979377503,489.72919656218613 L121.63366238685688,487.75294866869194 M125.3896355067738,646.292770992799 L125.08350052231685,480.3784011441827 M121.94366961189252,653.6755120406195 L125.3896355067738,646.292770992799 M121.63366238685688,487.75294866869194 L125.08350052231685,480.3784011441827 M116.07071698849353,640.8891507395277 L115.75421622995464,474.9807789743139 M125.3896355067738,646.292770992799 L116.07071698849353,640.8891507395277 M125.08350052231685,480.3784011441827 L115.75421622995464,474.9807789743139 M103.30583764393293,642.8669165345578 L102.97509888770355,476.9563493244928 M116.07071698849353,640.8891507395277 L103.30583764393293,642.8669165345578 M115.75421622995464,474.9807789743139 L102.97509888770355,476.9563493244928 M99.85784624718565,650.2489800387116 L99.52323073460474,484.3302193028166 M103.30583764393293,642.8669165345578 L99.85784624718565,650.2489800387116 M102.97509888770355,476.9563493244928 L99.52323073460474,484.3302193028166 M99.85784624718565,650.2489800387116 L109.1767595497372,655.6539553764461 M99.52323073460474,484.3302193028166 L108.85250979377503,489.72919656218613" stroke="black"  stroke-width="4"  fill="red"/></svg>