<svg version="1.1" xmlns="http://www.w3.org/2000/svg" viewBox="-86.55992152357226 -83.61788129043673 173.1198430471445 167.23576258087348" fill="none" stroke="black" stroke-width="0.6%" vector-effect="non-scaling-stroke">
    <path d="M -78.48885 47.15956 L -7.77817 82.61788 L -7.77817 48.01056 L -0.70711 51.55639 L -0.70711 34.25273 L -7.77817 30.7069 L -7.77817 -3.90041 L -78.48885 -39.35873 L -78.48885 -47.15956 L -7.77817 -82.61788" />
    <path d="M 0 78.71747 L -7.77817 82.61788" />
    <path d="M 0 78.71747 L 7.77817 82.61788 L 78.48885 47.15956 L 78.48885 12.55224 L 78.48885 39.35873" />
    <path d="M 0 -78.71747 L -7.77817 -82.61788" />
    <path d="M 0 -10.6375 L 0 -75.8808 L 65.05382 -43.25915 L 0 -10.6375 L -65.05382 -43.25915 L 0 -75.8808" />
    <path d="M -85.55992 8.29725 L -85.55992 -9.00641 L -78.48885 -12.55224" />
    <path d="M -78.48885 -39.35873 L -78.48885 47.15956" />
    <path d="M -70.71068 -43.25915 L -78.48885 -39.35873" />
    <path d="M 0 51.20181 L 0 78.71747" />
    <path d="M 0 -7.80083 L 0 26.80649 L -7.77817 30.7069" />
    <path d="M 0 26.80649 L 7.07107 30.35232 L -0.70711 34.25273" />
    <path d="M 7.07107 30.35232 L 7.07107 47.65598 L -0.70711 51.55639" />
    <path d="M 7.77817 -3.90041 L 7.77817 82.61788" />
    <path d="M 0 -7.80083 L 7.77817 -3.90041" />
    <path d="M 78.48885 12.55224 L 85.55992 9.00641 L 85.55992 -8.29725 L 78.48885 -4.75141 L 78.48885 -39.35873 L 7.77817 -3.90041" />
    <path d="M 78.48885 -47.15956 L 78.48885 -39.35873" />
    <path d="M 70.71068 -43.25915 L 78.48885 -47.15956" />
    <path d="M 7.77817 -82.61788 L 78.48885 -47.15956" />
    <path d="M 0 -78.71747 L 7.77817 -82.61788" />
    <path d="M -70.71068 -43.25915 L -78.48885 -47.15956" />
    <path d="M 70.71068 -43.25915 L 78.48885 -39.35873" />
    <path d="M 0 -7.80083 L -7.77817 -3.90041" />
    <path d="M -78.48885 11.84308 L -85.55992 8.29725" />
    <path d="M -78.48885 -5.46058 L -85.55992 -9.00641" />
    <path d="M 78.48885 -11.84308 L 85.55992 -8.29725" />
</svg>