<svg viewBox="0 0 800 800" xmlns="http://www.w3.org/2000/svg"><path d="M223.79991393348737,377.05408281041423 L223.39963096674364,335.6287842710957 M-50.63242959021886,534.1882190825645 L-51.34478732161301,492.5901920811845 M223.79991393348737,377.05408281041423 L-50.63242959021886,534.1882190825645 M223.39963096674364,335.6287842710957 L-51.34478732161301,492.5901920811845 M492.18416173215326,534.1882190825645 L492.08239634195417,492.5901920811846 M492.18416173215326,534.1882190825645 L223.79991393348737,377.05408281041423 M492.08239634195417,492.5901920811846 L223.39963096674364,335.6287842710957 M-50.63242959021886,534.1882190825645 L176.76281663874101,669.6129021318004 M176.30295463553796,627.8683781215018 L176.76281663874101,669.6129021318004 M-51.34478732161301,492.5901920811845 L176.30295463553796,627.8683781215018 M259.57641702230023,669.6129021318004 L176.76281663874101,669.6129021318004 M259.57641702230023,669.6129021318004 L492.18416173215326,534.1882190825645 M423.3557989835431,542.6431283933712 L427.2275941808491,544.4218001948043 M427.2275941808491,544.4218001948043 L431.7207575017977,545.6056594623988 M431.7207575017977,545.6056594623988 L436.57383399333844,546.1256616988912 M436.57383399333844,546.1256616988912 L441.50422460929525,545.9514838333603 M441.50422460929525,545.9514838333603 L446.22495359996856,545.0932707837542 M446.22495359996856,545.0932707837542 L450.46115206342125,543.6010920522322 M450.46115206342125,543.6010920522322 L453.9664156119127,541.5619334380044 M453.9664156119127,541.5619334380044 L456.53701370596264,539.0946234926182 M456.53701370596264,539.0946234926182 L458.0238153897855,536.3428066592082 M458.0238153897855,536.3428066592082 L458.3408220636655,533.4666299571968 M458.3408220636655,533.4666299571968 L457.47016512966474,530.6332309280313 M457.47016512966474,530.6332309280313 L455.4629284111143,528.0071999135964 M455.4629284111143,528.0071999135964 L452.43613640171907,525.7409062760803 M452.43613640171907,525.7409062760803 L448.5658044035096,523.9657647394008 M448.5658044035096,523.9657647394008 L444.0767498087079,522.7846270098023 M444.0767498087079,522.7846270098023 L439.22949321622826,522.2659181173685 M439.22949321622826,522.2659181173685 L434.3052813031926,522.4396537101215 M434.3052813031926,522.4396537101215 L429.5897003469979,523.2958053310426 M429.5897003469979,523.2958053310426 L425.35642078733986,524.7847646128555 M425.35642078733986,524.7847646128555 L421.8511852270255,526.8202872974794 M421.8511852270255,526.8202872974794 L419.2777177944492,529.2843777949497 M419.2777177944492,529.2843777949497 L417.7857998767432,532.034125151268 M417.7857998767432,532.034125151268 L417.46262124962726,534.9098676239873 M417.46262124962726,534.9098676239873 L418.3274384360768,537.7445519414784 M418.3274384360768,537.7445519414784 L420.33052452745454,540.3733044825617 M420.33052452745454,540.3733044825617 L423.3557989835431,542.6431283933712 M259.21038032956153,627.8683781215018 L492.08239634195417,492.5901920811846 M176.30295463553796,627.8683781215018 L259.21038032956153,627.8683781215018 M218.31968239982524,598.7107819015048 L39.22640995564814,492.5901920811845 M401.5111990646929,492.5901920811846 L218.31968239982524,598.7107819015048 M222.395005791541,387.6566334669081 L401.5111990646929,492.5901920811846 M39.22640995564814,492.5901920811845 L222.395005791541,387.6566334669081 M423.1765307023867,501.03589105945713 L420.1478737716492,498.76853893625326 M420.1478737716492,498.76853893625326 L418.1425596182712,496.14264981753405 M418.1425596182712,496.14264981753405 L417.27679749350193,493.3110541632455 M417.27679749350193,493.3110541632455 L417.600368059227,490.4384460718615 M417.600368059227,490.4384460718615 L419.0939908867489,487.69169669434353 M419.0939908867489,487.69169669434353 L421.6703760822206,485.23029349905477 M421.6703760822206,485.23029349905477 L425.1795721681487,483.196991273936 M425.1795721681487,483.196991273936 L429.417624836982,481.70965654395394 M429.417624836982,481.70965654395394 L434.1385146889322,480.8544391603485 M434.1385146889322,480.8544391603485 L439.0682636755916,480.68089315951323 M439.0682636755916,480.68089315951323 L443.92096498436706,481.1990360127466 M443.92096498436706,481.1990360127466 L448.41505658374484,482.37888495005 M448.41505658374484,482.37888495005 L452.28972594836,484.1520898638549 M452.28972594836,484.1520898638549 L455.3199038790338,486.4159115945068 M455.3199038790338,486.4159115945068 L457.3293780262015,489.03907909464095 M457.3293780262015,489.03907909464095 L458.20099304711806,491.86938941265765 M458.20099304711806,491.86938941265765 L457.8836083315672,494.7424317525303 M457.8836083315672,494.7424317525303 L456.39511322879264,497.4912506725214 M456.39511322879264,497.4912506725214 L453.8216038027451,499.9558734244836 M453.8216038027451,499.9558734244836 L450.3123796340867,501.99281170203477 M450.3123796340867,501.99281170203477 L446.0714014631125,503.4833659904861 M446.0714014631125,503.4833659904861 L441.345351978384,504.3406448769451 M441.345351978384,504.3406448769451 L436.40941036905963,504.5146331609713 M436.40941036905963,504.5146331609713 L431.5508760796806,503.9951969245148 M431.5508760796806,503.9951969245148 L427.0526665290964,502.8126263572752 M427.0526665290964,502.8126263572752 L423.1765307023867,501.03589105945713 M259.57641702230023,669.6129021318004 L259.21038032956153,627.8683781215018 M423.3557989835431,542.6431283933712 L423.1765307023867,501.03589105945713 M39.59293008851472,517.5602307713116 L218.56680013296076,623.7499793521547 M218.56680013296076,623.7499793521547 L218.31968239982524,598.7107819015048 M39.59293008851472,517.5602307713116 L39.22640995564814,492.5901920811845 M218.56680013296076,623.7499793521547 L401.63337244231514,517.5602307713116 M401.63337244231514,517.5602307713116 L401.5111990646929,492.5901920811846 M401.63337244231514,517.5602307713116 L222.63662791617395,412.5574903346764 M222.63662791617395,412.5574903346764 L222.395005791541,387.6566334669081 M222.63662791617395,412.5574903346764 L39.59293008851472,517.5602307713116" stroke="black"  stroke-width="4"  fill="red"/>
<path d="M582.6535936192154,171.5820809265371 L582.6535936192154,130.38709786819965 M314.26094568759794,325.2580156688535 L313.9623999168175,283.8903001987305 M582.6535936192154,171.5820809265371 L314.26094568759794,325.2580156688535 M582.6535936192154,130.38709786819965 L313.9623999168175,283.8903001987305 M851.0462415508325,325.2580156688536 L851.344787321613,283.89030019873053 M851.0462415508325,325.2580156688536 L582.6535936192154,171.5820809265371 M851.344787321613,283.89030019873053 L582.6535936192154,130.38709786819965 M314.26094568759794,325.2580156688535 L541.7101453781859,457.67938373775354 M541.6642773575666,416.16508986912146 L541.7101453781859,457.67938373775354 M313.9623999168175,283.8903001987305 L541.6642773575666,416.16508986912146 M623.5970418602448,457.67938373775354 L541.7101453781859,457.67938373775354 M623.5970418602448,457.67938373775354 L851.0462415508325,325.2580156688536 M783.1425436081513,333.5260406149719 L787.0049282150101,335.2653907027846 M787.0049282150101,335.2653907027846 L791.4705314387347,336.42306938617344 M791.4705314387347,336.42306938617344 L796.2794762428939,336.9315771433394 M796.2794762428939,336.9315771433394 L801.1517784027938,336.7612389420355 M801.1517784027938,336.7612389420355 L805.8037893066357,335.922010473914 M805.8037893066357,335.922010473914 L809.9646945974366,334.4628245689896 M809.9646945974366,334.4628245689896 L813.3924621482347,332.4687486223211 M813.3924621482347,332.4687486223211 L815.8878713996162,330.0559806885087 M815.8878713996162,330.0559806885087 L817.3061466466563,327.3649947208427 M817.3061466466563,327.3649947208427 L817.5653064637092,324.5523724714286 M817.5653064637092,324.5523724714286 L816.6507919622866,321.78158106091865 M816.6507919622866,321.78158106091865 L814.6162370841412,319.2135673161167 M814.6162370841412,319.2135673161167 L811.5802413440954,316.99733681331367 M811.5802413440954,316.99733681331367 L807.7193468111989,315.2614045623801 M807.7193468111989,315.2614045623801 L803.2578191788716,314.10635375826723 M803.2578191788716,314.10635375826723 L798.454583131029,313.59910070039695 M798.454583131029,313.59910070039695 L793.5883215861093,313.76900719918274 M793.5883215861093,313.76900719918274 L788.9413064774226,314.6062422555531 M788.9413064774226,314.6062422555531 L784.7831954010405,316.0623148378266 M784.7831954010405,316.0623148378266 L781.3553872489533,318.052874710923 M781.3553872489533,318.052874710923 L778.8571118827376,320.46252932379343 M778.8571118827376,320.46252932379343 L777.4337947144334,323.15151399309246 M777.4337947144334,323.15151399309246 L777.1685844970057,325.9637203085572 M777.1685844970057,325.9637203085572 L778.0774190378668,328.7357506538824 M778.0774190378668,328.7357506538824 L780.1079591035668,331.3064001553225 M780.1079591035668,331.3064001553225 L783.1425436081513,333.5260406149719 M623.642909880864,416.16508986912146 L851.344787321613,283.89030019873053 M541.6642773575666,416.16508986912146 L623.642909880864,416.16508986912146 M582.6535936192154,387.6566334669082 L403.52613115095005,283.8903001987305 M761.7810560874805,283.89030019873053 L582.6535936192154,387.6566334669082 M582.6535936192154,181.27182459944862 L761.7810560874805,283.89030019873053 M403.52613115095005,283.8903001987305 L582.6535936192154,181.27182459944862 M783.3656561721275,292.14911185613096 L780.3276684067312,289.9319440009865 M780.3276684067312,289.9319440009865 L778.2948388551006,287.3641588520855 M778.2948388551006,287.3641588520855 L777.384960894417,284.5952181333577 M777.384960894417,284.5952181333577 L777.65043332508,281.78614716186337 M777.65043332508,281.78614716186337 L779.0753019408708,279.10016133997067 M779.0753019408708,279.10016133997067 L781.5763268648618,276.69319479023216 M781.5763268648618,276.69319479023216 L785.0079223546279,274.70485598721444 M785.0079223546279,274.70485598721444 L789.1706384155273,273.2504083930711 M789.1706384155273,273.2504083930711 L793.8228090773043,272.4141078121516 M793.8228090773043,272.4141078121516 L798.6944780499132,272.24439096382474 M798.6944780499132,272.24439096382474 L803.5030603109849,272.75107783359357 M803.5030603109849,272.75107783359357 L807.9695632991679,273.9048395024022 M807.9695632991679,273.9048395024022 L811.8347739744322,275.6388346046233 M811.8347739744322,275.6388346046233 L814.8741760802602,277.8525925112075 M814.8741760802602,277.8525925112075 L816.9110293395552,280.41774191763915 M816.9110293395552,280.41774191763915 L817.8265998879538,283.1854436973967 M817.8265998879538,283.1854436973967 L817.5671913308977,285.99493061005256 M817.5671913308977,285.99493061005256 L816.1473758774541,288.68291771849977 M816.1473758774541,288.68291771849977 L813.6492234881525,291.0929975776166 M813.6492234881525,291.0929975776166 L810.2176687353158,293.0848524411485 M810.2176687353158,293.0848524411485 L806.0521522803456,294.5424133463814 M806.0521522803456,294.5424133463814 L801.3949747364256,295.38070733602905 M801.3949747364256,295.38070733602905 L796.5172517082924,295.5508558765138 M796.5172517082924,295.5508558765138 L791.7029479675493,295.04291432086524 M791.7029479675493,295.04291432086524 L787.2323602897022,293.8865247781601 M787.2323602897022,293.8865247781601 L783.3656561721275,292.14911185613096 M623.5970418602448,457.67938373775354 L623.642909880864,416.16508986912146 M783.1425436081513,333.5260406149719 L783.3656561721275,292.14911185613096 M403.64560255766526,308.7219657766167 L582.6535936192154,412.55749033467646 M582.6535936192154,412.55749033467646 L582.6535936192154,387.6566334669082 M403.64560255766526,308.7219657766167 L403.52613115095005,283.8903001987305 M582.6535936192154,412.55749033467646 L761.6615846807654,308.7219657766167 M761.6615846807654,308.7219657766167 L761.7810560874805,283.89030019873053 M761.6615846807654,308.7219657766167 L582.6535936192154,206.0343024230458 M582.6535936192154,206.0343024230458 L582.6535936192154,181.27182459944862 M582.6535936192154,206.0343024230458 L403.64560255766526,308.7219657766167" stroke="black"  stroke-width="4"  fill="red"/></svg>