<svg viewBox="0 0 800 800" xmlns="http://www.w3.org/2000/svg"><path d="M548.9538915791795,227.7626102609001 L549.7585321739122,56.340168056052164 M-46.641975681674694,567.851281537993 L-49.16529747391917,394.4872601334693 M548.9538915791795,227.7626102609001 L-46.641975681674694,567.851281537993 M549.7585321739122,56.340168056052164 L-49.16529747391917,394.4872601334693 M846.6975847991341,395.928002964214 L849.1652974739192,223.53511913877506 M846.6975847991341,395.928002964214 L548.9538915791795,227.7626102609001 M849.1652974739192,223.53511913877506 L549.7585321739122,56.340168056052164 M251.10049176629198,743.6598319439479 L250.24021442781725,569.3246770598611 M-46.641975681674694,567.851281537993 L251.10049176629198,743.6598319439479 M-49.16529747391917,394.4872601334693 L250.24021442781725,569.3246770598611 M251.10049176629198,743.6598319439479 L846.6975847991341,395.928002964214 M250.24021442781725,569.3246770598611 L849.1652974739192,223.53511913877506 M477.1593302129533,265.9160120316101 L468.36739893592164,260.25646567960075 M468.36739893592164,260.25646567960075 L460.89433858574137,254.02105209411027 M460.89433858574137,254.02105209411027 L454.8570945063987,247.30939985688386 M454.8570945063987,247.30939985688386 L450.3494317843087,240.22847426701003 M450.3494317843087,240.22847426701003 L447.4405603946688,232.89082384990678 M447.4405603946688,232.89082384990678 L446.1741401813499,225.41274581206352 M446.1741401813499,225.41274581206352 L446.56774533737496,217.91242579449693 M446.56774533737496,217.91242579449693 L448.61273543436135,210.5080443291599 M448.61273543436135,210.5080443291599 L452.27453216120995,203.31594785533235 M452.27453216120995,203.31594785533235 L457.4933399894156,196.44880310025422 M457.4933399894156,196.44880310025422 L464.1852085536494,190.01389342284068 M464.1852085536494,190.01389342284068 L472.2434092934873,184.1114918523881 M472.2434092934873,184.1114918523881 L481.5402767643445,178.8333442022366 M481.5402767643445,178.8333442022366 L491.9291860686532,174.26131696215484 M491.9291860686532,174.26131696215484 L503.2469014481094,170.4661710346004 M503.2469014481094,170.4661710346004 L515.31609292796,167.50656967527905 M515.31609292796,167.50656967527905 L527.9480800850339,165.42817935953218 M527.9480800850339,165.42817935953218 L540.9457025384611,164.26304009174757 M540.9457025384611,164.26304009174757 L554.1062460264059,164.0291168287236 M554.1062460264059,164.0291168287236 L567.2246206142476,164.7299932117634 M567.2246206142476,164.7299932117634 L580.096289609906,166.3548878443401 M580.096289609906,166.3548878443401 L592.5204682902711,168.87875593802457 M592.5204682902711,168.87875593802457 L604.3030746252527,172.26267596934736 M604.3030746252527,172.26267596934736 L615.2597654580071,176.45437464850795 M615.2597654580071,176.45437464850795 L625.2186632948897,181.38902343648223 M625.2186632948897,181.38902343648223 L634.0230058679123,186.9901841871509 M634.0230058679123,186.9901841871509 L641.5337000527032,193.17087172090294 M641.5337000527032,193.17087172090294 L647.6314304173326,199.83489904954058 M647.6314304173326,199.83489904954058 L652.2185985972638,206.87831191852808 M652.2185985972638,206.87831191852808 L655.2210211544525,214.1909061382398 M655.2210211544525,214.1909061382398 L656.5891542258723,221.65796222816806 M656.5891542258723,221.65796222816806 L656.299060142103,229.16197135311666 M656.299060142103,229.16197135311666 L654.3528425293953,236.58454014392527 M654.3528425293953,236.58454014392527 L650.7788846842417,243.80817295096156 M650.7788846842417,243.80817295096156 L645.6314630673847,250.71822159329065 M645.6314630673847,250.71822159329065 L638.9900425434632,257.2047070106353 M638.9900425434632,257.2047070106353 L630.9581818109554,263.1641155247231 M630.9581818109554,263.1641155247231 L621.6618910772429,268.5011194188751 M621.6618910772429,268.5011194188751 L611.2477588543821,273.13015399480173 M611.2477588543821,273.13015399480173 L599.8806056919091,276.97687647192924 M599.8806056919091,276.97687647192924 L587.7408677892345,279.97938258653886 M587.7408677892345,279.97938258653886 L575.0216582862147,282.0893100339098 M575.0216582862147,282.0893100339098 L561.9256180176866,283.2726371962257 M561.9256180176866,283.2726371962257 L548.6616342099107,283.510262551908 M548.6616342099107,283.510262551908 L535.4413294467508,282.7983510458424 M535.4413294467508,282.7983510458424 L522.4756178223655,281.1483930854537 M522.4756178223655,281.1483930854537 L509.97119914616684,278.5870049310204 M509.97119914616684,278.5870049310204 L498.12717511987125,275.1554783909474 M498.12717511987125,275.1554783909474 L487.13178061228473,270.90905948513654 M487.13178061228473,270.90905948513654 L477.1593302129533,265.9160120316101 M236.0536533492434,472.67542174030285 L227.23328014063657,466.86146520267346 M227.23328014063657,466.86146520267346 L219.7589433343215,460.45601005610575 M219.7589433343215,460.45601005610575 L213.7475640321412,453.5614138659369 M213.7475640321412,453.5614138659369 L209.29247921734006,446.28755488901675 M209.29247921734006,446.28755488901675 L206.46197804636907,438.7500719208413 M206.46197804636907,438.7500719208413 L205.29842127806876,431.06843437356196 M205.29842127806876,431.06843437356196 L205.81766230594098,423.3640645512706 M205.81766230594098,423.3640645512706 L208.0090533563549,415.7583391221942 M208.0090533563549,415.7583391221942 L211.83563489007008,408.370766012609 M211.83563489007008,408.370766012609 L217.23497248232783,401.3170654912952 M217.23497248232783,401.3170654912952 L224.120235372519,394.7074183829657 M224.120235372519,394.7074183829657 L232.38164196161097,388.6448090213011 M232.38164196161097,388.6448090213011 L241.88831936373037,383.2234499486816 M241.88831936373037,383.2234499486816 L252.49035612530707,378.5274098145641 M252.49035612530707,378.5274098145641 L264.0212020462749,374.62935530876706 M264.0212020462749,374.62935530876706 L276.30020752917284,371.58951840855946 M276.30020752917284,371.58951840855946 L289.13544950035254,369.454792657307 M289.13544950035254,369.454792657307 L302.3266263666188,368.25807451720794 M302.3266263666188,368.25807451720794 L315.66805603537733,368.0178060885731 M315.66805603537733,368.0178060885731 L328.95182541430364,368.737684402184 M328.95182541430364,368.737684402184 L341.9708780827007,370.40662319091524 M341.9708780827007,370.40662319091524 L354.52214879276903,372.9989097972634 M354.52214879276903,372.9989097972634 L366.40961333768905,376.474568201712 M366.40961333768905,376.474568201712 L377.4472597900493,380.7799412772668 M377.4472597900493,380.7799412772668 L387.46193688744194,385.84846581032366 M387.46193688744194,385.84846581032366 L396.29602615771574,391.6016242635989 M396.29602615771574,391.6016242635989 L403.8098938125158,397.9501112803847 M403.8098938125158,397.9501112803847 L409.88414017298913,404.79514561256025 M409.88414017298913,404.79514561256025 L414.4215132073215,412.02994459574506 M414.4215132073215,412.02994459574506 L417.3485219389576,419.5413318069237 M417.3485219389576,419.5413318069237 L418.6167656009832,427.2114840598517 M418.6167656009832,427.2114840598517 L418.2037732298909,434.91971019622184 M418.2037732298909,434.91971019622184 L416.11353778735946,442.5443642719462 M416.11353778735946,442.5443642719462 L412.37668625784113,449.96477579795044 M412.37668625784113,449.96477579795044 L407.0499787151855,457.0631402616707 M407.0499787151855,457.0631402616707 L400.2157057821869,463.7264840912146 M400.2157057821869,463.7264840912146 L391.98043152389005,469.84844120091196 M391.98043152389005,469.84844120091196 L382.47339519328415,475.33107499655864 M382.47339519328415,475.33107499655864 L371.8445306424796,480.08646666652896 M371.8445306424796,480.08646666652896 L360.26206513096963,484.03821539080815 M360.26206513096963,484.03821539080815 L347.90990518792916,487.1227229969899 M347.90990518792916,487.1227229969899 L334.9845469553989,489.2902755286275 M334.9845469553989,489.2902755286275 L321.6919907782856,490.50593499530714 M321.6919907782856,490.50593499530714 L308.24426561188506,490.7500419914889 M308.24426561188506,490.7500419914889 L294.8559426085032,490.0186855139471 M294.8559426085032,490.0186855139471 L281.7406876733587,488.32366351099193 M281.7406876733587,488.32366351099193 L269.10758707673085,485.69232093121053 M269.10758707673085,485.69232093121053 L257.1578381047284,482.1670797849911 M257.1578381047284,482.1670797849911 L246.08133102818846,477.8047312904955 M246.08133102818846,477.8047312904955 L236.0536533492434,472.67542174030285 M476.80750031085273,412.77834315212505 L468.05712051151056,407.0912396000274 M468.05712051151056,407.0912396000274 L460.61938005459376,400.82544180507284 M460.61938005459376,400.82544180507284 L454.6106757988347,394.0810577468732 M454.6106757988347,394.0810577468732 L450.12433631721046,386.96556912308637 M450.12433631721046,386.96556912308637 L447.2292529993003,379.59206971869156 M447.2292529993003,379.59206971869156 L445.9688890334209,372.07742222464606 M445.9688890334209,372.07742222464606 L446.36074560840865,364.5403891087848 M446.36074560840865,364.5403891087848 L448.3962326884228,357.09972989332704 M448.3962326884228,357.09972989332704 L452.0409435825238,349.87236317068 M452.0409435825238,349.87236317068 L457.2353714069147,342.97151176833154 M457.2353714069147,342.97151176833154 L463.8959657611251,336.5049904511743 M463.8959657611251,336.5049904511743 L471.9165023404707,330.5735705933938 M471.9165023404707,330.5735705933938 L481.16991522464036,325.26945538868154 M481.16991522464036,325.26945538868154 L491.5102648585406,320.6749206011615 M491.5102648585406,320.6749206011615 L502.7750756764378,316.86108176279356 M502.7750756764378,316.86108176279356 L514.7878412076615,313.8868967436056 M514.7878412076615,313.8868967436056 L527.3607554468227,311.7982617515589 M527.3607554468227,311.7982617515589 L540.2975705245219,310.62737817629943 M540.2975705245219,310.62737817629943 L553.3965098379114,310.39230153568127 M553.3965098379114,310.39230153568127 L566.4534322215037,311.0966335448925 M566.4534322215037,311.0966335448925 L579.2647480204316,312.7295384433116 M579.2647480204316,312.7295384433116 L591.6306036949317,315.2658452343039 M591.6306036949317,315.2658452343039 L603.3578195030569,318.66643645916594 M603.3578195030569,318.66643645916594 L614.2629121153648,322.87877606982806 M614.2629121153648,322.87877606982806 L624.174809112571,327.8377102734865 M624.174809112571,327.8377102734865 L632.9374864144829,333.4664182968397 M632.9374864144829,333.4664182968397 L640.4125102889726,339.67748068920497 M640.4125102889726,339.67748068920497 L646.481135834246,346.3742316673761 M646.481135834246,346.3742316673761 L651.0462368526814,353.45220118410845 M651.0462368526814,353.45220118410845 L654.033995131712,360.8006401301163 M654.033995131712,360.8006401301163 L655.395118544952,368.304263825518 M655.395118544952,368.304263825518 L655.1058022036643,375.8449866479553 M655.1058022036643,375.8449866479553 L653.1681604932828,383.3038362929514 M653.1681604932828,383.3038362929514 L649.6104632909381,390.56274473069175 M649.6104632909381,390.56274473069175 L644.4867502601775,397.50650734114004 M644.4867502601775,397.50650734114004 L637.876128488897,404.02461319728553 M637.876128488897,404.02461319728553 L629.8816822955368,410.0130497224386 M629.8816822955368,410.0130497224386 L620.6288380508712,415.376031208224 M620.6288380508712,415.376031208224 L610.263499436029,420.0275830513213 M610.263499436029,420.0275830513213 L598.9497121105455,423.8930072313211 M598.9497121105455,423.8930072313211 L586.8670597881131,426.9101043183587 M586.8670597881131,426.9101043183587 L574.2077397435778,429.0302818164026 M574.2077397435778,429.0302818164026 L561.1734289939259,430.21935638538895 M561.1734289939259,430.21935638538895 L547.9720192136147,430.45813577993124 M547.9720192136147,430.45813577993124 L534.8141231221258,429.7427667369133 M534.8141231221258,429.7427667369133 L521.9096478027831,428.0847942245252 M521.9096478027831,428.0847942245252 L509.4643063634068,425.5109609632083 M509.4643063634068,425.5109609632083 L497.676250928874,422.0627551607075 M497.676250928874,422.0627551607075 L486.73282006761036,417.79568600978206 M486.73282006761036,417.79568600978206 L476.80750031085273,412.77834315212505 M476.80750031085273,412.77834315212505 L477.1593302129533,265.9160120316101 M236.80218915582506,611.8725961969769 L228.02118534978933,606.0326759837385 M228.02118534978933,606.0326759837385 L220.58010848905002,599.5985928137673 M220.58010848905002,599.5985928137673 L214.59536378374935,592.6731556874411 M214.59536378374935,592.6731556874411 L210.1598815572098,585.366729150471 M210.1598815572098,585.366729150471 L207.34165947562647,577.7954656765237 M207.34165947562647,577.7954656765237 L206.18288512452236,570.0793674206814 M206.18288512452236,570.0793674206814 L206.69935872228552,562.3404002837159 M206.69935872228552,562.3404002837159 L208.88049830633483,554.7004864986543 M208.88049830633483,554.7004864986543 L212.6895273066783,547.2796732898739 M212.6895273066783,547.2796732898739 L218.06430674248367,540.194205159997 M218.06430674248367,540.194205159997 L224.918408120456,533.5547639364268 M224.918408120456,533.5547639364268 L233.14255179282816,527.4648038831731 M233.14255179282816,527.4648038831731 L242.60645770680395,522.0189688511084 M242.60645770680395,522.0189688511084 L253.16088867773922,517.3017134957779 M253.16088867773922,517.3017134957779 L264.64003943819984,513.3860390287773 M264.64003943819984,513.3860390287773 L276.8640648195907,510.3324553162243 M276.8640648195907,510.3324553162243 L289.6418934330667,508.1880726378117 M289.6418934330667,508.1880726378117 L302.7741102620968,506.98593970094083 M302.7741102620968,506.98593970094083 L316.0559420016174,506.74458402764157 M316.0559420016174,506.74458402764157 L329.2803932963475,507.46771977972094 M329.2803932963475,507.46771977972094 L342.2413214738417,509.14420932655713 M342.2413214738417,509.14420932655713 L354.73655788887794,511.7482209546556 M354.73655788887794,511.7482209546556 L366.57094495030134,515.2395937478568 M366.57094495030134,515.2395937478568 L377.5592947576213,519.5644227896962 M377.5592947576213,519.5644227896962 L387.5292252785002,524.6558380886149 M387.5292252785002,524.6558380886149 L396.32382086497796,530.4349611042408 M396.32382086497796,530.4349611042408 L403.8040733118984,536.8120770162437 M403.8040733118984,536.8120770162437 L409.85112113226955,543.6879530732949 M409.85112113226955,543.6879530732949 L414.3681542307317,550.9553201906547 M414.3681542307317,550.9553201906547 L417.28201959219444,558.5004882683183 M417.28201959219444,558.5004882683183 L418.5445438201022,566.2051013847902 M418.5445438201022,566.2051013847902 L418.1333681794824,573.9479248182668 M418.1333681794824,573.9479248182668 L416.05247945865267,581.6067669397696 M416.05247945865267,581.6067669397696 L412.3323784152156,589.0604181012002 M412.3323784152156,589.0604181012002 L407.0295802363944,596.1905494905986 M407.0295802363944,596.1905494905986 L400.2260139383087,602.8836866360145 M400.2260139383087,602.8836866360145 L392.02777027899106,609.0329935361563 M392.02777027899106,609.0329935361563 L382.5635102398878,614.540102366401 M382.5635102398878,614.540102366401 L371.9824931051204,619.3167083671474 M371.9824931051204,619.3167083671474 L360.4521860600181,623.2860762310986 M360.4521860600181,623.2860762310986 L348.15566203397225,626.3843299841419 M348.15566203397225,626.3843299841419 L335.2885243826629,628.5615389155951 M335.2885243826629,628.5615389155951 L322.0558359894561,629.7826129176631 M322.0558359894561,629.7826129176631 L308.6686600866124,630.0278070599363 M308.6686600866124,630.0278070599363 L295.34059040638664,629.2931933355428 M295.34059040638664,629.2931933355428 L282.28432015890814,627.5906210013288 M282.28432015890814,627.5906210013288 L269.7079850679393,624.9475540047115 M269.7079850679393,624.9475540047115 L257.81186971729255,621.4065991774569 M257.81186971729255,621.4065991774569 L246.7850055665032,617.0247955646646 M246.7850055665032,617.0247955646646 L236.80218915582506,611.8725961969769 M236.80218915582506,611.8725961969769 L236.0536533492434,472.67542174030285" stroke="black"  stroke-width="4"  fill="red"/></svg>