<svg viewBox="0 0 800 800" xmlns="http://www.w3.org/2000/svg"><path d="" stroke="black"  stroke-width="4"  fill="red"/>
<path d="M308.5660781793551,693.9572115717694 L308.44387585493814,500.04457346899954 M652.3223908644154,640.3626464466658 L653.3571938335899,446.62792484509555 M308.5660781793551,693.9572115717694 L652.3223908644154,640.3626464466658 M308.44387585493814,500.04457346899954 L653.3571938335899,446.62792484509555 M741.6863677507888,442.07595337591 L743.0127450753167,249.0052447990357 M652.3223908644154,640.3626464466658 L741.6863677507888,442.07595337591 M653.3571938335899,446.62792484509555 L743.0127450753167,249.0052447990357 M491.0745696832561,298.62746461038046 L491.5609464355374,106.04278842823066 M741.6863677507888,442.07595337591 L491.0745696832561,298.62746461038046 M743.0127450753167,249.0052447990357 L491.5609464355374,106.04278842823066 M151.07522339417713,350.9674593771862 L150.42978790790102,158.20489428111927 M491.0745696832561,298.62746461038046 L151.07522339417713,350.9674593771862 M491.5609464355374,106.04278842823066 L150.42978790790102,158.20489428111927 M57.94950575648676,547.9996363841253 L56.98725492468327,354.5730862146457 M151.07522339417713,350.9674593771862 L57.94950575648676,547.9996363841253 M150.42978790790102,158.20489428111927 L56.98725492468327,354.5730862146457 M57.94950575648676,547.9996363841253 L308.5660781793551,693.9572115717694 M56.98725492468327,354.5730862146457 L308.44387585493814,500.04457346899954" stroke="black"  stroke-width="4"  fill="red"/></svg>