<svg viewBox="0 0 800 800" xmlns="http://www.w3.org/2000/svg"><path d="M584.3911585989755,642.120244806255 L614.7572790519548,623.2824300654015 M614.7572790519548,623.2824300654015 L639.4258688401213,601.8584219694229 M639.4258688401213,601.8584219694229 L657.749591021284,578.4175666892281 M657.749591021284,578.4175666892281 L669.2506711109636,553.5815702776681 M669.2506711109636,553.5815702776681 L673.6329235227106,528.0077251210805 M673.6329235227106,528.0077251210805 L670.7888358040889,502.37136674248865 M670.7888358040889,502.37136674248865 L660.8015393829983,477.3479393834291 M660.8015393829983,477.3479393834291 L643.9417503625973,453.5952441835643 M643.9417503625973,453.5952441835643 L620.6599316427643,431.7363418281048 M620.6599316427643,431.7363418281048 L591.5737099380996,412.3434489063269 M591.5737099380996,412.3434489063269 L557.451267581812,395.9233024558288 M557.451267581812,395.9233024558288 L519.1909726968653,382.9042664633899 M519.1909726968653,382.9042664633899 L477.79780682772844,373.6255394996804 M477.79780682772844,373.6255394996804 L434.3573114316506,368.3286271067616 M434.3573114316506,368.3286271067616 L390.00757887093783,367.1512992075528 M390.00757887093783,367.1512992075528 L345.9100118303762,370.12417079654836 M345.9100118303762,370.12417079654836 L303.21952774335745,377.16994765365075 M303.21952774335745,377.16994765365075 L263.05499311189635,388.10530088107095 M263.05499311189635,388.10530088107095 L226.47035221798964,402.64549887173337 M226.47035221798964,402.64549887173337 L194.42746946716827,420.41152084208284 M194.42746946716827,420.41152084208284 L167.77098846790113,440.93957101270263 M167.77098846790113,440.93957101270263 L147.20616091278671,463.6928510751773 M147.20616091278671,463.6928510751773 L133.27995958919098,488.0752191766246 M133.27995958919098,488.0752191766246 L126.36620383124568,513.4464985022812 M126.36620383124568,513.4464985022812 L126.65503002316711,539.1390973062702 M126.65503002316711,539.1390973062702 L134.14700668728483,564.4754235104854 M134.14700668728483,564.4754235104854 L148.6522944352945,588.7857723084437 M148.6522944352945,588.7857723084437 L169.79486983722316,611.4261481846527 M169.79486983722316,611.4261481846527 L197.02169179865245,631.7955430164031 M197.02169179865245,631.7955430164031 L229.61686226470525,649.3522182025351 M229.61686226470525,649.3522182025351 L266.7202626014984,663.6284515777556 M266.7202626014984,663.6284515777556 L307.3502834214838,674.2433854830297 M307.3502834214838,674.2433854830297 L350.4300571967266,680.9135401475862 M350.4300571967266,680.9135401475862 L394.8164035633172,683.4606253858499 M394.8164035633172,683.4606253858499 L439.330761889799,681.8165525777683 M439.37501846351563,532.3096770506438 L439.330761889799,681.8165525777683 M439.37501846351563,532.3096770506438 L394.81102870736487,533.9519255963514 M394.81102870736487,533.9519255963514 L350.3751946382039,531.4076666406801 M350.3751946382039,531.4076666406801 L307.24739991279387,524.7449142938226 M307.24739991279387,524.7449142938226 L266.5721071492452,514.1417635293074 M266.5721071492452,514.1417635293074 L229.42738982731962,499.88138341395893 M229.42738982731962,499.88138341395893 L196.7959539345451,482.34421355516446 M196.7959539345451,482.34421355516446 L169.53887568223743,461.9974617476862 M169.53887568223743,461.9974617476862 L148.37284631812597,439.3822694819401 M148.37284631812597,439.3822694819401 L133.85151535468503,415.09898075173174 M133.85151535468503,415.09898075173174 L126.3513148338464,389.7908774611965 M126.3513148338464,389.7908774611965 L126.06228377588997,364.12692013576816 M126.06228377588997,364.12692013576816 L132.98384082675443,338.78394553471094 M132.98384082675443,338.78394553471094 L146.92562651984724,314.428798988421 M146.92562651984724,314.428798988421 L167.51339594224535,291.7009394477999 M167.51339594224535,291.7009394477999 L194.19956095679544,271.1958384245098 M194.19956095679544,271.1958384245098 L226.27808200932813,253.44968907852274 M226.27808200932813,253.44968907852274 L262.9033764690375,238.9257631622909 M262.9033764690375,238.9257631622909 L303.11251434732105,228.0026524044258 M303.11251434732105,228.0026524044258 L345.8503867252804,220.96476561170266 M345.8503867252804,220.96476561170266 L389.9968928134596,217.995223623166 M389.9968928134596,217.995223623166 L434.3958422858422,219.17123288636196 M434.3958422858422,219.17123288636196 L477.88455262434877,224.4622131756313 M477.88455262434877,224.4622131756313 L519.3236765848426,233.73055097144453 M519.3236765848426,233.73055097144453 L557.6264741547438,246.7350146669101 M557.6264741547438,246.7350146669101 L591.7868517844315,263.13678993550747 M591.7868517844315,263.13678993550747 L620.9054442595893,282.50799720451033 M620.9054442595893,282.50799720451033 L644.213213052656,304.34247127526777 M644.213213052656,304.34247127526777 L661.0918389787407,328.0686397268886 M661.0918389787407,328.0686397268886 L671.0903494251285,353.0641414014733 M671.0903494251285,353.0641414014733 L673.9377162241101,378.6719115735265 M673.9377162241101,378.6719115735265 L669.5507033878937,404.2172599130433 M669.5507033878937,404.2172599130433 L658.0369309809429,429.0256024127885 M658.0369309809429,429.0256024127885 L639.6929034404844,452.4403759483914 M639.6929034404844,452.4403759483914 L614.9969185807894,473.8405622790246 M614.9969185807894,473.8405622790246 L584.5970286381786,492.6574434469762 M584.5970286381786,492.6574434469762 L584.3911585989755,642.120244806255 M371.0055330571314,642.290240091477 L439.330761889799,681.8165525777683 M584.3911585989755,642.120244806255 L600.7057477768533,606.6956951875316 M600.7057477768533,606.6956951875316 L516.550641342415,558.133497529893 M516.550641342415,558.133497529893 L401.7916678316555,575.9003492816587 M401.7916678316555,575.9003492816587 L371.0055330571314,642.290240091477 M600.7057477768533,606.6956951875316 L600.9296788632033,457.27226918155304 M584.5970286381786,492.6574434469762 L600.9296788632033,457.27226918155304 M600.9296788632033,457.27226918155304 L516.6807543533585,408.764117243736 M516.6807543533585,408.764117243736 L401.794066394303,426.5111868985098 M401.794066394303,426.5111868985098 L370.97362916953256,492.8272498779614 M370.97362916953256,492.8272498779614 L439.37501846351563,532.3096770506438 M371.0055330571314,642.290240091477 L370.97362916953256,492.8272498779614 M401.7916678316555,575.9003492816587 L401.794066394303,426.5111868985098 M516.550641342415,558.133497529893 L516.6807543533585,408.764117243736" stroke="black"  stroke-width="4"  fill="red"/>
<path d="M455.1607957421622,690.9742659935471 L455.34695504703353,241.42056195456402 M570.1021688337731,673.1464965240973 L570.6735498241555,223.65253768974128 M455.1607957421622,690.9742659935471 L570.1021688337731,673.1464965240973 M455.34695504703353,241.42056195456402 L570.6735498241555,223.65253768974128 M600.7057477768533,606.6956951875316 L601.379040734134,157.42470730285382 M570.1021688337731,673.1464965240973 L600.7057477768533,606.6956951875316 M570.6735498241555,223.65253768974128 L601.379040734134,157.42470730285382 M516.550641342415,558.133497529893 L516.9418511287728,109.02573400645286 M600.7057477768533,606.6956951875316 L516.550641342415,558.133497529893 M601.379040734134,157.42470730285382 L516.9418511287728,109.02573400645286 M401.7916678316555,575.9003492816587 L401.7988795757269,126.73284170681461 M516.550641342415,558.133497529893 L401.7916678316555,575.9003492816587 M516.9418511287728,109.02573400645286 L401.7988795757269,126.73284170681461 M371.0055330571314,642.290240091477 L370.9096076159349,192.8997626965987 M401.7916678316555,575.9003492816587 L371.0055330571314,642.290240091477 M401.7988795757269,126.73284170681461 L370.9096076159349,192.8997626965987 M371.0055330571314,642.290240091477 L455.1607957421622,690.9742659935471 M370.9096076159349,192.8997626965987 L455.34695504703353,241.42056195456402" stroke="black"  stroke-width="4"  fill="red"/></svg>