<svg viewBox="0 0 800 800" xmlns="http://www.w3.org/2000/svg"><path d="M69.06368724557547,522.6287679211383 L83.20896739301702,532.7999165842598 M83.20896739301702,532.7999165842598 L96.53860628789221,546.3508391963327 M96.53860628789221,546.3508391963327 L108.27698413051314,562.4935128536632 M108.27698413051314,562.4935128536632 L117.74103777751725,580.2888360031266 M117.74103777751725,580.2888360031266 L124.38016829197767,598.7014034349447 M124.38016829197767,598.7014034349447 L127.80835459162336,616.6599603666721 M127.80835459162336,616.6599603666721 L127.82664812690774,633.1199373681668 M127.82664812690774,633.1199373681668 L124.4346578964147,647.1243513955264 M124.4346578964147,647.1243513955264 L117.83041899613238,657.8595152092471 M117.83041899613238,657.8595152092471 L108.3986877442822,664.7022857646928 M108.3986877442822,664.7022857646928 L96.68834565635206,667.2560914992662 M96.68834565635206,667.2560914992662 L83.38034896923983,665.3737516000641 M83.38034896923983,665.3737516000641 L69.24805326623004,659.1657144476943 M69.24805326623004,659.1657144476943 L55.112284744214435,648.9934287044099 M55.112284744214435,648.9934287044099 L41.79374955054169,635.4481612006101 M41.79374955054169,635.4481612006101 L30.065523762618398,619.3166393136178 M30.065523762618398,619.3166393136178 L20.608344805318893,601.5354098673312 M20.608344805318893,601.5354098673312 L13.971236714060865,583.1366493718979 M13.971236714060865,583.1366493718979 L10.539757250916125,565.1884496054555 M10.539757250916125,565.1884496054555 L10.513609393517584,548.7330072975803 M10.513609393517584,548.7330072975803 L13.894983474805144,534.7262666488164 M13.894983474805144,534.7262666488164 L20.488276428142058,523.9824478985157 M20.488276428142058,523.9824478985157 L29.91123952271687,517.1266768365603 M29.91123952271687,517.1266768365603 L41.616999919655996,514.5585032827103 M41.616999919655996,514.5585032827103 L54.92565099174408,516.4283995390895 M54.92565099174408,516.4283995390895 L69.06368724557547,522.6287679211383 M69.06368724557547,522.6287679211383 L730.9034633079798,140.72773924275504 M730.9034633079798,140.72773924275504 L716.760080266698,134.57506646209492 M716.760080266698,134.57506646209492 L703.4357009815963,132.74390850073388 M703.4357009815963,132.74390850073388 L691.7047478130187,135.33961653560027 M691.7047478130187,135.33961653560027 L682.2485953905616,142.21012480862407 M682.2485953905616,142.21012480862407 L675.6160495528839,152.95503423295656 M675.6160495528839,152.95503423295656 L672.1916436976705,166.94916155685922 M672.1916436976705,166.94916155685922 L672.173483677316,183.37902294679895 M672.173483677316,183.37902294679895 L675.5619541719539,201.29016086982153 M675.5619541719539,201.29016086982153 L682.1598497842265,219.64252912167302 M682.1598497842265,219.64252912167302 L691.5838881985371,237.37072614323213 M691.5838881985371,237.37072614323213 L703.2869672529566,253.4456502858619 M703.2869672529566,253.4456502858619 L716.5898070377796,266.93403721962005 M716.5898070377796,266.93403721962005 L730.7202408931123,277.052460475755 M730.7202408931123,277.052460475755 L744.8578716872978,283.2127817692421 M744.8578716872978,283.2127817692421 L758.181564178982,285.05632724117146 M758.181564178982,285.05632724117146 L769.9170533423498,282.47490787782715 M769.9170533423498,282.47490787782715 L779.381925406557,275.6173160798269 M779.381925406557,275.6173160798269 L786.0253769706401,264.8809919274364 M786.0253769706401,264.8809919274364 L789.4603762635556,250.88915188650176 M789.4603762635556,250.88915188650176 L789.4863906064825,234.45475580266117 M789.4863906064825,234.45475580266117 L786.1012359876629,216.5333000522996 M786.1012359876629,216.5333000522996 L779.5013581732621,198.16719452840468 M779.5013581732621,198.16719452840468 L770.0704935848985,180.42498783511485 M770.0704935848985,180.42498783511485 L758.3573081716631,164.33899107011106 M758.3573081716631,164.33899107011106 L745.0433970933807,150.84500516073356 M745.0433970933807,150.84500516073356 L730.9034633079798,140.72773924275504" stroke="black"  stroke-width="4"  fill="red"/></svg>