<svg version="1.1" xmlns="http://www.w3.org/2000/svg" viewBox="-69.93587828757681 -25.78723125250952 139.87175657515365 51.57446250501903" fill="none" stroke="black" stroke-width="0.6%" vector-effect="non-scaling-stroke">
    <path d="M -29.54395 15.81254 L -29.54395 -8.97469 L 0 0 L 68.93588 -3.84629 L 39.39193 -12.82098 L -29.54395 -8.97469" />
    <path d="M 0 24.78723 L 0 0" />
    <path d="M -29.54395 15.81254 L 0 24.78723 L 68.93588 20.94094 L 68.93588 -3.84629" />
    <path d="M -13.13064 -8.11995 L 6.56532 -2.13683 L 52.52257 -4.70103 L 32.82661 -10.68415 L 32.82661 -3.60209" />
    <path d="M 32.82661 -10.68415 L -13.13064 -8.11995" />
    <path d="M -68.93588 3.84629 L -68.93588 -20.94094 L -39.39193 -11.96625 L 29.54395 -15.81254 L 0 -24.78723 L -68.93588 -20.94094" />
    <path d="M -39.39193 12.82098 L -39.39193 -11.96625" />
    <path d="M -68.93588 3.84629 L -39.39193 12.82098 L -29.54395 12.27151" />
    <path d="M 29.54395 -12.27151 L 29.54395 -15.81254" />
    <path d="M -52.52257 -20.0862 L -32.82661 -14.10308 L 13.13064 -16.66728 L -6.56532 -22.6504 L -6.56532 -15.56833" />
    <path d="M -6.56532 -22.6504 L -52.52257 -20.0862" />
</svg>