<svg version="1.1" xmlns="http://www.w3.org/2000/svg" viewBox="-83.02438761763952 -82.12927293237554 166.04877523527904 164.258545864751" fill="none" stroke="black" stroke-width="0.6%" vector-effect="non-scaling-stroke">
    <path d="M -74.95332 45.23136 L -4.24264 81.12927 L -4.24264 46.66728 L 2.82843 50.25707 L 2.82843 33.02608 L -4.24264 29.43628 L -4.24264 -5.02571 L -74.95332 -40.92362 L -74.95332 -45.23136 L -4.24264 -81.12927" />
    <path d="M 0 78.9754 L -4.24264 81.12927" />
    <path d="M 0 78.9754 L 4.24264 81.12927 L 74.95332 45.23136 L 74.95332 10.76937 L 74.95332 40.92362" />
    <path d="M 0 -10.05141 L 0 -76.10356 L 65.05382 -43.07749 L 0 -10.05141 L -65.05382 -43.07749 L 0 -76.10356" />
    <path d="M -82.02439 -7.17958 L -74.95332 -10.76937" />
    <path d="M -82.02439 10.05141 L -82.02439 -7.17958" />
    <path d="M -74.95332 13.64121 L -74.95332 45.23136" />
    <path d="M -72.12489 -5.02571 L -72.12489 12.20529 L -74.95332 13.64121 L -74.95332 -3.58979 L -72.12489 -5.02571 Z" />
    <path d="M -74.95332 -6.46162 L -72.12489 -5.02571" />
    <path d="M -74.95332 -40.92362 L -74.95332 -6.46162" />
    <path d="M 0 48.82115 L 0 78.9754" />
    <path d="M 4.24264 49.53911 L 4.24264 81.12927" />
    <path d="M 7.07107 28.00037 L 4.24264 29.43628" />
    <path d="M 4.24264 -5.02571 L 4.24264 29.43628" />
    <path d="M 74.95332 -40.92362 L 4.24264 -5.02571" />
    <path d="M 74.95332 -6.46162 L 74.95332 -40.92362" />
    <path d="M 82.02439 -10.05141 L 74.95332 -6.46162" />
    <path d="M 82.02439 7.17958 L 82.02439 -10.05141" />
    <path d="M 74.95332 10.76937 L 82.02439 7.17958" />
    <path d="M 74.95332 -45.23136 L 74.95332 -40.92362" />
    <path d="M 4.24264 -81.12927 L 74.95332 -45.23136" />
    <path d="M -74.95332 13.64121 L -82.02439 10.05141" />
    <path d="M -70.71068 -43.07749 L -74.95332 -45.23136" />
    <path d="M 0 -78.9754 L -4.24264 -81.12927" />
    <path d="M 0 -78.9754 L 4.24264 -81.12927" />
    <path d="M 70.71068 -43.07749 L 74.95332 -45.23136" />
    <path d="M 70.71068 -43.07749 L 74.95332 -40.92362" />
    <path d="M 0 -7.17958 L 4.24264 -5.02571" />
    <path d="M 0 -7.17958 L -4.24264 -5.02571" />
    <path d="M -70.71068 -43.07749 L -74.95332 -40.92362" />
    <path d="M -74.95332 -3.58979 L -82.02439 -7.17958" />
    <path d="M 0 -7.17958 L 0 27.28241 L 4.24264 29.43628" />
    <path d="M 0 27.28241 L -4.24264 29.43628" />
    <path d="M 9.89949 29.43628 L 7.07107 28.00037" />
    <path d="M 9.89949 29.43628 L 2.82843 33.02608" />
    <path d="M 9.89949 46.66728 L 2.82843 50.25707" />
    <path d="M 9.89949 46.66728 L 9.89949 29.43628" />
    <path d="M 74.95332 -13.64121 L 82.02439 -10.05141" />
</svg>