<svg version="1.1" xmlns="http://www.w3.org/2000/svg" viewBox="-218.07674136433178 -9.535629720050562 416.04600788591506 19.071259440101123" fill="none" stroke="black" stroke-width="0.6%" vector-effect="non-scaling-stroke">
    <path d="M 196.96927 6.40572 L 196.96927 -3.59295 L 169.78003 -3.79949 L 165.55385 -3.65185 L 184.13316 -3.51072 L 174.62425 -3.17852 L 183.68733 -3.10967 L 196.36587 -3.5526 L 195.91272 -3.55604 L 196.96927 -3.59295" />
    <path d="M 196.36587 6.4268 L 196.96927 6.40572" />
    <path d="M 165.55385 -3.21034 L 165.55385 -3.65185" />
    <path d="M 174.62425 -3.10688 L 174.62425 -3.17852" />
    <path d="M 183.68733 6.889 L 183.68733 -3.10967" />
    <path d="M 178.98557 6.85328 L 183.68733 6.889 L 196.36587 6.44607 L 196.36587 -3.5526" />
    <path d="M 178.98557 6.94154 L 178.98557 -3.05713 L 154.41101 -3.33745 L 148.67525 -3.204 L 165.46786 -3.01245 L 152.56239 -2.7122 L 160.75391 -2.61876 L 177.96121 -3.0191 L 177.55163 -3.02377 L 178.98557 -3.05713" />
    <path d="M 177.96121 6.96538 L 178.98557 6.94154" />
    <path d="M 148.67525 -2.69253 L 148.67525 -3.204" />
    <path d="M 152.56239 -2.62921 L 152.56239 -2.7122" />
    <path d="M 160.75391 7.37991 L 160.75391 -2.61876" />
    <path d="M 155.56349 7.3207 L 160.75391 7.37991 L 177.96121 6.97958 L 177.96121 -3.0191" />
    <path d="M 155.56349 7.41835 L 155.56349 -2.58032 L 134.35029 -2.92589 L 127.27922 -2.8107 L 141.77491 -2.57456 L 125.86501 -2.31538 L 132.93607 -2.20019 L 154.14928 -2.54576 L 153.79572 -2.55152 L 155.56349 -2.58032" />
    <path d="M 154.14928 7.44139 L 155.56349 7.41835" />
    <path d="M 127.27922 -2.33842 L 127.27922 -2.8107 L 127.27922 -7.18797 L 134.35029 -7.07278 L 148.84598 -7.30892 L 164.75588 -7.04974 L 171.82695 -7.16493 L 150.61374 -7.51051 L 150.26019 -7.50475 L 148.49242 -7.53355 L 127.27922 -7.18797" />
    <path d="M 125.86501 -2.21306 L 125.86501 -2.31538" />
    <path d="M 132.93607 7.79849 L 132.93607 -2.20019" />
    <path d="M 127.41469 7.70854 L 132.93607 7.79849 L 154.14928 7.45291 L 154.14928 -2.54576" />
    <path d="M -88.59716 8.19086 L -88.59716 -1.80782 L -86.33139 -1.79061 L -73.65284 -2.23353 L -82.71592 -2.30238 L -91.37959 -1.99971 L -111.77152 -2.15462 L -115.9977 -2.00698 L -88.80847 -1.80044 L -88.59716 -1.80782" />
    <path d="M -86.33139 8.20807 L -86.33139 -1.79061" />
    <path d="M -88.59716 8.19086 L -86.33139 8.20807 L -82.33846 8.06857" />
    <path d="M -73.65284 -1.85504 L -73.65284 -2.23353 L -73.65284 -7.76514 L -82.31651 -8.06781 L -61.92459 -8.22271 L -66.15077 -8.37035 L -93.34 -8.16381 L -93.1287 -8.15643 L -95.39447 -8.13922 L -82.71592 -7.69629 L -73.65284 -7.76514" />
    <path d="M -115.9977 7.9917 L -115.9977 -2.00698" />
    <path d="M -88.80847 8.19824 L -88.80847 -1.80044" />
    <path d="M -115.9977 7.9917 L -88.80847 8.19824 L -88.59716 8.19086" />
    <path d="M -121.27105 7.89174 L -121.27105 -2.10693 L -119.22317 -2.08357 L -102.01588 -2.4839 L -110.2074 -2.57734 L -121.96572 -2.30378 L -140.39664 -2.51402 L -146.1324 -2.38057 L -121.55784 -2.10026 L -121.27105 -2.10693" />
    <path d="M -119.22317 7.9151 L -119.22317 -2.08357" />
    <path d="M -121.27105 7.89174 L -119.22317 7.9151 L -115.9977 7.84006" />
    <path d="M -102.01588 -2.08051 L -102.01588 -2.4839 L -102.01588 -7.51477 L -113.7742 -7.78833 L -95.34328 -7.99857 L -101.07904 -8.13201 L -125.6536 -7.8517 L -125.36681 -7.84502 L -127.41469 -7.82167 L -110.2074 -7.42133 L -102.01588 -7.51477" />
    <path d="M -146.1324 7.6181 L -146.1324 -2.38057" />
    <path d="M -121.55784 7.89842 L -121.55784 -2.10026" />
    <path d="M -146.1324 7.6181 L -121.55784 7.89842 L -121.27105 7.89174" />
    <path d="M -150.26019 7.50475 L -150.26019 -2.49392 L -148.49242 -2.46513 L -127.27922 -2.8107 L -127.27922 -7.18797 L -141.77491 -7.42411 L -125.86501 -7.68329 L -132.93607 -7.79849 L -154.14928 -7.45291 L -153.79572 -7.44715 L -155.56349 -7.41835 L -134.35029 -7.07278 L -127.27922 -7.18797" />
    <path d="M -148.49242 7.53355 L -148.49242 -2.46513" />
    <path d="M -150.26019 7.50475 L -148.49242 7.53355 L -146.1324 7.4951" />
    <path d="M -127.27922 -2.36439 L -127.27922 -2.8107 L -134.35029 -2.92589 L -134.35029 -7.07278" />
    <path d="M -134.35029 -2.92589 L -148.84598 -2.68975 L -164.75588 -2.94893 L -171.82695 -2.83374 L -150.61374 -2.48817 L -150.26019 -2.49392" />
    <path d="M -171.82695 7.16493 L -171.82695 -2.83374" />
    <path d="M -150.61374 7.51051 L -150.61374 -2.48817" />
    <path d="M -171.82695 7.16493 L -150.61374 7.51051 L -150.26019 7.50475" />
    <path d="M -196.96927 -6.32291 L -196.96927 -6.40572 L -169.78003 -6.19918 L -165.55385 -6.34682 L -184.13316 -6.48796 L -174.62425 -6.82015 L -183.68733 -6.889 L -196.36587 -6.44607 L -195.91272 -6.44263 L -196.96927 -6.40572" />
    <path d="M -169.78003 -3.79949 L -169.78003 -6.19918" />
    <path d="M -165.55385 -3.65185 L -165.55385 -6.34682" />
    <path d="M -174.62425 -6.41572 L -174.62425 -6.82015" />
    <path d="M -196.36587 -6.4268 L -196.36587 -6.44607" />
    <path d="M -178.98557 -6.85328 L -178.98557 -6.94154 L -154.41101 -6.66123 L -148.67525 -6.79467 L -165.46786 -6.98622 L -152.56239 -7.28647 L -160.75391 -7.37991 L -177.96121 -6.97958 L -177.55163 -6.9749 L -178.98557 -6.94154" />
    <path d="M -154.41101 -3.33745 L -154.41101 -6.66123" />
    <path d="M -148.67525 -3.204 L -148.67525 -6.79467" />
    <path d="M -152.56239 -6.83901 L -152.56239 -7.28647" />
    <path d="M -177.96121 -6.96538 L -177.96121 -6.97958" />
    <path d="M -155.56349 -7.3207 L -155.56349 -7.41835" />
    <path d="M -125.86501 -2.34826 L -125.86501 -7.68329" />
    <path d="M -154.14928 -7.44139 L -154.14928 -7.45291" />
    <path d="M 88.59716 -8.19086 L 86.33139 -8.20807 L 73.65284 -7.76514 L 82.71592 -7.69629 L 91.37959 -7.99896 L 111.77152 -7.84406 L 115.9977 -7.9917 L 88.80847 -8.19824 L 88.59716 -8.19086 Z" />
    <path d="M 73.65284 -2.23353 L 73.65284 -7.76514" />
    <path d="M 82.71592 -2.30238 L 82.71592 -7.69629" />
    <path d="M 91.37959 -1.99971 L 91.37959 -7.99896" />
    <path d="M 111.77152 -7.74174 L 111.77152 -7.84406" />
    <path d="M 115.9977 -7.84006 L 115.9977 -7.9917" />
    <path d="M 134.35029 -2.92589 L 134.35029 -7.07278" />
    <path d="M 148.84598 -3.20797 L 148.84598 -7.30892" />
    <path d="M 164.75588 -3.21944 L 164.75588 -7.04974" />
    <path d="M 171.82695 -3.78394 L 171.82695 -7.16493" />
    <path d="M 121.27105 -7.89174 L 119.22317 -7.9151 L 102.01588 -7.51477 L 110.2074 -7.42133 L 121.96572 -7.69489 L 140.39664 -7.48466 L 146.1324 -7.6181 L 121.55784 -7.89842 L 121.27105 -7.89174 Z" />
    <path d="M 102.01588 -2.4839 L 102.01588 -7.51477" />
    <path d="M 110.2074 -2.57734 L 110.2074 -7.42133" />
    <path d="M 121.96572 -2.30378 L 121.96572 -7.69489" />
    <path d="M 140.39664 -7.40166 L 140.39664 -7.48466" />
    <path d="M 146.1324 -7.4951 L 146.1324 -7.6181" />
    <path d="M 53.23128 -8.39299 L 50.81647 -8.40354 L 43.05189 -7.93147 L 52.71115 -7.88931 L 58.01694 -8.21189 L 79.75027 -8.11702 L 82.33846 -8.27437 L 53.36069 -8.40086 L 53.23128 -8.39299 Z" />
    <path d="M 43.05189 -2.0672 L 43.05189 -7.93147" />
    <path d="M 52.71115 -2.10936 L 52.71115 -7.88931" />
    <path d="M 58.01694 -1.78679 L 58.01694 -8.21189" />
    <path d="M 79.75027 -7.97816 L 79.75027 -8.11702" />
    <path d="M 60.47572 1.79752 L 61.92459 1.80384" />
    <path d="M 82.33846 -8.06857 L 82.33846 -8.27437" />
    <path d="M 16.248 -8.49202 L 13.75751 -8.49557 L 11.14284 -8.00871 L 21.10479 -7.99451 L 22.89148 -8.3272 L 45.30586 -8.29525 L 46.17742 -8.45754 L 16.29158 -8.50013 L 16.248 -8.49202 Z" />
    <path d="M 11.14284 -1.98996 L 11.14284 -8.00871" />
    <path d="M 21.10479 -2.00416 L 21.10479 -7.99451" />
    <path d="M 22.89148 -1.67147 L 22.89148 -8.3272" />
    <path d="M 45.30586 -8.06851 L 45.30586 -8.29525" />
    <path d="M 23.71946 1.67265 L 26.62435 1.67679" />
    <path d="M 46.17742 -8.1215 L 46.17742 -8.45754" />
    <path d="M -23.71946 -1.67265 L -23.71946 -8.48137 L -21.10479 -7.99451 L -11.14284 -8.00871 L -12.92953 -8.3414 L 9.48485 -8.37334 L 8.61329 -8.53563 L -21.27255 -8.49303 L -21.22897 -8.48492 L -23.71946 -8.48137" />
    <path d="M -21.10479 -2.00416 L -21.10479 -7.99451" />
    <path d="M -11.14284 -1.98996 L -11.14284 -8.00871" />
    <path d="M 9.48485 -1.65237 L 9.48485 -8.37334" />
    <path d="M -11.14284 1.65473 L -9.48485 1.65237" />
    <path d="M -21.27255 -8.48486 L -21.27255 -8.49303" />
    <path d="M -60.47572 -1.79752 L -60.47572 -8.36137 L -52.71115 -7.88931 L -43.05189 -7.93147 L -48.35768 -8.25405 L -26.62435 -8.34892 L -29.21254 -8.50627 L -58.19032 -8.37978 L -58.06091 -8.37191 L -60.47572 -8.36137" />
    <path d="M -52.71115 -2.10936 L -52.71115 -7.88931" />
    <path d="M -43.05189 -2.0672 L -43.05189 -7.93147" />
    <path d="M -26.62435 -1.67679 L -26.62435 -8.34892" />
    <path d="M -58.19032 -8.37135 L -58.19032 -8.37978" />
    <path d="M -95.39447 -7.99976 L -95.39447 -8.13922" />
    <path d="M -82.71592 -2.30238 L -82.71592 -7.69629" />
    <path d="M -61.92459 -1.80384 L -61.92459 -8.22271" />
    <path d="M -93.34 -8.15483 L -93.34 -8.16381" />
    <path d="M -127.41469 -7.70854 L -127.41469 -7.82167" />
    <path d="M -110.2074 -2.57734 L -110.2074 -7.42133" />
    <path d="M -95.34328 -2.02982 L -95.34328 -7.99857" />
    <path d="M -125.6536 -7.84175 L -125.6536 -7.8517" />
    <path d="M -208.96815 -5.74687 L -208.96815 -5.82716 L -179.99037 -5.70067 L -177.40218 -5.85803 L -197.20366 -5.94446 L -191.38023 -6.29851 L -201.03949 -6.34067 L -208.80406 -5.86861 L -208.3211 -5.8665 L -208.96815 -5.82716" />
    <path d="M -179.99037 -4.298 L -179.99037 -5.70067" />
    <path d="M -177.40218 -4.14064 L -177.40218 -5.85803" />
    <path d="M -191.38023 -5.91904 L -191.38023 -6.29851" />
    <path d="M -208.80406 -5.83714 L -208.80406 -5.86861" />
    <path d="M -214.61764 -5.14316 L -214.61764 -5.22345 L -184.7318 -5.18086 L -183.86024 -5.34314 L -204.28223 -5.37225 L -202.32123 -5.73739 L -212.28317 -5.75159 L -214.89785 -5.26473 L -214.39975 -5.26402 L -214.61764 -5.22345" />
    <path d="M -184.7318 -4.81781 L -184.7318 -5.18086" />
    <path d="M -183.86024 -4.65553 L -183.86024 -5.34314" />
    <path d="M -202.32123 -5.36946 L -202.32123 -5.73739" />
    <path d="M -214.89785 -5.14276 L -214.89785 -5.26473" />
    <path d="M -213.96397 -4.52917 L -213.96397 -4.65351 L -213.74608 -4.61293 L -183.86024 -4.65553 L -184.7318 -4.81781 L -205.15379 -4.78871 L -207.11479 -5.15385 L -217.07674 -5.13965 L -214.46207 -4.6528 L -213.96397 -4.65351" />
    <path d="M -213.74608 -4.53012 L -213.74608 -4.61293" />
    <path d="M -183.86024 -4.28111 L -183.86024 -4.65553" />
    <path d="M -217.07674 4.85902 L -217.07674 -5.13965" />
    <path d="M -214.46207 -4.527 L -214.46207 -4.6528" />
    <path d="M -217.07674 4.85902 L -215.27454 5.19459" />
    <path d="M -207.02701 5.94518 L -207.02701 -4.05349 L -206.37996 -4.01416 L -177.40218 -4.14064 L -179.99037 -4.298 L -199.79185 -4.21156 L -205.61528 -4.56561 L -215.27454 -4.52345 L -207.50997 -4.05139 L -207.02701 -4.05349" />
    <path d="M -206.37996 -3.92589 L -206.37996 -4.01416" />
    <path d="M -207.02701 5.94518 L -206.93133 5.951" />
    <path d="M -177.40218 -3.74159 L -177.40218 -4.14064" />
    <path d="M -215.27454 5.47522 L -215.27454 -4.52345" />
    <path d="M -207.50997 5.94729 L -207.50997 -4.05139" />
    <path d="M -215.27454 5.47522 L -207.50997 5.94729 L -207.02701 5.94518" />
    <path d="M -193.79963 6.51645 L -193.79963 -3.48222 L -192.74308 -3.44531 L -165.55385 -3.65185 L -169.78003 -3.79949 L -188.35934 -3.65836 L -197.86825 -3.99055 L -206.93133 -3.92171 L -194.25278 -3.47878 L -193.79963 -3.48222" />
    <path d="M -192.74308 6.55336 L -192.74308 -3.44531" />
    <path d="M -193.79963 6.51645 L -192.74308 6.55336 L -192.30062 6.55" />
    <path d="M -165.55385 -3.21034 L -165.55385 -3.65185" />
    <path d="M -206.93133 6.07697 L -206.93133 -3.92171" />
    <path d="M -194.25278 6.51989 L -194.25278 -3.47878" />
    <path d="M -206.93133 6.07697 L -194.25278 6.51989 L -193.79963 6.51645" />
    <path d="M -174.68375 7.04163 L -174.68375 -2.95705 L -173.24981 -2.92369 L -148.67525 -3.204 L -154.41101 -3.33745 L -171.20363 -3.1459 L -184.1091 -3.44615 L -192.30062 -3.35271 L -175.09332 -2.95237 L -174.68375 -2.95705" />
    <path d="M -173.24981 7.07499 L -173.24981 -2.92369" />
    <path d="M -174.68375 7.04163 L -173.24981 7.07499 L -171.82695 7.05876" />
    <path d="M -148.67525 -2.69253 L -148.67525 -3.204" />
    <path d="M -192.30062 6.64597 L -192.30062 -3.35271" />
    <path d="M -175.09332 7.0463 L -175.09332 -2.95237" />
    <path d="M -192.30062 6.64597 L -175.09332 7.0463 L -174.68375 7.04163" />
    <path d="M -53.23128 8.39299 L -53.23128 -1.60568 L -50.81647 -1.59514 L -43.05189 -2.0672 L -52.71115 -2.10936 L -58.01694 -1.78679 L -79.75027 -1.88165 L -82.33846 -1.7243 L -53.36069 -1.59781 L -53.23128 -1.60568" />
    <path d="M -50.81647 8.40354 L -50.81647 -1.59514" />
    <path d="M -53.23128 8.39299 L -50.81647 8.40354 L -46.17742 8.1215" />
    <path d="M -43.05189 -1.70021 L -43.05189 -2.0672" />
    <path d="M -82.33846 8.27437 L -82.33846 -1.7243" />
    <path d="M -53.36069 8.40086 L -53.36069 -1.59781" />
    <path d="M -82.33846 8.27437 L -53.36069 8.40086 L -53.23128 8.39299" />
    <path d="M -16.248 8.49202 L -16.248 -1.50665 L -13.75751 -1.5031 L -11.14284 -1.98996 L -21.10479 -2.00416 L -22.89148 -1.67147 L -45.30586 -1.70342 L -46.17742 -1.54113 L -16.29158 -1.49854 L -16.248 -1.50665" />
    <path d="M -13.75751 8.49557 L -13.75751 -1.5031" />
    <path d="M -16.248 8.49202 L -13.75751 8.49557 L -11.14284 8.00871 L -11.14284 -1.98996" />
    <path d="M -46.17742 8.45754 L -46.17742 -1.54113" />
    <path d="M -16.29158 8.50013 L -16.29158 -1.49854" />
    <path d="M -46.17742 8.45754 L -16.29158 8.50013 L -16.248 8.49202" />
    <path d="M 23.71946 8.48137 L 23.71946 -1.5173 L 21.10479 -2.00416 L 11.14284 -1.98996 L 12.92953 -1.65728 L -9.48485 -1.62533 L -8.61329 -1.46304 L 21.27255 -1.50564 L 21.22897 -1.51375 L 23.71946 -1.5173" />
    <path d="M 21.27255 8.48486 L 23.71946 8.48137" />
    <path d="M 11.14284 -1.65473 L 11.14284 -1.98996" />
    <path d="M -9.48485 8.37334 L -9.48485 -1.62533" />
    <path d="M -8.61329 8.53563 L -8.61329 -1.46304" />
    <path d="M -9.48485 8.37334 L -8.61329 8.53563 L 21.27255 8.49303 L 21.27255 -1.50564" />
    <path d="M 60.47572 8.36137 L 60.47572 -1.6373 L 52.71115 -2.10936 L 43.05189 -2.0672 L 48.35768 -1.74462 L 26.62435 -1.64976 L 29.21254 -1.4924 L 58.19032 -1.61889 L 58.06091 -1.62676 L 60.47572 -1.6373" />
    <path d="M 58.19032 8.37135 L 60.47572 8.36137" />
    <path d="M 43.05189 -1.72146 L 43.05189 -2.0672" />
    <path d="M 26.62435 8.34892 L 26.62435 -1.64976" />
    <path d="M 29.21254 8.50627 L 29.21254 -1.4924" />
    <path d="M 26.62435 8.34892 L 29.21254 8.50627 L 58.19032 8.37978 L 58.19032 -1.61889" />
    <path d="M 95.39447 8.13922 L 95.39447 -1.85945 L 82.71592 -2.30238 L 73.65284 -2.23353 L 82.31651 -1.93087 L 61.92459 -1.77596 L 66.15077 -1.62832 L 93.34 -1.83486 L 93.1287 -1.84224 L 95.39447 -1.85945" />
    <path d="M 93.34 8.15483 L 95.39447 8.13922" />
    <path d="M 73.65284 -1.86505 L 73.65284 -2.23353" />
    <path d="M 61.92459 8.22271 L 61.92459 -1.77596" />
    <path d="M 66.15077 8.37035 L 66.15077 -1.62832" />
    <path d="M 61.92459 8.22271 L 66.15077 8.37035 L 93.34 8.16381 L 93.34 -1.83486" />
    <path d="M 127.41469 7.82167 L 127.41469 -2.17701 L 110.2074 -2.57734 L 102.01588 -2.4839 L 113.7742 -2.21034 L 95.34328 -2.0001 L 101.07904 -1.86666 L 125.6536 -2.14698 L 125.36681 -2.15365 L 127.41469 -2.17701" />
    <path d="M 125.6536 7.84175 L 127.41469 7.82167" />
    <path d="M 102.01588 -2.07622 L 102.01588 -2.4839" />
    <path d="M 95.34328 -1.86124 L 95.34328 -2.0001" />
    <path d="M 101.07904 8.13201 L 101.07904 -1.86666" />
    <path d="M 95.39447 7.99976 L 101.07904 8.13201 L 125.6536 7.8517 L 125.6536 -2.14698" />
</svg>