<svg viewBox="0 0 800 800" xmlns="http://www.w3.org/2000/svg"><path d="M543.5139473302531,412.1846454810885 L545.1826769192597,364.287840603754 M390.5130782500148,506.2693598654081 L391.5000743518136,457.97521095134573 M543.5139473302531,412.1846454810885 L390.5130782500148,506.2693598654081 M545.1826769192597,364.287840603754 L391.5000743518136,457.97521095134573 M822.8693180011682,570.8265128152726 L825.9001389208548,522.2683064660267 M822.8693180011682,570.8265128152726 L543.5139473302531,412.1846454810885 M825.9001389208548,522.2683064660267 L545.1826769192597,364.287840603754 M670.3033403888559,670.5442579967597 L672.658561312545,621.5919103622115 M390.5130782500148,506.2693598654081 L670.3033403888559,670.5442579967597 M391.5000743518136,457.97521095134573 L672.658561312545,621.5919103622115 M670.3033403888559,670.5442579967597 L822.8693180011682,570.8265128152726 M587.5701167213773,549.680425284797 L590.6877916364389,551.2447958107614 M590.6877916364389,551.2447958107614 L594.1372830254746,552.5213973567717 M594.1372830254746,552.5213973567717 L597.8412321028522,553.4813273688577 M597.8412321028522,553.4813273688577 L601.7163287326432,554.1027915463269 M601.7163287326432,554.1027915463269 L605.6753386425897,554.3716774720082 M605.6753386425897,554.3716774720082 L609.6290688658022,554.2818750505661 M609.6290688658022,554.2818750505661 L613.4884898269947,553.8354471004715 M613.4884898269947,553.8354471004715 L617.1666092924406,553.0424855767219 M617.1666092924406,553.0424855767219 L620.5807858098838,551.9210432023691 M620.5807858098838,551.9210432023691 L623.6542991890428,550.4965172014774 M623.6542991890428,550.4965172014774 L626.3183170061851,548.8011740583794 M626.3183170061851,548.8011740583794 L628.5133675797942,546.8733426986921 M628.5133675797942,546.8733426986921 L630.1906651384649,544.7565171765406 M630.1906651384649,544.7565171765406 L631.3132570741,542.4983929568097 M631.3132570741,542.4983929568097 L631.8565902920748,540.1496427615388 M631.8565902920748,540.1496427615388 L631.8093285680226,537.7629478395127 M631.8093285680226,537.7629478395127 L631.1732437931513,535.391628945225 M631.1732437931513,535.391628945225 L629.9632736915756,533.088558217218 M629.9632736915756,533.088558217218 L628.207079766486,530.9049509030854 M628.207079766486,530.9049509030854 L625.9444009605241,528.8892673492469 M625.9444009605241,528.8892673492469 L623.2260248345106,527.0860919523749 M623.2260248345106,527.0860919523749 L620.1127737638342,525.5352734435203 M620.1127737638342,525.5352734435203 L616.6740744599293,524.2710196467602 M616.6740744599293,524.2710196467602 L612.9863269310349,523.3211362143029 M612.9863269310349,523.3211362143029 L609.131401665708,522.7065246135567 M609.131401665708,522.7065246135567 L605.1947406184992,522.4406883636227 M605.1947406184992,522.4406883636227 L601.2635508864327,522.5294665603094 M601.2635508864327,522.5294665603094 L597.4248594973521,522.970887642691 M597.4248594973521,522.970887642691 L593.7638161618826,523.7553040213442 M593.7638161618826,523.7553040213442 L590.3615456999547,524.8654228222383 M590.3615456999547,524.8654228222383 L587.2937099814716,526.2768526393081 M587.2937099814716,526.2768526393081 L584.6286370559549,527.9584907290472 M584.6286370559549,527.9584907290472 L582.4258923806144,529.8732259285531 M582.4258923806144,529.8732259285531 L580.7349453147025,531.978727803428 M580.7349453147025,531.978727803428 L579.5939617016624,534.2283071689441 M579.5939617016624,534.2283071689441 L579.0291281790422,536.5720503537831 M579.0291281790422,536.5720503537831 L579.0536919111097,538.9577211186472 M579.0536919111097,538.9577211186472 L579.6678975164186,541.3320896565159 M579.6678975164186,541.3320896565159 L580.8587513624261,543.6420128679399 M580.8587513624261,543.6420128679399 L582.6002904890966,545.8356666554977 M582.6002904890966,545.8356666554977 L584.8540781504272,547.8636979059856 M584.8540781504272,547.8636979059856 L587.5701167213773,549.680425284797 M672.658561312545,621.5919103622115 L825.9001389208548,522.2683064660267 M589.4876254103258,501.2079430450193 L586.7582441099051,499.3986154674004 M586.7582441099051,499.3986154674004 L584.4932128359047,497.37885122654563 M584.4932128359047,497.37885122654563 L582.7427774591669,495.19414735086525 M582.7427774591669,495.19414735086525 L581.5455690742257,492.8936571406499 M581.5455690742257,492.8936571406499 L580.9276866731395,490.5289941018475 M580.9276866731395,490.5289941018475 L580.9021992325748,488.153084554358 M580.9021992325748,488.153084554358 L581.4688754978905,485.8189403275468 M581.4688754978905,485.8189403275468 L582.6144208167085,483.57858292746687 M582.6144208167085,483.57858292746687 L584.3125404246758,481.4817200706128 M584.3125404246758,481.4817200706128 L586.5249042022649,479.574847612943 M586.5249042022649,479.574847612943 L589.2018253602325,477.9001201356414 M589.2018253602325,477.9001201356414 L592.2834733213714,476.4944941822838 M592.2834733213714,476.4944941822838 L595.701213185374,475.3889425868646 M595.701213185374,475.3889425868646 L599.3790408162523,474.6077546677644 M599.3790408162523,474.6077546677644 L603.2354620913959,474.16815081656136 M603.2354620913959,474.16815081656136 L607.1849371768446,474.0797381391711 M607.1849371768446,474.0797381391711 L611.1400377431493,474.34447992244543 M611.1400377431493,474.34447992244543 L615.0131516899,474.9565615773147 M615.0131516899,474.9565615773147 L618.7184370934157,475.90253621914405 M618.7184370934157,475.90253621914405 L622.1736367004395,477.1615899309037 M622.1736367004395,477.1615899309037 L625.3019856972174,478.7060333261319 M625.3019856972174,478.7060333261319 L628.0337215303723,480.5018012887431 M628.0337215303723,480.5018012887431 L630.3077227555314,482.5092108784561 M630.3077227555314,482.5092108784561 L632.0729465643037,484.68386262250806 M632.0729465643037,484.68386262250806 L633.2894477910879,486.9774964900653 M633.2894477910879,486.9774964900653 L633.9294132104901,489.3391081677877 M633.9294132104901,489.3391081677877 L633.9778116413163,491.7160424492225 M633.9778116413163,491.7160424492225 L633.432838905731,494.0551965063321 M633.432838905731,494.0551965063321 L632.3058606538112,496.304103573047 M632.3058606538112,496.304103573047 L630.6215225289725,498.4122964547905 M630.6215225289725,498.4122964547905 L628.416929684738,500.3322724488247 M628.416929684738,500.3322724488247 L625.7410784961323,502.02071269892724 M625.7410784961323,502.02071269892724 L622.6537044437441,503.43944221289576 M622.6537044437441,503.43944221289576 L619.2239511040973,504.55632376032395 M619.2239511040973,504.55632376032395 L615.5288904822238,505.3460616381302 M615.5288904822238,505.3460616381302 L611.6515472645282,505.7906751775482 M611.6515472645282,505.7906751775482 L607.679320907088,505.88011265667205 M607.679320907088,505.88011265667205 L603.7016610131617,505.61231947967644 M603.7016610131617,505.61231947967644 L599.8081842546766,504.9933813878798 M599.8081842546766,504.9933813878798 L596.0865418841126,504.03735450710985 M596.0865418841126,504.03735450710985 L592.6204446124104,502.7659460907555 M592.6204446124104,502.7659460907555 L589.4876254103258,501.2079430450193 M587.5701167213773,549.680425284797 L589.4876254103258,501.2079430450193" stroke="black"  stroke-width="4"  fill="red"/>
<path d="M128.1246570282837,176.29108622764943 L127.90658929767443,129.45574200324035 M-24.99864806446294,262.3075221985167 L-25.90013892085483,215.0743262321734 M128.1246570282837,176.29108622764943 L-24.99864806446294,262.3075221985167 M127.90658929767443,129.45574200324035 L-25.90013892085483,215.0743262321734 M383.39181866636545,321.25360867389696 L384.3136128361906,273.75492717022263 M383.39181866636545,321.25360867389696 L128.1246570282837,176.29108622764943 M384.3136128361906,273.75492717022263 L127.90658929767443,129.45574200324035 M230.2695644795877,412.1846454810884 L230.5079544208744,364.287840603754 M-24.99864806446294,262.3075221985167 L230.2695644795877,412.1846454810884 M-25.90013892085483,215.0743262321734 L230.5079544208744,364.287840603754 M230.2695644795877,412.1846454810884 L383.39181866636545,321.25360867389696 M160.16082771112764,301.9521695594285 L163.0247886792148,303.38029462880786 M163.0247886792148,303.38029462880786 L166.22687386347638,304.5457008389668 M166.22687386347638,304.5457008389668 L169.6952594667303,305.4219924897033 M169.6952594667303,305.4219924897033 L173.3519948020445,305.9893019648262 M173.3519948020445,305.9893019648262 L177.11479764465776,306.2347556525358 M177.11479764465776,306.2347556525358 L180.89893512786523,306.1527826300534 M180.89893512786523,306.1527826300534 L184.6191878006382,305.7452425083472 M184.6191878006382,305.7452425083472 L188.1918067329829,305.02138674685904 M188.1918067329829,305.02138674685904 L191.53644416712746,303.9976342577203 M191.53644416712746,303.9976342577203 L194.57799747650336,302.6971841956568 M194.57799747650336,302.6971841956568 L197.24832269704967,301.149469148765 M197.24832269704967,301.149469148765 L199.48777163247468,299.3894618425101 M199.48777163247468,299.3894618425101 L201.2465241874852,297.45685802745203 M201.2465241874852,297.45685802745203 L202.48568537740198,295.39515751514625 M202.48568537740198,295.39515751514625 L203.17811715428718,293.25066256512304 M203.17811715428718,293.25066256512304 L203.30899277574372,291.0714212614049 M203.30899277574372,291.0714212614049 L202.87607855705647,288.90614036560754 M202.87607855705647,288.90614036560754 L201.8897131276371,286.8030998663318 M201.8897131276371,286.8030998663318 L200.37252496527418,284.8090764809931 M200.37252496527418,284.8090764809931 L198.3588690596768,282.96832285088226 M198.3588690596768,282.96832285088226 L195.89402574609113,281.3215980549361 M195.89402574609113,281.3215980549361 L193.03315156533614,279.90529714344683 M193.03315156533614,279.90529714344683 L189.84005260896424,278.75066449611506 M189.84005260896424,278.75066449611506 L186.38575424897812,277.8831385081636 M186.38575424897812,277.8831385081636 L182.74695544171658,277.3218079243017 M182.74695544171658,277.3218079243017 L179.00434467538201,277.0790150903898 M179.00434467538201,277.0790150903898 L175.24086062766577,277.16009450972297 M175.24086062766577,277.16009450972297 L171.5398875950401,277.5632659576847 M171.5398875950401,277.5632659576847 L167.98346141260333,278.2796661715477 M167.98346141260333,278.2796661715477 L164.65049103180212,279.2935387018571 M164.65049103180212,279.2935387018571 L161.61504241251998,280.5825622780226 M161.61504241251998,280.5825622780226 L158.94471711454145,282.11831961781485 M158.94471711454145,282.11831961781485 L156.69916336106775,283.86690049083165 M156.69916336106775,283.86690049083165 L154.9287436961356,285.78962442510255 M154.9287436961356,285.78962442510255 L153.67338979077147,287.8438694717138 M153.67338979077147,287.8438694717138 L152.9616784872626,289.98399581184265 M152.9616784872626,289.98399581184265 L152.81014958344946,292.1623435219871 M152.81014958344946,292.1623435219871 L153.22287186538603,294.33028523903477 M153.22287186538603,294.33028523903477 L154.19130084418492,296.43930455216866 M154.19130084418492,296.43930455216866 L155.69440175170695,298.4420935135802 M155.69440175170695,298.4420935135802 L157.69907133285818,300.2936206252986 M157.69907133285818,300.2936206252986 L160.16082771112764,301.9521695594285 M230.5079544208744,364.287840603754 L384.3136128361906,273.75492717022263 M178.06216733781008,303.5919595884971 L75.51192295217555,244.2508973459021 M280.61241172344467,244.25089734590216 L178.06216733781008,303.5919595884971 M178.06216733781008,186.21979232720554 L280.61241172344467,244.25089734590216 M75.51192295217555,244.2508973459021 L178.06216733781008,186.21979232720554 M160.16082771112764,301.9521695594285 L160.10083997710916,266.4325959965425 M160.10083997710916,266.4325959965425 L157.6308555692671,264.77961133972315 M157.6308555692671,264.77961133972315 L155.61949660188645,262.93430001265114 M155.61949660188645,262.93430001265114 L154.1113923529922,260.938239489214 M154.1113923529922,260.938239489214 L153.13975466439376,258.83631094730873 M153.13975466439376,258.83631094730873 L152.7256859609344,256.6756639314773 M152.7256859609344,256.6756639314773 L152.87775628894894,254.5046518854458 M152.87775628894894,254.5046518854458 L153.5918801786039,252.37173830454924 M153.5918801786039,252.37173830454924 L154.8514596556911,250.32442198952765 M154.8514596556911,250.32442198952765 L156.62781991275625,248.4081879857635 M156.62781991275625,248.4081879857635 L158.88089401622534,246.66551327713023 M158.88089401622534,246.66551327713023 L161.5601501013188,245.13494641892044 M161.5601501013188,245.13494641892044 L164.60574047157075,243.85028171277474 M164.60574047157075,243.85028171277474 L167.949838393506,242.83983908836092 M167.949838393506,242.83983908836092 L171.51813193021815,242.12586321766946 M171.51813193021815,242.12586321766946 L175.2314506187691,241.72405641072947 M175.2314506187691,241.72405641072947 L179.0074871060757,241.64325145092937 M179.0074871060757,241.64325145092937 L182.76258126841856,241.88522243870239 M182.76258126841856,241.88522243870239 L186.41352002389755,242.44465321972012 M186.41352002389755,242.44465321972012 L189.87934767618594,243.30924387649907 M189.87934767618594,243.30924387649907 L193.0831108405702,244.45997121540984 M193.0831108405702,244.45997121540984 L195.95354794383792,245.87148406696713 M195.95354794383792,245.87148406696713 L198.42663997049976,247.51264498275532 M198.42663997049976,247.51264498275532 L200.4470454725921,249.34718319023625 M200.4470454725921,249.34718319023625 L201.96933136342858,251.3344784322545 M201.96933136342858,251.3344784322545 L202.95902567973138,253.43042836133463 M202.95902567973138,253.43042836133463 L203.39342160896592,255.5884146453982 M203.39342160896592,255.5884146453982 L203.26214294338257,257.7603202549511 M203.26214294338257,257.7603202549511 L202.56742775615658,259.8976022988369 M202.56742775615658,259.8976022988369 L201.3241494884159,261.9523738289003 M201.3241494884159,261.9523738289003 L199.55953451313292,263.8784873813982 M199.55953451313292,263.8784873813982 L197.31260613148896,265.63258813939166 M197.31260613148896,265.63258813939166 L194.6333501248688,267.1751123031513 M194.6333501248688,267.1751123031513 L191.58161416246713,268.4712031116528 M191.58161416246713,268.4712031116528 L188.22577101608874,269.49152536339767 M188.22577101608874,269.49152536339767 L184.64117623510612,270.2129565316428 M184.64117623510612,270.2129565316428 L180.90844872907616,270.6191318658275 M180.90844872907616,270.6191318658275 L177.11162042414475,270.7008303988134 M177.11162042414475,270.7008303988134 L173.3361988946226,270.4561986464664 M173.3361988946226,270.4561986464664 L169.66720343296618,269.8907891747044 M169.66720343296618,269.8907891747044 L166.18719415046405,269.01743314919986 M166.18719415046405,269.01743314919986 L162.9743845492228,267.85593260901305 M162.9743845492228,267.85593260901305 L160.10083997710916,266.4325959965425 M75.62624875416623,256.1319832057365 L178.06216733781008,315.5400914419681 M178.06216733781008,315.5400914419681 L178.06216733781008,303.5919595884971 M75.62624875416623,256.1319832057365 L75.51192295217555,244.2508973459021 M178.06216733781008,315.5400914419681 L280.498085921454,256.1319832057365 M280.498085921454,256.1319832057365 L280.61241172344467,244.25089734590216 M280.498085921454,256.1319832057365 L178.06216733781008,198.03386633083306 M178.06216733781008,198.03386633083306 L178.06216733781008,186.21979232720554 M178.06216733781008,198.03386633083306 L75.62624875416623,256.1319832057365" stroke="black"  stroke-width="4"  fill="red"/></svg>