<svg viewBox="0 0 800 800" xmlns="http://www.w3.org/2000/svg"><path d="M217.23240768611402,381.7447592734732 L216.8174500443278,338.8367144752828 M-48.00031103969275,533.6951048068986 L-48.71688557936227,490.62012416162844 M217.23240768611402,381.7447592734732 L-48.00031103969275,533.6951048068986 M216.8174500443278,338.8367144752828 L-48.71688557936227,490.62012416162844 M476.61655488544216,533.6951048068986 L476.49010055491226,490.62012416162844 M476.61655488544216,533.6951048068986 L217.23240768611402,381.7447592734732 M476.49010055491226,490.62012416162844 L216.8174500443278,338.8367144752828 M-48.00031103969275,533.6951048068986 L187.6036284594853,673.9280923244107 M187.14881944586844,630.7014132386462 L187.6036284594853,673.9280923244107 M-48.71688557936227,490.62012416162844 L187.14881944586844,630.7014132386462 M235.61501607970052,673.9281092572323 L187.6036284594853,673.9280923244107 M235.61501607970052,673.9281092572323 L476.61655488544216,533.6951048068986 M424.08073178823724,542.4502088628776 L428.08999653487706,544.2920330777251 M428.08999653487706,544.2920330777251 L432.74269131483584,545.5179257152934 M432.74269131483584,545.5179257152934 L437.7680781183059,546.0563908273925 M437.7680781183059,546.0563908273925 L442.87352411335075,545.8760287110274 M442.87352411335075,545.8760287110274 L447.7618643679996,544.9873444832856 M447.7618643679996,544.9873444832856 L452.14847065624235,543.4421853828924 M452.14847065624235,543.4421853828924 L455.7781899095818,541.3306256726785 M455.7781899095818,541.3306256726785 L458.44005805886434,538.7757129567492 M458.44005805886434,538.7757129567492 L459.9796491974513,535.9261918283908 M459.9796491974513,535.9261918283908 L460.30791131289595,532.9478953873743 M460.30791131289595,532.9478953873743 L459.40634137594907,530.0138954566182 M459.40634137594907,530.0138954566182 L457.32783696036313,527.2946262201974 M457.32783696036313,527.2946262201974 L454.19357755864587,524.947866971994 M454.19357755864587,524.947866971994 L450.1858279625386,523.1096983652822 M450.1858279625386,523.1096983652822 L445.53738779059904,521.8866238949433 M445.53738779059904,521.8866238949433 L440.518027523902,521.3494980475714 M440.518027523902,521.3494980475714 L435.4189796089568,521.529402188097 M435.4189796089568,521.529402188097 L430.5359701716931,522.4159517953501 M430.5359701716931,522.4159517953501 L426.1523864240255,523.9577771382578 M426.1523864240255,523.9577771382578 L422.522696152594,526.0655718238152 M422.522696152594,526.0655718238152 L419.85785678783805,528.6171507841157 M419.85785678783805,528.6171507841157 L418.3129677615535,531.4645289578175 M418.3129677615535,531.4645289578175 L417.97831455534447,534.4423757520672 M417.97831455534447,534.4423757520672 L418.87383740230007,537.3777066057955 M418.87383740230007,537.3777066057955 L420.94804382112954,540.0997939976953 M420.94804382112954,540.0997939976953 L424.08073178823724,542.4502088628776 M235.2146025192432,630.7014301532874 L476.49010055491226,490.62012416162844 M187.14881944586844,630.7014132386462 L235.2146025192432,630.7014301532874 M211.7647305237548,600.5085655635075 L26.31268386839122,490.62012416162844 M401.4605311071588,490.62012416162844 L211.7647305237548,600.5085655635075 M215.98474981013948,381.9608599566384 L401.4605311071588,490.62012416162844 M26.31268386839122,490.62012416162844 L215.98474981013948,381.9608599566384 M423.8950985191192,499.36569086874175 L420.758907981324,497.0178355529169 M420.758907981324,497.0178355529169 L418.6823943923123,494.29871325027244 M418.6823943923123,494.29871325027244 L417.7858930566455,491.36658072389895 M417.7858930566455,491.36658072389895 L418.12095211739177,488.3919795983766 M418.12095211739177,488.3919795983766 L419.66760658695847,485.5477058478435 M419.66760658695847,485.5477058478435 L422.3354673108823,482.9989096034025 M422.3354673108823,482.9989096034025 L425.96925872788376,480.89341421560283 M425.96925872788376,480.89341421560283 L430.3577850557688,479.35327110485156 M430.3577850557688,479.35327110485156 L435.2462918831349,478.4676889053622 M435.2462918831349,478.4676889053622 L440.3510734675921,478.2879810882874 M440.3510734675921,478.2879810882874 L445.37607176729136,478.82452079902345 M445.37607176729136,478.82452079902345 L450.029727784555,480.0462607180104 M450.029727784555,480.0462607180104 L454.04196874689876,481.88242394132163 M454.04196874689876,481.88242394132163 L457.1797342883069,484.2266235166749 M457.1797342883069,484.2266235166749 L459.2605555732574,486.9429275686396 M459.2605555732574,486.9429275686396 L460.1631176143577,489.8737291223919 M460.1631176143577,489.8737291223919 L459.8344640347299,492.84877991455943 M459.8344640347299,492.84877991455943 L458.29311935171245,495.695196687452 M458.29311935171245,495.695196687452 L455.6282365024912,498.2473268001408 M455.6282365024912,498.2473268001408 L451.9944160056715,500.3565873397865 M451.9944160056715,500.3565873397865 L447.60286030458826,501.9000643206451 M447.60286030458826,501.9000643206451 L442.70901064973526,502.78778121742477 M442.70901064973526,502.78778121742477 L437.597816571209,502.96794702112214 M437.597816571209,502.96794702112214 L432.566778188729,502.4300680051036 M432.566778188729,502.4300680051036 L427.9088580108476,501.2055098236826 M427.9088580108476,501.2055098236826 L423.8950985191192,499.36569086874175 M235.61501607970052,673.9281092572323 L235.2146025192432,630.7014301532874 M424.08073178823724,542.4502088628776 L423.8950985191192,499.36569086874175 M26.69221743686569,516.4767334968062 L212.02062226524444,626.4367891670945 M212.02062226524444,626.4367891670945 L211.7647305237548,600.5085655635075 M26.69221743686569,516.4767334968062 L26.31268386839122,490.62012416162844 M212.02062226524444,626.4367891670945 L401.5870422966502,516.4767334968062 M401.5870422966502,516.4767334968062 L401.4605311071588,490.62012416162844 M401.5870422966502,516.4767334968062 L216.23495081947308,407.74583114275197 M216.23495081947308,407.74583114275197 L215.98474981013948,381.9608599566384 M216.23495081947308,407.74583114275197 L26.69221743686569,516.4767334968062" stroke="black"  stroke-width="4"  fill="red"/>
<path d="M589.0344547265425,168.7414398141118 L589.0344547265425,126.07189074276761 M329.6405599080035,317.34675569025956 L329.3520238737226,274.5102638740619 M589.0344547265425,168.7414398141118 L329.6405599080035,317.34675569025956 M589.0344547265425,126.07189074276761 L329.3520238737226,274.5102638740619 M848.4283495450815,317.34675569025967 L848.7168855793623,274.510263874062 M848.4283495450815,317.34675569025967 L589.0344547265425,168.7414398141118 M848.7168855793623,274.510263874062 L589.0344547265425,126.07189074276761 M329.6405599080035,317.34675569025956 L565.2973759571821,454.469794395889 M565.2707838437865,411.48151985983816 L565.2973759571821,454.469794395889 M329.3520238737226,274.5102638740619 L565.2707838437865,411.48151985983816 M612.7715334959029,454.469794395889 L565.2973759571821,454.469794395889 M612.7715334959029,454.469794395889 L848.4283495450815,317.34675569025967 M796.6418405306198,325.9083399816695 L800.641360560248,327.7094463506181 M800.641360560248,327.7094463506181 L805.2655167113321,328.9082288524603 M805.2655167113321,328.9082288524603 L810.2452049152091,329.4347913694077 M810.2452049152091,329.4347913694077 L815.2905000016474,329.2584052459968 M815.2905000016474,329.2584052459968 L820.1076823078643,328.38937965446826 M820.1076823078643,328.38937965446826 L824.4163221109517,326.87838480342936 M824.4163221109517,326.87838480342936 L827.9657938419598,324.8135084378965 M827.9657938419598,324.8135084378965 L830.5498035403458,322.3150742682411 M830.5498035403458,322.3150742682411 L832.0184351851566,319.52854382846664 M832.0184351851566,319.52854382846664 L832.2867965692966,316.6160583648663 M832.2867965692966,316.6160583648663 L831.3398118854485,313.74688895988874 M831.3398118854485,313.74688895988874 L829.2330193687038,311.0876969181493 M829.2330193687038,311.0876969181493 L826.0892294544069,308.792778315146 M826.0892294544069,308.792778315146 L822.0912524043794,306.99521113466454 M822.0912524043794,306.99521113466454 L817.4713165501026,305.7991498159435 M817.4713165501026,305.7991498159435 L812.4975397940894,305.27388654686354 M812.4975397940894,305.27388654686354 L807.4584997969453,305.44982563999565 M807.4584997969453,305.44982563999565 L802.6464906634754,306.3167870429367 M802.6464906634754,306.3167870429367 L798.3407442844442,307.82455803162946 M798.3407442844442,307.82455803162946 L794.7912305105827,309.88579348407126 M794.7912305105827,309.88579348407126 L792.204252934874,312.38100379315006 M792.204252934874,312.38100379315006 L790.7304003534822,315.16546187770393 M790.7304003534822,315.16546187770393 L790.4557737472194,318.07751663946294 M790.4557737472194,318.07751663946294 L791.3968768013629,320.94796896810396 M791.3968768013629,320.94796896810396 L793.4995119582317,323.6098903500155 M793.4995119582317,323.6098903500155 L796.6418405306198,325.9083399816695 M612.7981256092985,411.48151985983816 L848.7168855793623,274.510263874062 M565.2707838437865,411.48151985983816 L612.7981256092985,411.48151985983816 M589.0344547265425,381.9608599566384 L403.5470041173854,274.5102638740619 M774.5219053356994,274.510263874062 L589.0344547265425,381.9608599566384 M589.0344547265425,168.24828058000955 L774.5219053356994,274.510263874062 M403.5470041173854,274.5102638740619 L589.0344547265425,168.24828058000955 M796.8728747903617,283.06230775546175 L793.7270221231024,280.7664185190684 M793.7270221231024,280.7664185190684 L791.6220161912415,278.1074631896138 M791.6220161912415,278.1074631896138 L790.679832670261,275.2402101859281 M790.679832670261,275.2402101859281 L790.9547307997393,272.33140208971014 M790.9547307997393,272.33140208971014 L792.4301899133458,269.5500493277712 M792.4301899133458,269.5500493277712 L795.0200146709161,267.0576225225202 M795.0200146709161,267.0576225225202 L798.5734502533097,264.9986870000881 M798.5734502533097,264.9986870000881 L802.8839651185712,263.4925986953422 M802.8839651185712,263.4925986953422 L807.7013128549886,262.6266049467555 M807.7013128549886,262.6266049467555 L812.7459522725825,262.45086223769357 M812.7459522725825,262.45086223769357 L817.7252650611429,262.9755392159497 M817.7252650611429,262.9755392159497 L822.3503529231621,264.17026562813123 M822.3503529231621,264.17026562813123 L826.3527993618206,265.9658268807043 M826.3527993618206,265.9658268807043 L829.500116586202,268.258185097027 M829.500116586202,268.258185097027 L831.6092890889867,270.91441110098157 M831.6092890889867,270.91441110098157 L832.5573673151566,273.7803811767013 M832.5573673151566,273.7803811767013 L832.2887483594055,276.6896199822287 M832.2887483594055,276.6896199822287 L830.8185218225822,279.4730450871564 M830.8185218225822,279.4730450871564 L828.2316715901292,281.96869574101 M828.2316715901292,281.96869574101 L824.678278191045,284.0312721630113 M824.678278191045,284.0312721630113 L820.3648635026645,285.5405843181317 M820.3648635026645,285.5405843181317 L815.5423311128643,286.4086422521756 M815.5423311128643,286.4086422521756 L810.4914226882208,286.5848319807884 M810.4914226882208,286.5848319807884 L805.5061852766945,286.0588557685569 M805.5061852766945,286.0588557685569 L800.8768676965637,284.8614081788247 M800.8768676965637,284.8614081788247 L796.8728747903617,283.06230775546175 M612.7715334959029,454.469794395889 L612.7981256092985,411.48151985983816 M796.6418405306198,325.9083399816695 L796.8728747903617,283.06230775546175 M403.6707174014734,300.2235871074398 L589.0344547265425,407.74583114275197 M589.0344547265425,407.74583114275197 L589.0344547265425,381.9608599566384 M403.6707174014734,300.2235871074398 L403.5470041173854,274.5102638740619 M589.0344547265425,407.74583114275197 L774.3981920516115,300.2235871074398 M774.3981920516115,300.2235871074398 L774.5219053356994,274.510263874062 M774.3981920516115,300.2235871074398 L589.0344547265425,193.88995952177743 M589.0344547265425,193.88995952177743 L589.0344547265425,168.24828058000955 M589.0344547265425,193.88995952177743 L403.6707174014734,300.2235871074398" stroke="black"  stroke-width="4"  fill="red"/></svg>