<svg viewBox="0 0 800 800" xmlns="http://www.w3.org/2000/svg"><path d="M397.50179251692293,388.56966176595756 L397.50179251692293,383.23978374173066 M397.50179251692293,383.23978374173066 L515.56050852869,659.851363014867 M515.56050852869,659.851363014867 L418.8848043160792,424.017229473699 M418.8848043160792,424.017229473699 L420.42195987134903,424.88882424840045 M420.42195987134903,424.88882424840045 L421.9472906949416,425.7337557902916 M421.9472906949416,425.7337557902916 L423.4575533895858,426.55096129616123 M423.4575533895858,426.55096129616123 L424.9557377894847,427.34323722800394 M424.9557377894847,427.34323722800394 L426.43467929505636,428.10779293180775 M426.43467929505636,428.10779293180775 L427.89968206720874,428.8482245494309 M427.89968206720874,428.8482245494309 L429.34287810986666,429.5613384167715 M429.34287810986666,429.5613384167715 L430.7686554733748,430.25046698696735 M430.7686554733748,430.25046698696735 L432.17271195730916,430.5326825350876 M432.17271195730916,430.5326825350876 L433.5546544226093,430.0924975020819 M433.5546544226093,430.0924975020819 L434.9135131453381,429.62834905321455 M434.9135131453381,429.62834905321455 L436.24766413645494,429.1406441669616 M436.24766413645494,429.1406441669616 L437.55501740453826,428.62978933191454 M437.55501740453826,428.62978933191454 L438.8360340358647,428.0963247434859 M438.8360340358647,428.0963247434859 L440.08701426929065,427.5413309798835 M440.08701426929065,427.5413309798835 L441.31003665785323,426.96387757445433 M441.31003665785323,426.96387757445433 L442.50070091459503,426.36597530066916 M442.50070091459503,426.36597530066916 L443.66017127042505,425.7475018555829 M443.66017127042505,425.7475018555829 L444.78659659832044,425.10926591295447 M444.78659659832044,425.10926591295447 L445.8797433411478,424.45087138278245 M445.8797433411478,424.45087138278245 L446.93684445678383,423.7747349890999 M446.93684445678383,423.7747349890999 L447.95905635592294,423.0796597381402 M447.95905635592294,423.0796597381402 L448.9445286256984,422.3672543444603 M448.9445286256984,422.3672543444603 L449.8907350375976,421.6390027693037 M449.8907350375976,421.6390027693037 L450.8002132289939,420.89290232327096 M450.8002132289939,420.89290232327096 L451.6688146233689,420.132971423129 M451.6688146233689,420.132971423129 L452.49792986679,419.35761242966106 M452.49792986679,419.35761242966106 L453.28687180774165,418.5672326926109 M453.28687180774165,418.5672326926109 L454.03311459562644,417.7646477852478 M454.03311459562644,417.7646477852478 L454.73711717483894,416.94932357432236 M454.73711717483894,416.94932357432236 L455.39821145963964,416.1222092606237 M455.39821145963964,416.1222092606237 L456.0163914383241,415.2830358240581 M456.0163914383241,415.2830358240581 L456.58983383363204,414.4347530294856 M456.58983383363204,414.4347530294856 L457.1192265792069,413.5758910317603 M457.1192265792069,413.5758910317603 L457.602754218819,412.70913368583876 M457.602754218819,412.70913368583876 L458.0411087640942,411.8338120011903 M458.0411087640942,411.8338120011903 L458.4336135986655,410.9514012399054 M458.4336135986655,410.9514012399054 L458.7802830457257,410.06243852013955 M458.7802830457257,410.06243852013955 L459.0795107523125,409.16866159165255 M459.0795107523125,409.16866159165255 L459.332468650101,408.26914324947546 M459.332468650101,408.26914324947546 L459.538477958056,407.3661509359215 M459.538477958056,407.3661509359215 L459.69709094845314,406.459691343066 M459.69709094845314,406.459691343066 L459.8083212713139,405.5516290915036 M459.8083212713139,405.5516290915036 L459.8724190153963,404.6418363430884 M459.8724190153963,404.6418363430884 L459.8886974673415,403.73044758477204 M459.8886974673415,403.73044758477204 L459.8576437782333,402.8201289117109 M459.8576437782333,402.8201289117109 L459.779043201891,401.9115518289194 M459.779043201891,401.9115518289194 L459.65312786022986,401.003244613231 M459.65312786022986,401.003244613231 L459.47992558570786,400.0989438232127 M459.47992558570786,400.0989438232127 L459.2599089319835,399.1973158142277 M459.2599089319835,399.1973158142277 L459.12908468434705,398.7583547011397 M459.12908468434705,398.7583547011397 L459.1259400595315,398.775693136679 M459.1259400595315,398.775693136679 L459.1083721870309,398.86025545660596 M459.1083721870309,398.86025545660596 L458.87751662867174,399.84681105365115 M458.87751662867174,399.84681105365115 L458.85555362075104,399.93098644519495 M458.85555362075104,399.93098644519495 L458.5733840665081,400.91291719529994 M458.5733840665081,400.91291719529994 L458.5470327485514,400.9969739350348 M458.5470327485514,400.9969739350348 L458.2135238520527,401.9732045146035 M458.2135238520527,401.9732045146035 L458.18277598368974,402.0566104934509 M458.18277598368974,402.0566104934509 L457.7981523247671,403.02754131511097 M457.7981523247671,403.02754131511097 L457.7634736432486,403.1102962172105 M457.7634736432486,403.1102962172105 L457.32886016560616,404.0731197475532 M457.32886016560616,404.0731197475532 L457.2893194433486,404.1554867580989 M457.2893194433486,404.1554867580989 L456.80402058569257,405.1114020631735 M456.80402058569257,405.1114020631735 L456.7603137543027,405.19271625584463 M456.7603137543027,405.19271625584463 L456.2254593006196,406.13944826041285 M456.2254593006196,406.13944826041285 L456.1775825138311,406.2202421180698 M456.1775825138311,406.2202421180698 L455.59339136802225,407.15712119931595 M455.59339136802225,407.15712119931595 L455.541343262449,407.23685813934867 M455.541343262449,407.23685813934867 L454.90871818253856,408.1630734234007 M454.90871818253856,408.1630734234007 L454.8525035835184,408.242025565576 M454.8525035835184,408.242025565576 L454.17143614303154,409.15703906322057 M454.17143614303154,409.15703906322057 L454.11104185548834,409.23493203104374 M454.11104185548834,409.23493203104374 L453.38198345825543,410.1382047932668 M453.38198345825543,410.1382047932668 L453.31765277964854,410.2151776175844 M453.31765277964854,410.2151776175844 L452.5424263711519,411.1045625352736 M452.5424263711519,411.1045625352736 L452.4739198216916,411.18021130813986 M452.4739198216916,411.18021130813986 L451.65206457046855,412.05624023126654 M451.65206457046855,412.05624023126654 L451.5798420136917,412.1305630674262 M451.5798420136917,412.1305630674262 L450.71295707143173,412.9914895301352 M450.71295707143173,412.9914895301352 L450.63655684224017,413.0647532423491 M450.63655684224017,413.0647532423491 L449.72394325957185,413.91097156379124 M449.72394325957185,413.91097156379124 L449.6438258237542,413.9829081542038 M449.6438258237542,413.9829081542038 L448.68801026361325,414.8124050381811 M448.68801026361325,414.8124050381811 L448.6046412637246,414.88248268017634 M448.6046412637246,414.88248268017634 L447.6063111386354,415.69458275433453 M447.6063111386354,415.69458275433453 L447.51853190837437,415.7637334457672 M447.51853190837437,415.7637334457672 L446.4772206226572,416.5589630050718 M446.4772206226572,416.5589630050718 L446.38595402813394,416.626384604606 M446.38595402813394,416.626384604606 L445.30441830862884,417.40232638121546 M445.30441830862884,417.40232638121546 L445.21012902589683,417.4680195954099 M445.21012902589683,417.4680195954099 L444.087912855453,418.22520464049825 M444.087912855453,418.22520464049825 L443.9899005760764,418.289298650537 M443.9899005760764,418.289298650537 L442.8281476587326,419.0265119494542 M442.8281476587326,419.0265119494542 L442.72711242829484,419.08887615858043 M442.72711242829484,419.08887615858043 L441.52767408391315,419.8055772489877 M441.52767408391315,419.8055772489877 L441.4229209839752,419.8660768021484 M441.4229209839752,419.8660768021484 L440.1864811414142,420.5615842628524 M440.1864811414142,420.5615842628524 L440.07870053288997,420.620350112412 M440.07870053288997,420.620350112412 L438.80595244669837,421.29398779962054 M438.80595244669837,421.29398779962054 L438.6958410165171,421.3506202914823 M438.6958410165171,421.3506202914823 L437.38863906458016,422.00184754349294 M437.38863906458016,422.00184754349294 L437.2750355266653,422.05674337850206 M437.2750355266653,422.05674337850206 L435.93476354608896,422.6844794020248 M435.93476354608896,422.6844794020248 L435.8181341909652,422.7373726356338 M435.8181341909652,422.7373726356338 L434.4443321543828,423.3421440963207 M434.4443321543828,423.3421440963207 L434.32537274136286,423.3929018705964 M434.32537274136286,423.3929018705964 L432.92197262738523,423.9726935640304 M432.92197262738523,423.9726935640304 L432.8002186793702,424.0213135956229 M432.8002186793702,424.0213135956229 L431.36537456200665,424.5769199122129 M431.36537456200665,424.5769199122129 L431.24151567042816,424.6235340869947 M431.24151567042816,424.6235340869947 L429.7796256374712,425.153474368317 M429.7796256374712,425.153474368317 L429.6527438380371,425.1978163379965 M429.6527438380371,425.1978163379965 L428.1631206626878,425.7022192764436 M428.1631206626878,425.7022192764436 L428.03460306827617,425.74428777208334 M428.03460306827617,425.74428777208334 L426.5193300473849,426.2224742467865 M426.5193300473849,426.2224742467865 L426.3880204485235,426.26240219755334 M426.3880204485235,426.26240219755334 L424.84733796647754,426.7139641544675 M424.84733796647754,426.7139641544675 L424.7146241658223,426.7514839231487 M424.7146241658223,426.7514839231487 L423.1527021995574,427.17560840795204 M423.1527021995574,427.17560840795204 L423.0178880518626,427.21085234161615 M423.0178880518626,427.21085234161615 L421.43265798944685,427.60793949058007 M421.43265798944685,427.60793949058007 L421.295750863037,427.6409083577954 M421.295750863037,427.6409083577954 L419.69207086668905,428.00974254550675 M419.69207086668905,428.00974254550675 L419.55422489933585,428.0400332312563 M419.55422489933585,428.0400332312563 L417.93049304417445,428.3810114509929 M417.93049304417445,428.3810114509929 L417.7905492017391,428.4090248373569 M417.7905492017391,428.4090248373569 L416.15047978602956,428.72134042831345 M416.15047978602956,428.72134042831345 L416.00913606861957,428.7469431541216 M416.00913606861957,428.7469431541216 L414.35249787434907,429.0307216666281 M414.35249787434907,429.0307216666281 L414.2102183108768,429.0536448735352 M414.2102183108768,429.0536448735352 L412.5405045289801,429.30821454980736 M412.5405045289801,429.30821454980736 L412.3965933498155,429.32885673950835 M412.3965933498155,429.32885673950835 L410.714041205314,429.55407803865626 M410.714041205314,429.55407803865626 L410.5694282136501,429.5721768073654 M410.5694282136501,429.5721768073654 L408.87590610910104,429.76777892743246 M408.87590610910104,429.76777892743246 L408.7305902120632,429.78333014937857 M408.7305902120632,429.78333014937857 L407.02657041992774,429.9495759017272 M407.02657041992774,429.9495759017272 L406.87986185491786,429.96244763138924 M406.87986185491786,429.96244763138924 L405.16882647384807,430.0986669206384 M405.16882647384807,430.0986669206384 L405.02211038639035,430.1091236200534 M405.02211038639035,430.1091236200534 L403.305004423258,430.21531167772997 M403.305004423258,430.21531167772997 L403.15759108594597,430.22322403979746 M403.15759108594597,430.22322403979746 L401.43535087109274,430.2993791388303 M401.43535087109274,430.2993791388303 L401.28770273121677,430.3047432008382 M401.28770273121677,430.3047432008382 L399.5612669202042,430.3508653807188 M399.5612669202042,430.3508653807188 L399.4133829165483,430.35341381089216 M399.4133829165483,430.35341381089216 L397.68670293687785,430.3693693355338 M397.68670293687785,430.3693693355338 L397.5385909736222,430.3696378613146 M397.5385909736222,430.3696378613146 L395.8114469515774,430.35529092924185 M395.8114469515774,430.35529092924185 L395.6635628779856,430.3527424982732 M395.6635628779856,430.3527424982732 L393.93805235747124,430.30849740774886 M393.93805235747124,430.30849740774886 L393.7906357719909,430.3032676038041 M393.7906357719909,430.3032676038041 L392.067002429328,430.22872101498166 M392.067002429328,430.22872101498166 L391.919125276023,430.22107716483345 M391.919125276023,430.22107716483345 L390.20247683442034,430.1164988134529 M390.20247683442034,430.1164988134529 L390.055299032285,430.1063093366061 M390.055299032285,430.1063093366061 L388.3428728496836,429.9716983650087 M388.3428728496836,429.9716983650087 L388.19662519802546,429.95882789415907 M388.19662519802546,429.95882789415907 L386.4937534622218,429.79459307953124 M386.4937534622218,429.79459307953124 L386.3482074966304,429.7791747996129 M386.3482074966304,429.7791747996129 L384.6530587441334,429.5850477294919 M384.6530587441334,429.5850477294919 L384.5084427701598,429.5672186905444 M384.5084427701598,429.5672186905444 L382.8256508416969,429.3437394621573 M382.8256508416969,429.3437394621573 L382.6815138472406,429.32322762550643 M382.6815138472406,429.32322762550643 L381.0108620776642,429.0702668419669 M381.0108620776642,429.0702668419669 L380.8685819031668,429.04734357171367 M380.8685819031668,429.04734357171367 L379.21193564108,428.7654421756632 M379.21193564108,428.7654421756632 L379.0703615356907,428.73997231928706 M379.0703615356907,428.73997231928706 L377.42842540874426,428.42926511748294 M377.42842540874426,428.42926511748294 L377.28825110827677,428.4013845775408 M377.28825110827677,428.4013845775408 L375.6642755439129,428.0621473943602 M375.6642755439129,428.0621473943602 L375.52596317861116,428.0318578754353 M375.52596317861116,428.0318578754353 L373.9204241341521,427.66436052224884 M373.9204241341521,427.66436052224884 L373.8175088104858,427.64010442397364 M373.8175088104858,427.64010442397364 L373.07215802991783,427.45797208840054 M373.07215802991783,427.45797208840054 L371.5298991736251,427.1045837610827 M371.5298991736251,427.1045837610827 L371.3946200022843,427.07228878030077 M371.3946200022843,427.07228878030077 L369.82247609254836,426.68006174327763 M369.82247609254836,426.68006174327763 L369.68814137126435,426.64508672383425 M369.68814137126435,426.64508672383425 L368.136300892375,426.2254215228539 M368.136300892375,426.2254215228539 L368.00475407095104,426.18857460625463 M368.00475407095104,426.18857460625463 L366.47485042596054,425.7421431341384 M366.47485042596054,425.7421431341384 L366.34493772473866,425.70275527258565 M366.34493772473866,425.70275527258565 L364.8406695368915,425.23063976301245 M364.8406695368915,425.23063976301245 L364.7123976304002,425.18897602495304 M364.7123976304002,425.18897602495304 L363.23169707045025,424.69051173705844 M363.23169707045025,424.69051173705844 L363.1374133302993,424.65782667326005 M363.1374133302993,424.65782667326005 L362.4081284981925,424.3995691155715 M362.4081284981925,424.3995691155715 L362.31477749880946,424.3655456213234 M362.31477749880946,424.3655456213234 L360.87440909573826,423.8289788251506 M360.87440909573826,423.8289788251506 L360.75219487747944,423.78196750422995 M360.75219487747944,423.78196750422995 L359.341185417657,423.2210788039512 M359.341185417657,423.2210788039512 L359.2213001597047,423.1719307497505 M359.2213001597047,423.1719307497505 L357.8403510583266,422.5868603604875 M357.8403510583266,422.5868603604875 L357.72326190537814,422.53584185324416 M357.72326190537814,422.53584185324416 L356.37399307800143,421.9275346733008 M356.37399307800143,421.9275346733008 L356.2596990000514,421.87437946012017 M356.2596990000514,421.87437946012017 L354.94141589942444,421.2421773443676 M354.94141589942444,421.2421773443676 L354.8296832222448,421.1870216294223 M354.8296832222448,421.1870216294223 L353.5451633737415,420.53280315320256 M353.5451633737415,420.53280315320256 L353.4369185247748,420.47591371238576 M353.4369185247748,420.47591371238576 L352.1877770422,419.8000905121923 M352.1877770422,419.8000905121923 L352.08210248292903,419.74119666155565 M352.08210248292903,419.74119666155565 L350.868109539282,419.04364282958363 M350.868109539282,419.04364282958363 L350.7659185633747,418.98301920083486 M350.7659185633747,418.98301920083486 L349.5879980757087,418.26454469517967 M349.5879980757087,418.26454469517967 L349.4886038669541,418.2020544997603 M349.4886038669541,418.2020544997603 L348.3502141465005,417.46440785112134 M348.3502141465005,417.46440785112134 L348.25453862403197,417.40032060485436 M348.25453862403197,417.40032060485436 L347.15337239205445,416.6424381765436 M347.15337239205445,416.6424381765436 L347.0604934500198,416.57648575792115 M347.0604934500198,416.57648575792115 L346.0006999188932,415.80078375214157 M346.0006999188932,415.80078375214157 L345.9115349184813,415.73350423617717 M345.9115349184813,415.73350423617717 L344.891500355414,414.9387850330312 M344.891500355414,414.9387850330312 L344.80628006048886,414.87031310267474 M344.80628006048886,414.87031310267474 L343.8282949903949,414.05899456403426 M343.8282949903949,414.05899456403426 L343.74610507634986,413.988524515571 M343.74610507634986,413.988524515571 L342.8110874243888,413.16114924234637 M342.8110874243888,413.16114924234637 L342.73284134208336,413.08948801540953 M342.73284134208336,413.08948801540953 L341.84056663458256,412.2453891380242 M341.84056663458256,412.2453891380242 L341.7662638258442,412.17253730855856 M341.7662638258442,412.17253730855856 L340.91901698820425,411.3144008260851 M340.91901698820425,411.3144008260851 L340.8481997675014,411.2400887257396 M340.8481997675014,411.2400887257396 L340.0452840326968,410.36698451905374 M340.0452840326968,410.36698451905374 L339.97312532831154,410.2854689579029 M339.97312532831154,410.2854689579029 L339.12796717170573,409.2895785054948 M339.12796717170573,409.2895785054948 L339.06825510873585,409.2166280930347 M339.06825510873585,409.2166280930347 L338.8485280233736,408.93779141129136 M338.8485280233736,408.93779141129136 L339.0913984577938,409.8255191310956 M339.0913984577938,409.8255191310956 L339.38440961128936,410.71992594292226 M339.38440961128936,410.71992594292226 L339.7232482755675,411.6077839419432 M339.7232482755675,411.6077839419432 L340.1086148880397,412.4900227808947 M340.1086148880397,412.4900227808947 L340.5402841059892,413.366242766424 M340.5402841059892,413.366242766424 L341.0166678702109,414.2328290427291 M341.0166678702109,414.2328290427291 L341.5386891359924,415.0924513909282 M341.5386891359924,415.0924513909282 L342.10451790511377,415.94136409750706 M342.10451790511377,415.94136409750706 L342.714860390994,416.7804948926927 M342.714860390994,416.7804948926927 L343.3687999309597,417.6087710168166 M343.3687999309597,417.6087710168166 L344.0658828210999,418.4256543637827 M344.0658828210999,418.4256543637827 L344.8051947854464,419.22980219415246 M344.8051947854464,419.22980219415246 L345.5853657695515,420.0198681754056 M345.5853657695515,420.0198681754056 L346.4077783423706,420.7974548458134 M346.4077783423706,420.7974548458134 L347.26921785941164,421.5593420132633 M347.26921785941164,421.5593420132633 L348.17060316020763,422.30633108968806 M348.17060316020763,422.30633108968806 L349.11009952011636,423.03680656307034 M349.11009952011636,423.03680656307034 L350.0886301753449,423.7518341309014 M350.0886301753449,423.7518341309014 L351.1036653780209,424.44886277399854 M351.1036653780209,424.44886277399854 L352.1535837422168,425.12748705345484 M352.1535837422168,425.12748705345484 L353.23954865274715,425.78809873375417 M353.23954865274715,425.78809873375417 L354.3594772910394,426.4292212117726 M354.3594772910394,426.4292212117726 L355.5119871152473,427.0505785865325 M355.5119871152473,427.0505785865325 L356.69638357060825,427.6514956266644 M356.69638357060825,427.6514956266644 L357.91081773348543,428.2311602650635 M357.91081773348543,428.2311602650635 L359.1562118226828,428.7898364011661 M359.1562118226828,428.7898364011661 L360.43163948331727,429.3269818591404 M360.43163948331727,429.3269818591404 L361.7320111755295,429.84098112891394 M361.7320111755295,429.84098112891394 L363.0600997325004,430.3323640401936 M363.0600997325004,430.3323640401936 L364.41243067857886,430.80018705567915 M364.41243067857886,430.80018705567915 L365.7899274228512,431.2447119599775 M365.7899274228512,431.2447119599775 L367.19003391835577,431.6647300739215 M367.19003391835577,431.6647300739215 L368.60927935829085,432.059829522106 M368.60927935829085,432.059829522106 L370.0495066347378,432.4300079505256 M370.0495066347378,432.4300079505256 L371.5100196960863,432.775393794172 M371.5100196960863,432.775393794172 L372.98709810161694,433.09490947079973 M372.98709810161694,433.09490947079973 L374.479581508034,433.3884203651521 M374.479581508034,433.3884203651521 L375.98746799528055,433.6559162734553 M375.98746799528055,433.6559162734553 L377.50842937898875,433.8968627558996 M377.50842937898875,433.8968627558996 L379.04106328635504,434.11125278399265 M379.04106328635504,434.11125278399265 L380.5853693969583,434.29881737658474 M380.5853693969583,434.29881737658474 L382.1364679914442,434.45915224189804 M382.1364679914442,434.45915224189804 L383.69875300207616,434.59265315626203 M383.69875300207616,434.59265315626203 L385.26272121568326,434.6986529340175 M385.26272121568326,434.6986529340175 L386.8350782015956,434.77728064422644 M386.8350782015956,434.77728064422644 L388.40955413664074,434.82840341079867 M388.40955413664074,434.82840341079867 L389.98730393651897,434.85215361605464 M389.98730393651897,434.85215361605464 L391.56391880396245,434.84839785268036 M391.56391880396245,434.84839785268036 L393.1405427049291,434.81699669144285 M393.1405427049291,434.81699669144285 L394.71461464761245,434.7580951629685 M394.71461464761245,434.7580951629685 L396.28427808467984,434.6719499965244 M396.28427808467984,434.6719499965244 L397.85021128538676,434.55817080915415 M397.85021128538676,434.55817080915415 L399.4091670017227,434.41728890394774 M399.4091670017227,434.41728890394774 L400.95812798889773,434.2494443725211 M400.95812798889773,434.2494443725211 L402.57161375749314,434.0452455536876 M402.57161375749314,434.0452455536876 L403.13158372678157,433.9938594728334 M403.13158372678157,433.9938594728334 L403.9295534676432,433.98540861439614 M403.9295534676432,433.98540861439614 L404.7361064886491,434.0149246165944 M404.7361064886491,434.0149246165944 L406.3316217267864,434.0524899490663 M406.3316217267864,434.0524899490663 L407.9106793420647,434.0620143846611 M407.9106793420647,434.0620143846611 L409.4899480253146,434.04377031846684 M409.4899480253146,434.04377031846684 L411.0682560229526,433.99815463737826 M411.0682560229526,433.99815463737826 L412.640265180733,433.9250361805042 M412.640265180733,433.9250361805042 L414.2112896297581,433.8242828898204 M414.2112896297581,433.8242828898204 L415.77367840354026,433.69629660608626 M415.77367840354026,433.69629660608626 L417.3311362100428,433.54081423776336 M417.3311362100428,433.54081423776336 L418.8764618071906,433.35877182694236 M418.8764618071906,433.35877182694236 L420.4140522717192,433.1492391854417 M420.4140522717192,433.1492391854417 L421.9399605767714,432.9128843874413 M421.9399605767714,432.9128843874413 L423.45094056206983,432.6505177560634 M423.45094056206983,432.6505177560634 L424.94998336553044,432.3612012639556 M424.94998336553044,432.3612012639556 L426.4299188300895,432.0466859825359 M426.4299188300895,432.0466859825359 L427.89605351807666,431.7057672299856 M427.89605351807666,431.7057672299856 L429.3405121617004,431.3400583526046 M429.3405121617004,431.3400583526046 L430.76768521276443,430.9486258601789 M430.76768521276443,430.9486258601789 L432.17271195730916,430.5326825350876 M432.17271195730916,430.5326825350876 L432.18624079833387,421.192232000825 M432.18624079833387,421.192232000825 L423.27627889411787,411.4377514145356 M423.27627889411787,411.4377514145356 L421.8889899510058,412.9553200197447 M421.8889899510058,412.9553200197447 L420.4803959214856,414.44796622425963 M420.4803959214856,414.44796622425963 L419.05073751528954,415.91554958072777 M419.05073751528954,415.91554958072777 L417.6014110499091,417.3583267820987 M417.6014110499091,417.3583267820987 L416.1338123792765,418.7754885048603 M416.1338123792765,418.7754885048603 L414.6495763224856,420.1668935956618 M414.6495763224856,420.1668935956618 L413.1496295754831,421.53226448017443 M413.1496295754831,421.53226448017443 L411.6342215813499,422.87226342188745 M411.6342215813499,422.87226342188745 L410.1082189038852,424.18407614614006 M410.1082189038852,424.18407614614006 L408.570300135577,425.33863601527025 M408.570300135577,425.33863601527025 L407.02286318819296,425.5174559519253 M407.02286318819296,425.5174559519253 L405.4658792929919,425.6690899307535 M405.4658792929919,425.6690899307535 L403.90143884727195,425.79366747835127 M403.90143884727195,425.79366747835127 L402.3337188720944,425.89065418318285 M402.3337188720944,425.89065418318285 L400.75948528266883,425.9603131618627 M400.75948528266883,425.9603131618627 L399.1817619384509,426.0025105991365 M399.1817619384509,426.0025105991365 L397.60356625480904,426.01711177346886 M397.60356625480904,426.01711177346886 L396.02721867131686,426.0041177613961 M396.02721867131686,426.0041177613961 L394.44857192448416,425.9635274642562 M394.44857192448416,425.9635274642562 L392.8738750821746,425.89547685909724 M392.8738750821746,425.89547685909724 L391.3059182522597,425.799964323149 M391.3059182522597,425.799964323149 L389.74078349824134,425.67685958410266 M389.74078349824134,425.67685958410266 L388.1847168214237,425.526832444057 M388.1847168214237,425.526832444057 L386.6354237741752,425.3493522362688 M386.6354237741752,425.3493522362688 L385.09707608085523,425.14521974862333 M385.09707608085523,425.14521974862333 L383.5717591274228,424.9143086861601 M383.5717591274228,424.9143086861601 L382.0557900948397,424.6566195797187 M382.0557900948397,424.6566195797187 L380.5570370389464,424.3729598744246 M380.5570370389464,424.3729598744246 L379.07180616671525,424.0627981243509 M379.07180616671525,424.0627981243509 L377.588322610954,423.72332504779973 M377.588322610954,423.72332504779973 L376.79450275726475,423.5296944741361 M376.79450275726475,423.5296944741361 L375.2196136783043,423.1688274064866 M375.2196136783043,423.1688274064866 L373.7824014526495,422.8105268099461 M373.7824014526495,422.8105268099461 L372.3647518751495,422.4273455654685 M372.3647518751495,422.4273455654685 L370.965974751371,422.01942376343305 M370.965974751371,422.01942376343305 L369.59209077571023,421.5883685949833 M369.59209077571023,421.5883685949833 L368.2220761350644,421.1273626861237 M368.2220761350644,421.1273626861237 L367.58657350697405,420.90209311100176 M367.58657350697405,420.90209311100176 L366.2551829622419,420.4066095975594 M366.2551829622419,420.4066095975594 L364.9655621471957,419.8940373132899 M364.9655621471957,419.8940373132899 L363.702699138325,419.35942983874173 M363.702699138325,419.35942983874173 L362.4691358765388,418.80346217467627 M362.4691358765388,418.80346217467627 L361.2648768379116,418.22640723772184 M361.2648768379116,418.22640723772184 L360.08969338948776,417.62813731247763 M360.08969338948776,417.62813731247763 L358.9484343087131,417.0109321789903 M358.9484343087131,417.0109321789903 L357.839250951385,416.37399666124475 M357.839250951385,416.37399666124475 L356.761917560064,415.7172008178491 M356.761917560064,415.7172008178491 L355.72104225133944,415.04322795099426 M355.72104225133944,415.04322795099426 L354.71408614002377,414.3503470357005 M354.71408614002377,414.3503470357005 L353.7452009112858,413.64176955729414 M353.7452009112858,413.64176955729414 L352.81231099674267,412.9154971379003 M352.81231099674267,412.9154971379003 L351.9179434751264,412.17407572515117 M351.9179434751264,412.17407572515117 L351.0627864576777,411.41764635552937 M351.0627864576777,411.41764635552937 L350.2475282673734,410.64714749866573 M350.2475282673734,410.64714749866573 L349.47215855699994,409.86232084314685 M349.47215855699994,409.86232084314685 L348.740592448509,409.0673088837626 M348.740592448509,409.0673088837626 L347.96089484984054,408.14938849016005 M347.96089484984054,408.14938849016005 L347.3987037016081,407.43713468066426 M347.3987037016081,407.43713468066426 L346.7108005403498,406.4874173437255 M346.7108005403498,406.4874173437255 L346.2257207700216,405.76000643640305 M346.2257207700216,405.76000643640305 L345.7045325742811,404.9060005042477 M345.7045325742811,404.9060005042477 L345.2298501446765,404.04664324317025 M345.2298501446765,404.04664324317025 L344.7991449067015,403.17753213068045 M344.7991449067015,403.17753213068045 L344.41400270478795,402.3028103107861 M344.41400270478795,402.3028103107861 L344.07418807437097,401.4220788417518 M344.07418807437097,401.4220788417518 L343.7806149782681,400.5353397611805 M343.7806149782681,400.5353397611805 L343.5325750730537,399.643264811317 M343.5325750730537,399.643264811317 L343.33120819475045,398.74812142243235 M343.33120819475045,398.74812142243235 L343.17626236727324,397.8503115449282 M343.17626236727324,397.8503115449282 L343.0679631308305,396.9502356217837 M343.0679631308305,396.9502356217837 L343.00607181212337,396.0477624985649 M343.00607181212337,396.0477624985649 L342.991248328889,395.14595768300086 M342.991248328889,395.14595768300086 L343.0232630950253,394.24362379635545 M343.0232630950253,394.24362379635545 L343.10260421812865,393.33169902585905 M343.10260421812865,393.33169902585905 L343.1566790443302,392.9032326790841 M343.1566790443302,392.9032326790841 L343.30798557021217,391.98751394082393 M343.30798557021217,391.98751394082393 L343.5050996523754,391.0856538517192 M343.5050996523754,391.0856538517192 L343.7485196783277,390.188324706432 M343.7485196783277,390.188324706432 L344.0396259261279,389.29392586497454 M344.0396259261279,389.29392586497454 L344.37607774481376,388.4072474343453 M344.37607774481376,388.4072474343453 L344.7590356234086,387.5257586585779 M344.7590356234086,387.5257586585779 L345.1880121818119,386.651585737037 M345.1880121818119,386.651585737037 L345.66207683752384,385.7852584873194 M345.66207683752384,385.7852584873194 L346.1812183717969,384.92783809354387 M346.1812183717969,384.92783809354387 L346.74496556434565,384.07905307229237 M346.74496556434565,384.07905307229237 L347.35191529343064,383.2420944595123 M347.35191529343064,383.2420944595123 L348.00299110610626,382.41456148736717 M348.00299110610626,382.41456148736717 L348.69655976835753,381.5995090216713 M348.69655976835753,381.5995090216713 L349.4321532596186,380.7969319927306 M349.4321532596186,380.7969319927306 L350.20907387852657,380.007491638556 M350.20907387852657,380.007491638556 L351.02708159963606,379.23184639493184 M351.02708159963606,379.23184639493184 L351.8850142769494,378.4711855190634 M351.8850142769494,378.4711855190634 L352.78171519988666,377.72563797432093 M352.78171519988666,377.72563797432093 L353.71717923575693,376.99599549777304 M353.71717923575693,376.99599549777304 L354.6900156398017,376.2830482941781 M354.6900156398017,376.2830482941781 L355.7002214070045,375.5870561421594 M355.7002214070045,375.5870561421594 L356.7445656513365,374.90987395927715 M356.7445656513365,374.90987395927715 L357.82535234864764,374.25016625814004 M357.82535234864764,374.25016625814004 L358.9388906793313,373.6103188021878 M358.9388906793313,373.6103188021878 L360.085640343085,372.98979282969856 M360.085640343085,372.98979282969856 L361.2639872233404,372.3895115879489 M361.2639872233404,372.3895115879489 L362.4732399193092,371.8101330687402 M362.4732399193092,371.8101330687402 L363.711558864769,371.25191735799245 M363.711558864769,371.25191735799245 L364.9794043256559,370.715388750242 M364.9794043256559,370.715388750242 L366.2730933428087,370.20160391903227 M366.2730933428087,370.20160391903227 L367.5940136627697,369.7100259274639 M367.5940136627697,369.7100259274639 L368.9396309046131,369.2418425396891 M368.9396309046131,369.2418425396891 L370.30718970367906,368.79784612370696 M370.30718970367906,368.79784612370696 L371.7008386046588,368.3767030098825 M371.7008386046588,368.3767030098825 L373.1118320579506,367.98106256861155 M373.1118320579506,367.98106256861155 L374.54570405340945,367.609327834721 M374.54570405340945,367.609327834721 L375.9976269478147,367.2629530214207 M375.9976269478147,367.2629530214207 L377.46576518771275,366.9422012825172 M377.46576518771275,366.9422012825172 L378.949894431912,366.6469318821987 M378.949894431912,366.6469318821987 L380.44956675586116,366.3776742123327 M380.44956675586116,366.3776742123327 L381.9631744986821,366.13429131915814 M381.9631744986821,366.13429131915814 L383.4868175521349,365.91770905655346 M383.4868175521349,365.91770905655346 L385.02211703473614,365.7275273738636 M385.02211703473614,365.7275273738636 L386.56631793979784,365.564006188772 M386.56631793979784,365.564006188772 L388.1191994537577,365.427544230872 M388.1191994537577,365.427544230872 L389.6768608200259,365.31800559136633 M389.6768608200259,365.31800559136633 L391.2418450980494,365.23552031794566 M391.2418450980494,365.23552031794566 L392.8086362780708,365.1803554006141 M392.8086362780708,365.1803554006141 L394.3760972528262,365.1523747652327 M394.3760972528262,365.1523747652327 L395.94699964770456,365.15184360867414 M395.94699964770456,365.15184360867414 L397.51767368631954,365.1784976088352 M397.51767368631954,365.1784976088352 L399.08283191831555,365.23220560279594 M399.08283191831555,365.23220560279594 L400.6482418682442,365.3133641678782 M400.6482418682442,365.3133641678782 L402.2060896834832,365.4214445053709 M402.2060896834832,365.4214445053709 L403.75960779716456,365.5567111409551 M403.75960779716456,365.5567111409551 L405.30305151494565,365.7187738371703 M405.30305151494565,365.7187738371703 L406.8389615888172,365.9077625179422 M406.8389615888172,365.9077625179422 L408.3648213183863,366.12328383215265 M408.3648213183863,366.12328383215265 L409.87695030065527,366.36507374955283 M409.87695030065527,366.36507374955283 L411.37789524634695,366.6332695411684 M411.37789524634695,366.6332695411684 L412.86167727323505,366.92707841826984 M412.86167727323505,366.92707841826984 L414.33336990868355,367.24729990159926 M414.33336990868355,367.24729990159926 L415.8850884869313,367.6159611662075 M415.8850884869313,367.6159611662075 L417.4299674480848,367.9679279552232 M417.4299674480848,367.9679279552232 L418.8527052129625,368.3205797430888 M418.8527052129625,368.3205797430888 L420.26107448560697,368.6985945891913 M420.26107448560697,368.6985945891913 L421.6454048225571,369.0995905774752 M421.6454048225571,369.0995905774752 L423.01169295356516,369.52516347897034 M423.01169295356516,369.52516347897034 L424.3532645053945,369.9730624627025 M424.3532645053945,369.9730624627025 L425.6726581183824,370.4444883806775 M425.6726581183824,370.4444883806775 L426.9668830150104,370.9379850109917 M426.9668830150104,370.9379850109917 L428.2354838727582,371.4538242991507 M428.2354838727582,371.4538242991507 L429.47569408788024,371.9904197315026 M429.47569408788024,371.9904197315026 L430.68959727930184,372.54923525544757 M430.68959727930184,372.54923525544757 L431.87350284226204,373.1278878497511 M431.87350284226204,373.1278878497511 L433.0276441252944,373.7270477212924 M433.0276441252944,373.7270477212924 L434.1506382400468,374.3459241277342 M434.1506382400468,374.3459241277342 L435.2404090640161,374.9833276507767 M435.2404090640161,374.9833276507767 L436.296727407953,375.63886433939183 M436.296727407953,375.63886433939183 L437.32005263478476,376.31307307772977 M437.32005263478476,376.31307307772977 L438.30807539962825,377.0046312211185 M438.30807539962825,377.0046312211185 L439.25940499247804,377.71195096019403 M439.25940499247804,377.71195096019403 L440.17450658254114,378.4360990528777 M440.17450658254114,378.4360990528777 L441.0522195026656,379.175886218179 M441.0522195026656,379.175886218179 L441.89138434595355,379.9301214465108 M441.89138434595355,379.9301214465108 L442.6915327076769,380.6985454945559 M442.6915327076769,380.6985454945559 L443.4515047217326,381.48023301003184 M443.4515047217326,381.48023301003184 L444.17153071124767,382.2753197985731 M444.17153071124767,382.2753197985731 L444.84928339270294,383.08115313493556 M444.84928339270294,383.08115313493556 L445.49379406581994,383.9090445894102 M445.49379406581994,383.9090445894102 L445.7818839304719,384.30214641179384 M445.7818839304719,384.30214641179384 L446.3690031295004,385.1570828893132 M446.3690031295004,385.1570828893132 L446.90525819023117,386.0120080919001 M446.90525819023117,386.0120080919001 L447.3959731228137,386.8750414027406 M447.3959731228137,386.8750414027406 L447.84160082587414,387.74618375932033 M447.84160082587414,387.74618375932033 L448.2423660911857,388.6261077627117 M448.2423660911857,388.6261077627117 L448.5966304332782,389.51175319362267 M448.5966304332782,389.51175319362267 L448.9043884410918,390.40312255929524 M448.9043884410918,390.40312255929524 L449.16562462452106,391.29995164352334 M449.16562462452106,391.29995164352334 L449.3800926395537,392.2005126057892 M449.3800926395537,392.2005126057892 L449.5475518344104,393.1054703369724 M449.5475518344104,393.1054703369724 L449.66729190076785,394.0112317994037 M449.66729190076785,394.0112317994037 L449.7399928089562,394.91979527256507 M449.7399928089562,394.91979527256507 L449.7651804379611,395.82982983222286 M449.7651804379611,395.82982983222286 L449.7428425705301,396.7400012052136 M449.7428425705301,396.7400012052136 L449.6731818580224,397.6477790642219 M449.6731818580224,397.6477790642219 L449.5559695797333,398.55516017691014 M449.5559695797333,398.55516017691014 L449.3914129142842,399.4596106658324 M449.3914129142842,399.4596106658324 L449.1797352830268,400.3617970332055 M449.1797352830268,400.3617970332055 L448.9209158936946,401.2593161201613 M448.9209158936946,401.2593161201613 L448.6156373913961,402.15203219034356 M448.6156373913961,402.15203219034356 L448.2634218439213,403.0391425548341 M448.2634218439213,403.0391425548341 L447.86541471131363,403.9197123237711 M447.86541471131363,403.9197123237711 L447.42090796235004,404.7933343955918 M447.42090796235004,404.7933343955918 L446.93173216328057,405.6584058885366 M446.93173216328057,405.6584058885366 L446.39719215192684,406.51479000631156 M446.39719215192684,406.51479000631156 L445.81796060290384,407.36154691107345 M445.81796060290384,407.36154691107345 L445.1954129287754,408.19733695184345 M445.1954129287754,408.19733695184345 L444.5283923192166,409.0230925128452 M444.5283923192166,409.0230925128452 L443.81895775808084,409.8362681949799 M443.81895775808084,409.8362681949799 L443.0671028788949,410.6368588644533 M443.0671028788949,410.6368588644533 L442.27443758324785,411.4236595636438 M442.27443758324785,411.4236595636438 L441.4402648094567,412.19653197234356 M441.4402648094567,412.19653197234356 L440.5657221807095,412.95506371920476 M440.5657221807095,412.95506371920476 L439.6528888931454,413.69724928917447 M439.6528888931454,413.69724928917447 L438.7006033189737,414.4237490016946 M438.7006033189737,414.4237490016946 L437.7116309234554,415.132686125132 M437.7116309234554,415.132686125132 L436.68527658155546,415.82472197445264 M436.68527658155546,415.82472197445264 L435.62361667377263,416.49811407365394 M435.62361667377263,416.49811407365394 L434.52641721550077,417.1535228597212 M434.52641721550077,417.1535228597212 L433.39621472828884,417.7886687642608 M433.39621472828884,417.7886687642608 L432.23254546708336,418.40434618202625 M432.23254546708336,418.40434618202625 L431.0377271526559,418.9992159487807 M431.0377271526559,418.9992159487807 L429.8126757175859,419.57273157010866 M429.8126757175859,419.57273157010866 L428.55670514263176,420.12529103422384 M428.55670514263176,420.12529103422384 L427.27374426248724,420.65514911538685 M427.27374426248724,420.65514911538685 L425.96264010710854,421.16269935547757 M425.96264010710854,421.16269935547757 L424.62593734716324,421.64700000983487 M424.62593734716324,421.64700000983487 L423.2647991763936,422.10764488087443 M423.2647991763936,422.10764488087443 L421.8792275245531,422.5446278874149 M421.8792275245531,422.5446278874149 L420.4722331094142,422.95700470083926 M420.4722331094142,422.95700470083926 L419.04405370872195,423.34463872438994 M419.04405370872195,423.34463872438994 L417.5960828963579,423.7072557083733 M417.5960828963579,423.7072557083733 L416.1297132829774,424.0443166418621 M416.1297132829774,424.0443166418621 L414.64657691143594,424.35568375708135 M414.64657691143594,424.35568375708135 L413.147598089551,424.6410829193885 M413.147598089551,424.6410829193885 L411.6330245705429,424.9003795045829 M411.6330245705429,424.9003795045829 L410.10771934298725,425.13289696155545 M410.10771934298725,425.13289696155545 L408.570300135577,425.33863601527025 M408.570300135577,425.33863601527025 L408.5752334690957,414.66731401114026 M408.5752334690957,414.66731401114026 L515.56050852869,659.851363014867 M515.56050852869,659.851363014867 L515.5484287140496,662.2771585572895 M515.5484287140496,662.2771585572895 L-68.20801898698494,327.6417134326697 M-68.20801898698494,327.6417134326697 L284.7015309934584,129.37112157213238 M284.7015309934584,129.37112157213238 L868.4139030769513,460.89274858866844 M868.4139030769513,460.89274858866844 L515.5068393771902,670.6288784278676 M515.5068393771902,670.6288784278676 L-68.20801898698494,327.6417134326697 M-68.20801898698494,327.6417134326697 L-68.41390307695127,317.0139286495884" stroke="black"  stroke-width="4"  fill="red"/></svg>