<svg viewBox="0 0 800 800" xmlns="http://www.w3.org/2000/svg"><path d="M640.8331723291346,260.20604386413936 L640.8331749971796,260.2049301575046 M157.9096033182287,539.0220964306009 L157.90960062037348,539.0209796260576 M640.8331723291346,260.20604386413936 L669.2129191416823,278.6817019566916 M669.2129191416823,278.6817019566916 L693.3781788768447,299.06898681005873 M693.3781788768447,299.06898681005873 L712.9450150019077,321.05061081830036 M712.9450150019077,321.05061081830036 L727.6002699817234,344.28361260832173 M727.6002699817234,344.28361260832173 L737.1067493394446,368.404521103861 M737.1067493394446,368.404521103861 L741.3074137154849,393.0349183330786 M741.3074137154849,393.0349183330786 L740.1282484590029,417.78725465614497 M740.1282484590029,417.78725465614497 L733.5799906493476,442.2709138299264 M733.5799906493476,442.2709138299264 L721.7583226677725,466.0983950613848 M721.7583226677725,466.0983950613848 L704.8429604389341,488.89151024678677 M704.8429604389341,488.89151024678677 L683.0951858832345,510.28746451279324 M683.0951858832345,510.28746451279324 L656.8541314559425,529.9448440534579 M656.8541314559425,529.9448440534579 L626.5315778900813,547.5491874356658 M626.5315778900813,547.5491874356658 L592.6056879551363,562.8182690434508 M592.6056879551363,562.8182690434508 L555.6134604025449,575.5068471570254 M555.6134604025449,575.5068471570254 L516.1420643020551,585.4107585836803 M516.1420643020551,585.4107585836803 L474.8194519883686,592.3704540011717 M474.8194519883686,592.3704540011717 L432.304010592225,596.2736954956764 M432.304010592225,596.2736954956764 L389.27381259970593,597.0575187195901 M389.27381259970593,597.0575187195901 L346.41543839340784,594.7092467747727 M346.41543839340784,594.7092467747727 L304.41262843479586,589.266786643847 M304.41262843479586,589.266786643847 L263.9349830072239,580.8179332518224 M263.9349830072239,580.8179332518224 L225.62699160186816,569.4988894756037 M225.62699160186816,569.4988894756037 L190.09745347742066,555.4918867828562 M190.09745347742066,555.4918867828562 L157.9096033182287,539.0220964306009 M640.8331749971796,260.2049301575046 L669.2129221252853,278.6805880437099 M669.2129221252853,278.6805880437099 L693.3781821296295,299.0678726695555 M693.3781821296295,299.0678726695555 L712.9450184731909,321.049496432689 M712.9450184731909,321.049496432689 L727.6002736172738,344.28249796388116 M727.6002736172738,344.28249796388116 L737.106753082307,368.4034061909523 M737.106753082307,368.4034061909523 L741.3074175068537,393.03380314629703 M741.3074175068537,393.03380314629703 L740.128252239135,417.7861391944051 M740.128252239135,417.7861391944051 L733.5799943585025,442.2697980964799 M733.5799943585025,442.2697980964799 L721.7583262471601,466.0972790637683 M721.7583262471601,466.0972790637683 L704.8429638316609,488.8903939967034 M704.8429638316609,488.8903939967034 L683.0951890352283,510.28634802592796 M683.0951890352283,510.28634802592796 L656.8541343168417,529.9437273492294 M656.8541343168417,529.9437273492294 L626.5315804140682,547.548070536921 M626.5315804140682,547.548070536921 L592.6056901017059,562.817151976104 M592.6056901017059,562.817151976104 L555.6134621371868,575.5057299496493 M555.6134621371868,575.5057299496493 L516.1420655968402,585.4096412670555 M516.1420655968402,585.4096412670555 L474.81945282242543,592.3693366078014 M474.81945282242543,592.3693366078014 L432.3040109520979,596.2725780592739 M432.3040109520979,596.2725780592739 L389.27381247958647,597.056401274547 M389.27381247958647,597.056401274547 L346.415437795235,594.7081293556172 M346.415437795235,594.7081293556172 L304.4126273682225,589.2656692846987 M304.4126273682225,589.2656692846987 L263.9349814894505,580.816815985855 M263.9349814894505,580.816815985855 L225.6269896573473,569.4977723345216 M225.6269896573473,569.4977723345216 L190.09745113743884,555.490769796395 M190.09745113743884,555.490769796395 L157.90960062037348,539.0209796260576 M157.9096033182287,539.0220964306009 L129.5720032161849,520.3538296508339 M129.5720032161849,520.3538296508339 L105.53053012040778,499.78603904429696 M105.53053012040778,499.78603904429696 L86.16134208402025,477.6473539440187 M86.16134208402025,477.6473539440187 L71.76517752636306,454.29060417333966 M71.76517752636306,454.29060417333966 L62.56295145661767,430.08703607737044 M62.56295145661767,430.08703607737044 L58.69258628638681,405.4202611934067 M58.69258628638681,405.4202611934067 L60.20734312346002,380.68011483047263 M60.20734312346002,380.68011483047263 L67.07539885402628,356.25644731891225 M67.07539885402628,356.25644731891225 L79.18097740232952,332.5329901012372 M79.18097740232952,332.5329901012372 L96.32652402665224,309.88139537316204 M96.32652402665224,309.88139537316204 L118.23629321243152,288.65556593075235 M118.23629321243152,288.65556593075235 L144.56097386638854,269.18622638075067 M144.56097386638854,269.18622638075067 L174.88353000639117,251.77602292238788 M174.88353000639117,251.77602292238788 L208.72579822614424,236.69498261191436 M208.72579822614424,236.69498261191436 L245.55603390724485,224.1765319449838 M245.55603390724485,224.1765319449838 L284.79724593551333,214.41414392575513 M284.79724593551333,214.41414392575513 L325.83594549043977,207.55847523198577 M325.83594549043977,207.55847523198577 L368.0315848006243,203.71522707479028 M368.0315848006243,203.71522707479028 L410.72618610486495,202.94359434654427 M410.72618610486495,202.94359434654427 L453.25425631860094,205.2554875502335 M453.25425631860094,205.2554875502335 L494.95280970759944,210.6152857294625 M494.95280970759944,210.6152857294625 L535.1713637483224,218.9403880860709 M535.1713637483224,218.9403880860709 L573.2817086559087,230.102367980255 M573.2817086559087,230.102367980255 L608.6874638939066,243.92886298186897 M608.6874638939066,243.92886298186897 L640.8331723291346,260.20604386413936 M157.90960062037348,539.0209796260576 L129.57200020370828,520.3527130526376 M129.57200020370828,520.3527130526376 L105.53052684150009,499.784922673622 M105.53052684150009,499.784922673622 L86.16133859100654,477.64623781845194 M86.16133859100654,477.64623781845194 L71.7651738748396,454.28948830660215 M71.7651738748396,454.28948830660215 L62.562947704543376,430.08592047910105 M62.562947704543376,430.08592047910105 L58.69258249314635,405.4191458690101 M58.69258249314635,405.4191458690101 L60.207339348913536,380.67899978103435 M60.207339348913536,380.67899978103435 L67.07539515756378,356.2553325411806 M67.07539515756378,356.2553325411806 L79.18097384194357,332.5318755876755 M79.18097384194357,332.5318755876755 L96.32652065804234,309.8802811120673 M96.32652065804234,309.8802811120673 L118.23629008815436,288.65445190643965 M118.23629008815436,288.65445190643965 L144.5609710350647,269.1851125738012 M144.5609710350647,269.1851125738012 L174.88352751197948,251.77490930995467 M174.88352751197948,251.77490930995467 L208.72579610729176,236.69386916808315 M208.72579610729176,236.69386916808315 L245.55603219672008,224.1754186411822 M245.55603219672008,224.1754186411822 L284.7972446597302,214.41303073120224 M284.7972446597302,214.41303073120224 L325.8359446690757,207.55736211417843 M325.8359446690757,207.55736211417843 L368.0315844463373,203.71411400001517 M368.0315844463373,203.71411400001517 L410.7261862231126,202.94248128040982 M410.7261862231126,202.94248128040982 L453.2542569075618,205.25437445821157 M453.2542569075618,205.25437445821157 L494.9528107581994,210.6141725774333 M494.9528107581994,210.6141725774333 L535.1713652443648,218.93927484086058 M535.1713652443648,218.93927484086058 L573.2817105743063,230.10125461015912 M573.2817105743063,230.10125461015912 L608.6874662050143,243.92774945715246 M608.6874662050143,243.92774945715246 L640.8331749971796,260.2049301575046" stroke="black"  stroke-width="4"  fill="red"/></svg>