<svg viewBox="0 0 800 800" xmlns="http://www.w3.org/2000/svg"><path d="M636.9089599733556,315.97151608936906 L637.6947909238643,205.72248636163258 M637.6947909238643,205.72248636163258 L654.3857303745026,215.83660797015182 M654.3857303745026,215.83660797015182 L669.781034185236,226.6170733882844 M669.781034185236,226.6170733882844 L683.7995654230006,238.01018542652147 M683.7995654230006,238.01018542652147 L696.3666971218768,249.95896830458264 M696.3666971218768,249.95896830458264 L707.4148769681135,262.4033760825327 M707.4148769681135,262.4033760825327 L716.8838520481395,275.280605099583 M716.8838520481395,275.280605099583 L724.7211466937883,288.5253546115286 M724.7211466937883,288.5253546115286 L730.8823485729797,302.0701421726238 M730.8823485729797,302.0701421726238 L735.3313878247727,315.845602098488 M735.3313878247727,315.845602098488 L738.0408884371088,329.78085484707566 M738.0408884371088,329.78085484707566 L738.9923255273259,343.80381240831366 M738.9923255273259,343.80381240831366 L738.1762442772795,357.8415524978854 M738.1762442772795,357.8415524978854 L735.5923974950445,371.82072406615106 M735.5923974950445,371.82072406615106 L731.2497852065815,385.6679072733826 M731.2497852065815,385.6679072733826 L725.1668640128696,399.30999770493037 M725.1668640128696,399.30999770493037 L717.3713005738414,412.674621885649 M717.3713005738414,412.674621885649 L707.9001394743664,425.69053100401584 M707.9001394743664,425.69053100401584 L696.7995341649082,438.28801085045484 M696.7995341649082,438.28801085045484 L684.1246648960375,450.3992701256852 M684.1246648960375,450.3992701256852 L669.9394446455747,461.9588520243174 M669.9394446455747,461.9588520243174 L654.3163015785542,472.9040273552415 M654.3163015785542,472.9040273552415 L637.3357753241205,483.1751484290177 M637.3357753241205,483.1751484290177 L619.0861445849409,492.71603525121355 M619.0861445849409,492.71603525121355 L599.6629717657268,501.4743155981067 M599.6629717657268,501.4743155981067 L579.1686463470444,509.4017842814657 M579.1686463470444,509.4017842814657 L557.7117027714205,516.4546523983565 M557.7117027714205,516.4546523983565 L535.4063576129281,522.5938566593064 M535.4063576129281,522.5938566593064 L512.3717766060599,527.7853399734039 M512.3717766060599,527.7853399734039 L488.73141442909656,532.000217516131 M488.73141442909656,532.000217516131 L464.6123660749108,535.2150360365588 M464.6123660749108,535.2150360365588 L440.14450781478223,537.4118392828655 M440.14450781478223,537.4118392828655 L415.4598081263528,538.5783926812803 M415.4598081263528,538.5783926812803 L390.69151954230693,538.7081622318077 M390.69151954230693,538.7081622318077 L365.9733788237447,537.8004192743986 M365.9733788237447,537.8004192743986 L341.4388790370924,535.8602489601287 M341.4388790370924,535.8602489601287 L317.22034548956844,532.8984766909197 M317.22034548956844,532.8984766909197 L293.4482992289728,528.9316201561153 M293.4482992289728,528.9316201561153 L270.25055568613385,523.9817886358114 M270.25055568613385,523.9817886358114 L247.75152383185647,518.0765267032906 M247.75152383185647,518.0765267032906 L226.07156635352626,511.2486068865484 M226.07156635352626,511.2486068865484 L205.32618178990276,503.53586163606 M205.32618178990276,503.53586163606 L185.62536885710512,494.98093430910933 M185.62536885710512,494.98093430910933 L167.07311682956544,485.63094596867523 M167.07311682956544,485.63094596867523 L149.76674376459252,475.537261176954 M149.76674376459252,475.537261176954 L133.79639672951674,464.7551350958423 M133.79639672951674,464.7551350958423 L119.24460173987762,453.34337893948356 M119.24460173987762,453.34337893948356 L106.18580073539107,441.36400875565454 M106.18580073539107,441.36400875565454 L94.68610940073881,428.8818154664975 M94.68610940073881,428.8818154664975 L84.80291428540238,415.9640364679861 M84.80291428540238,415.9640364679861 L76.58462368743449,402.6799704596153 M76.58462368743449,402.6799704596153 L70.07056264397897,389.1005042676762 M70.07056264397897,389.1005042676762 L65.29079794747958,375.2977572824237 M65.29079794747958,375.2977572824237 L62.26604680219975,361.3447063536924 M62.26604680219975,361.3447063536924 L61.00767447267407,347.314711586204 M61.00767447267407,347.314711586204 L61.5177667740445,333.2812066482164 M61.5177667740445,333.2812066482164 L63.78914718417445,319.31723820504357 M63.78914718417445,319.31723820504357 L67.80551350824533,305.49512787598144 M67.80551350824533,305.49512787598144 L73.54171857875673,291.88610233503834 M73.54171857875673,291.88610233503834 L80.96381474388397,278.55992638316843 M80.96381474388397,278.55992638316843 L90.02949106538773,265.5846078076838 M90.02949106538773,265.5846078076838 L100.68821719836058,253.02601012062837 M100.68821719836058,253.02601012062837 L112.88168943282568,240.94758406876747 M112.88168943282568,240.94758406876747 L126.54409402208432,229.41009164772393 M126.54409402208432,229.41009164772393 L141.6025419073278,218.47128557983248 M141.6025419073278,218.47128557983248 L157.97752733361258,208.1857346675567 M157.97752733361258,208.1857346675567 L175.58326585306676,198.60451968599602 M175.58326585306676,198.60451968599602 L194.3281987264961,189.77504614138542 M194.3281987264961,189.77504614138542 L214.11544899721315,181.74084765973532 M214.11544899721315,181.74084765973532 L234.8433425764885,174.541424043377 M234.8433425764885,174.541424043377 L256.4058646487756,168.21204991580433 M256.4058646487756,168.21204991580433 L278.6931751260216,162.78367415911566 M278.6931751260216,162.78367415911566 L301.59215296132976,158.28276312909918 M301.59215296132976,158.28276312909918 L324.9868999566809,154.7312492011181 M324.9868999566809,154.7312492011181 L348.7592857176881,152.14636141106874 M348.7592857176881,152.14636141106874 L372.7894703439097,150.54068774682924 M372.7894703439097,150.54068774682924 L396.9564754785385,149.92199347637387 M396.9564754785385,149.92199347637387 L421.13871343232694,150.2932836098547 M421.13871343232694,150.2932836098547 L445.21449008432444,151.65276074760615 M445.21449008432444,151.65276074760615 L469.0626037207189,153.99382850882859 M469.0626037207189,153.99382850882859 L492.5629098607744,157.30513377421175 M492.5629098607744,157.30513377421175 L515.5967876936111,161.5705694102151 M515.5967876936111,161.5705694102151 L538.0477399699535,166.76938140326615 M538.0477399699535,166.76938140326615 L559.8018928098618,172.8762341133301 M559.8018928098618,172.8762341133301 L580.7485479484442,179.8612787067964 M580.7485479484442,179.8612787067964 L600.7806636969733,187.69033188852458 M600.7806636969733,187.69033188852458 L619.795447581818,196.32491417473574 M619.795447581818,196.32491417473574 L637.6947909238643,205.72248636163258 M636.9089599733556,315.97151608936906 L619.0692054591102,306.5416575392301 M619.0692054591102,306.5416575392301 L600.1175946284229,297.87737854607303 M600.1175946284229,297.87737854607303 L580.1519137496148,290.0213728702577 M580.1519137496148,290.0213728702577 L559.2746198803006,283.0122603352356 M559.2746198803006,283.0122603352356 L537.5924075866972,276.8843493497226 M537.5924075866972,276.8843493497226 L515.2156180720376,271.6675983221606 M515.2156180720376,271.6675983221606 L492.25775957728814,267.3874361493589 M492.25775957728814,267.3874361493589 L468.8349566918439,264.0646934047529 M468.8349566918439,264.0646934047529 L445.0654518981577,261.7155367400588 M445.0654518981577,261.7155367400588 L421.06900733671245,260.3513612865655 M421.06900733671245,260.3513612865655 L396.96643956515805,259.9787878538123 M396.96643956515805,259.9787878538123 L372.879056240317,260.59962050143594 M372.879056240317,260.59962050143594 L348.9280588928641,262.2108430877952 M348.9280588928641,262.2108430877952 L325.2340413254658,264.80466158568345 M325.2340413254658,264.80466158568345 L301.9164618804153,268.36844145111047 M301.9164618804153,268.36844145111047 L279.0930739373474,272.8848899972505 M279.0930739373474,272.8848899972505 L256.8794046284956,278.3319939886993 M256.8794046284956,278.3319939886993 L235.38821139422598,284.6831897108149 M235.38821139422598,284.6831897108149 L214.72897958060315,291.90741474931315 M214.72897958060315,291.90741474931315 L195.00737970580158,299.9692654835237 M195.00737970580158,299.9692654835237 L176.32475353181988,308.82909817995375 M176.32475353181988,308.82909817995375 L158.77765904034743,318.44322120404166 M158.77765904034743,318.44322120404166 L142.45735099084635,328.7640577279693 M142.45735099084635,328.7640577279693 L127.44932632901578,339.7403432307703 M127.44932632901578,339.7403432307703 L113.83282148014922,351.31731359769066 M113.83282148014922,351.31731359769066 L101.68047555021508,363.4370104822652 M101.68047555021508,363.4370104822652 L91.05787335878739,376.03845675658414 M91.05787335878739,376.03845675658414 L82.02311234419585,389.05797832430295 M82.02311234419585,389.05797832430295 L74.62654034222965,402.4294812285902 M74.62654034222965,402.4294812285902 L68.91031130173405,416.0847212193481 M68.91031130173405,416.0847212193481 L64.9082422059567,429.9536924721629 M64.9082422059567,429.9536924721629 L62.645377678749355,443.9649238457516 M62.645377678749355,443.9649238457516 L62.13794602641178,458.0458471407998 M62.13794602641178,458.0458471407998 L63.393079874085686,472.12316830794316 M63.393079874085686,472.12316830794316 L66.40868036886764,486.1232066586208 M66.40868036886764,486.1232066586208 L71.17340054878923,499.9723569775717 M71.17340054878923,499.9723569775717 L77.66657350351863,513.5974002167277 M77.66657350351863,513.5974002167277 L85.85821512554543,526.9259792214207 M85.85821512554543,526.9259792214207 L95.70911552744832,539.8869749890171 M95.70911552744832,539.8869749890171 L107.17101378837219,552.4108632899853 M107.17101378837219,552.4108632899853 L120.18670293056249,564.4301892671269 M120.18670293056249,564.4301892671269 L134.69027846979122,575.8799537074271 M134.69027846979122,575.8799537074271 L150.6075401595179,586.697942333782 M150.6075401595179,586.697942333782 L167.85623352325626,596.8251569765476 M167.85623352325626,596.8251569765476 L186.34651142595843,606.206167729209 M186.34651142595843,606.206167729209 L205.98138266318546,614.7894483704554 M205.98138266318546,614.7894483704554 L226.65721003111994,622.5277301972274 M226.65721003111994,622.5277301972274 L248.26436978544365,629.3782367752704 M248.26436978544365,629.3782367752704 L270.68775939819267,635.3030180215662 M270.68775939819267,635.3030180215662 L293.8074308832383,640.2691998367782 M293.8074308832383,640.2691998367782 L317.49940564288306,644.2491525064646 M317.49940564288306,644.2491525064646 L341.6363118259625,647.220698562708 M341.6363118259625,647.220698562708 L366.0880824579504,649.1672694642349 M366.0880824579504,649.1672694642349 L390.72285337583884,650.0780065236262 M390.72285337583884,650.0780065236262 L415.4075971753416,649.9478089613754 M415.4075971753416,649.9478089613754 L440.0090437387037,648.7774076768787 M440.0090437387037,648.7774076768787 L464.3944052781541,646.573356753905 M464.3944052781541,646.573356753905 L488.4321730479447,643.3479283897614 M488.4321730479447,643.3479283897614 L511.99292236764,639.1191341455662 M511.99292236764,639.1191341455662 L534.9499989965934,633.9104996356941 M534.9499989965934,633.9104996356941 L557.1803749315918,627.7509990270291 M557.1803749315918,627.7509990270291 L578.5652945536276,620.674795043509 M578.5652945536276,620.674795043509 L598.9909323699464,612.7210725412131 M598.9909323699464,612.7210725412131 L618.3491233242767,603.9337572060805 M618.3491233242767,603.9337572060805 L636.5378239369911,594.3612054261961 M636.5378239369911,594.3612054261961 L653.4617920503215,584.055954449668 M653.4617920503215,584.055954449668 L669.033041913154,573.0743621652807 M669.033041913154,573.0743621652807 L683.1712980781253,561.476266132526 M683.1712980781253,561.476266132526 L695.8043666610454,549.3245963318566 M695.8043666610454,549.3245963318566 L706.8685378851974,536.6850203146926 M706.8685378851974,536.6850203146926 L716.3088031241434,523.6255489713242 M716.3088031241434,523.6255489713242 L724.079148271411,510.21612375075136 M724.079148271411,510.21612375075136 L730.1426358544236,496.5282272068879 M730.1426358544236,496.5282272068879 L734.4716735538896,482.6344718126189 M734.4716735538896,482.6344718126189 L737.0478472854663,468.60820501024375 M737.0478472854663,468.60820501024375 L737.8621672995912,454.52309236428806 M737.8621672995912,454.52309236428806 L736.9148599398211,440.45273208387147 M736.9148599398211,440.45273208387147 L734.215328599857,426.4702938321717 M734.215328599857,426.4702938321717 L729.7820170345342,412.64811181367185 M729.7820170345342,412.64811181367185 L723.6421915515832,399.0573092483245 M723.6421915515832,399.0573092483245 L715.8317846263942,385.76749185197974 M715.8317846263942,385.76749185197974 L706.3950450399891,372.84637707922775 M706.3950450399891,372.84637707922775 L695.3842599789618,360.35949449892826 M695.3842599789618,360.35949449892826 L682.8594701635946,348.36986917038246 M682.8594701635946,348.36986917038246 L668.88799380821,336.93775993165013 M668.88799380821,336.93775993165013 L653.5442027940135,326.12034569409866 M653.5442027940135,326.12034569409866 L636.9089599733556,315.97151608936906 M439.87557328920104,319.16951188009233 L446.2092644636189,323.48513604343134 M446.2092644636189,323.48513604343134 L451.14304833739556,328.3667500533116 M451.14304833739556,328.3667500533116 L454.5261480131467,333.6668957495288 M454.5261480131467,333.6668957495288 L456.2544421256816,339.22517548747606 M456.2544421256816,339.22517548747606 L456.27377681580396,344.8730500636965 M456.27377681580396,344.8730500636965 L454.5818200421476,350.43891459205406 M454.5818200421476,350.43891459205406 L451.22834287281455,355.7533150415971 M451.22834287281455,355.7533150415971 L446.3138937612023,360.65413444782035 M446.3138937612023,360.65413444782035 L439.98691753953375,364.9915982128623 M439.98691753953375,364.9915982128623 L432.439345953585,368.63292619240946 M432.439345953585,368.63292619240946 L423.90080992321936,371.46649064390493 M423.90080992321936,371.46649064390493 L414.6316194880047,373.4053243392525 M414.6316194880047,373.4053243392525 L404.91475486468465,374.3898720511884 M404.91475486468465,374.3898720511884 L395.047101925288,374.3898720511884 M395.047101925288,374.3898720511884 L385.33023730196805,373.4053243392525 M385.33023730196805,373.4053243392525 L376.0610468667533,371.46649064390493 M376.0610468667533,371.46649064390493 L367.52251083638765,368.63292619240946 M367.52251083638765,368.63292619240946 L359.9749392504388,364.9915982128622 M359.9749392504388,364.9915982128622 L353.6479630287704,360.65413444782035 M353.6479630287704,360.65413444782035 L348.73351391715806,355.7533150415971 M348.73351391715806,355.7533150415971 L345.380036747825,350.43891459205406 M345.380036747825,350.43891459205406 L343.6880799741687,344.8730500636965 M343.6880799741687,344.8730500636965 L343.70741466429104,339.22517548747606 M343.70741466429104,339.22517548747606 L345.43570877682595,333.6668957495288 M345.43570877682595,333.6668957495288 L348.8188084525771,328.3667500533115 M348.8188084525771,328.3667500533115 L353.7525923263538,323.48513604343134 M353.7525923263538,323.48513604343134 L360.08628350077174,319.1695118800922 M360.08628350077174,319.1695118800922 L367.62714027295715,315.5500235281568 M367.62714027295715,315.5500235281568 L376.14634161511134,312.73566454789875 M376.14634161511134,312.73566454789875 L385.38590951822437,310.81108568816614 M385.38590951822437,310.81108568816614 L395.0664366893633,309.834122831217 M395.0664366893633,309.834122831217 L404.8954201006094,309.834122831217 M404.8954201006094,309.834122831217 L414.5759472717483,310.81108568816614 M414.5759472717483,310.81108568816614 L423.81551517486133,312.7356645478988 M423.81551517486133,312.7356645478988 L432.3347165170155,315.5500235281568 M432.3347165170155,315.5500235281568 L439.87557328920104,319.16951188009233 M431.79923230284726,434.391672573348 L424.9755303514867,431.164999808441 M424.9755303514867,431.164999808441 L417.1950128214541,428.7681806973014 M417.1950128214541,428.7681806973014 L408.755810278709,427.2925727449575 M408.755810278709,427.2925727449575 L399.98092839498634,426.794380547346 M399.98092839498634,426.794380547346 L391.2060465112636,427.2925727449575 M391.2060465112636,427.2925727449575 L382.7668439685185,428.7681806973014 M382.7668439685185,428.7681806973014 L374.986326438486,431.164999808441 M374.986326438486,431.164999808441 L368.16262448712524,434.391672573348 M368.16262448712524,434.391672573348 L362.55766022809104,438.32508801495356 M362.55766022809104,438.32508801495356 L358.38713043367284,442.8149758771853 M358.38713043367284,442.8149758771853 L355.81217604407067,447.6895456900271 M355.81217604407067,447.6895456900271 L354.93305384727154,452.76197889970877 M354.93305384727154,452.76197889970877 L355.78508744498345,457.8375230215692 M355.78508744498345,457.8375230215692 L358.3370772228348,462.72095196257237 M358.3370772228348,462.72095196257237 L362.4922625294557,467.2240984586434 M362.4922625294557,467.2240984586434 L368.09183849400466,471.1731535382529 M368.09183849400466,471.1731535382529 L374.9209286780563,474.415465954859 M374.9209286780563,474.415465954859 L382.7167906702902,476.82554373665226 M382.7167906702902,476.82554373665226 L391.1789578503822,478.31001085425083 M391.1789578503822,478.31001085425083 L399.98092839498634,478.8113139773059 M399.98092839498634,478.8113139773059 L408.78289893959055,478.31001085425083 M408.78289893959055,478.31001085425083 L417.24506611968246,476.82554373665226 M417.24506611968246,476.82554373665226 L425.0409281119163,474.415465954859 M425.0409281119163,474.415465954859 L431.87001829596846,471.17315353825273 M431.87001829596846,471.17315353825273 L437.469594260517,467.2240984586434 M437.469594260517,467.2240984586434 L441.62477956713786,462.72095196257237 M441.62477956713786,462.72095196257237 L444.1767693449893,457.8375230215692 M444.1767693449893,457.8375230215692 L445.02880294270113,452.76197889970877 M445.02880294270113,452.76197889970877 L444.14968074590206,447.6895456900272 M444.14968074590206,447.6895456900272 L441.5747263562998,442.8149758771853 M441.5747263562998,442.8149758771853 L437.40419656188163,438.32508801495356 M437.40419656188163,438.32508801495356 L431.79923230284726,434.391672573348 M439.8533787718746,337.66012910797645 L446.18353957860324,341.97820944735565 M446.18353957860324,341.97820944735565 L451.1145694697883,346.86260023611845 M451.1145694697883,346.86260023611845 L454.4957761872584,352.1657589524132 M454.4957761872584,352.1657589524132 L456.22309735961534,357.7271964078782 M456.22309735961534,357.7271964078782 L456.2424105129076,363.3782774555515 M456.2424105129076,363.3782774555515 L454.5513862034059,368.94729977963357 M454.5513862034059,368.94729977963357 L451.1997689959197,374.2647133962243 M451.1997689959197,374.2647133962243 L446.28805232990646,379.168309779321 M446.28805232990646,379.168309779321 L439.9645989960779,383.5082299455201 M439.9645989960779,383.5082299455201 L432.4212340470824,387.1516191041789 M432.4212340470824,387.1516191041789 L423.8874602532282,389.9867868769986 M423.8874602532282,389.9867868769986 L414.62344198506054,391.9267173127017 M414.62344198506054,391.9267173127017 L404.9120008109421,392.9118218563101 M404.9120008109421,392.9118218563101 L395.04985597903055,392.9118218563101 M395.04985597903055,392.9118218563101 L385.33841480491213,391.9267173127017 M385.33841480491213,391.9267173127017 L376.0743965367445,389.9867868769986 M376.0743965367445,389.9867868769986 L367.5406227428902,387.1516191041789 M367.5406227428902,387.1516191041789 L359.9972577938946,383.50822994552 M359.9972577938946,383.50822994552 L353.67380446006615,379.168309779321 M353.67380446006615,379.168309779321 L348.76208779405295,374.2647133962243 M348.76208779405295,374.2647133962243 L345.41047058656676,368.94729977963345 M345.41047058656676,368.94729977963345 L343.71944627706506,363.3782774555515 M343.71944627706506,363.3782774555515 L343.73875943035733,357.7271964078782 M343.73875943035733,357.7271964078782 L345.46608060271427,352.1657589524132 M345.46608060271427,352.1657589524132 L348.84728732018436,346.86260023611845 M348.84728732018436,346.86260023611845 L353.7783172113694,341.97820944735565 M353.7783172113694,341.97820944735565 L360.10847801809814,337.6601291079764 M360.10847801809814,337.6601291079764 L367.6451356328701,334.03857980201417 M367.6451356328701,334.03857980201417 L376.15959627534085,331.2226176983418 M376.15959627534085,331.2226176983418 L385.3940250078981,329.2969422451317 M385.3940250078981,329.2969422451317 L395.06916920611116,328.31942263465663 M395.06916920611116,328.31942263465663 L404.89268758386146,328.31942263465663 M404.89268758386146,328.31942263465663 L414.5678317820745,329.2969422451317 M414.5678317820745,329.2969422451317 L423.80226051463177,331.2226176983418 M423.80226051463177,331.2226176983418 L432.31672115710256,334.03857980201417 M432.31672115710256,334.03857980201417 L439.8533787718746,337.66012910797645 M439.8533787718746,337.66012910797645 L439.87557328920104,319.16951188009233 M431.79923230284726,434.391672573348 L431.88776403325306,342.233458031254 M431.88776403325306,342.233458031254 L425.04506209990495,339.0158449271997 M425.04506209990495,339.0158449271997 L417.24289321400926,336.625757724879 M417.24289321400926,336.625757724879 L408.780215130194,335.1542952487487 M408.780215130194,335.1542952487487 L399.98092839498634,334.65750280464823 M399.98092839498634,334.65750280464823 L391.1816416597787,335.1542952487487 M391.1816416597787,335.1542952487487 L382.71896357596347,336.625757724879 M382.71896357596347,336.625757724879 L374.9167946900677,339.0158449271997 M374.9167946900677,339.0158449271997 L368.0740927567195,342.233458031254 M368.0740927567195,342.233458031254 L362.4535083185789,346.15583418813964 M362.4535083185789,346.15583418813964 L358.27134009425777,350.6331273508661 M358.27134009425777,350.6331273508661 L355.6891811174416,355.49403104360795 M355.6891811174416,355.49403104360795 L354.80757230257035,360.5522518799255 M354.80757230257035,360.5522518799255 L355.66194139674155,365.61358355587544 M355.66194139674155,365.61358355587544 L358.2210076469793,370.4833461702015 M358.2210076469793,370.4833461702015 L362.387745779654,374.97389765765246 M362.387745779654,374.97389765765246 L368.00291186293657,378.9119130879917 M368.00291186293657,378.9119130879917 L374.8510320886572,382.14516547927707 M374.8510320886572,382.14516547927707 L382.66863104031694,384.54851104333454 M382.66863104031694,384.54851104333454 L391.154401876593,386.02883247834086 M391.154401876593,386.02883247834086 L399.98092839498634,386.5287357754206 M399.98092839498634,386.5287357754206 L408.8074549133797,386.02883247834086 M408.8074549133797,386.02883247834086 L417.2932257496557,384.54851104333454 M417.2932257496557,384.54851104333454 L425.1108247013155,382.14516547927707 M425.1108247013155,382.14516547927707 L431.95894492703627,378.91191308799154 M431.95894492703627,378.91191308799154 L437.57411101031875,374.97389765765246 M437.57411101031875,374.97389765765246 L441.7408491429934,370.4833461702015 M441.7408491429934,370.4833461702015 L444.29991539323106,365.61358355587544 M444.29991539323106,365.61358355587544 L445.1542844874023,360.5522518799255 M445.1542844874023,360.5522518799255 L444.272675672531,355.49403104360795 M444.272675672531,355.49403104360795 L441.69051669571485,350.6331273508661 M441.69051669571485,350.6331273508661 L437.50834847139373,346.15583418813964 M437.50834847139373,346.15583418813964 L431.88776403325306,342.233458031254" stroke="black"  stroke-width="4"  fill="red"/></svg>