<svg version="1.1" xmlns="http://www.w3.org/2000/svg" viewBox="-85.8528147423857 -83.56518924710922 171.7056294847714 167.13037849421843" fill="none" stroke="black" stroke-width="0.6%" vector-effect="non-scaling-stroke">
    <path d="M 0 78.9754 L -7.07107 82.56519 L -7.07107 48.1032 L 0 51.69299 L 0 34.46199 L -7.07107 30.8722 L -7.07107 -3.58979 L -77.78175 -39.4877 L -77.78175 -46.66728 L -7.07107 -82.56519" />
    <path d="M -77.78175 46.66728 L -7.07107 82.56519" />
    <path d="M -77.78175 46.66728 L -77.78175 12.20529 L -84.85281 8.6155 L -84.85281 -8.6155 L -77.78175 -12.20529" />
    <path d="M 0 78.9754 L 0 51.69299" />
    <path d="M 0 -7.17958 L -70.71068 -43.07749 L -77.78175 -39.4877" />
    <path d="M 0 27.28241 L 0 -7.17958 L -7.07107 -3.58979" />
    <path d="M -77.78175 -5.02571 L -77.78175 -39.4877" />
    <path d="M -77.78175 -5.02571 L -84.85281 -8.6155" />
    <path d="M 7.07107 48.1032 L 0 51.69299" />
    <path d="M 70.71068 -43.07749 L 0 -7.17958 L 7.07107 -3.58979 L 7.07107 30.8722 L 0 27.28241 L -7.07107 30.8722" />
    <path d="M 0 -7.17958 L 0 -27.28241" />
    <path d="M 0 -44.51341 L 0 -27.28241" />
    <path d="M 0 -44.51341 L 0 -78.9754 L 70.71068 -43.07749 L 77.78175 -46.66728 L 77.78175 -39.4877 L 7.07107 -3.58979" />
    <path d="M -70.71068 -43.07749 L 0 -78.9754 L -7.07107 -82.56519" />
    <path d="M 7.07107 30.8722 L 0 34.46199" />
    <path d="M 77.78175 -5.02571 L 77.78175 -39.4877" />
    <path d="M 84.85281 -8.6155 L 77.78175 -5.02571" />
    <path d="M 84.85281 8.6155 L 84.85281 -8.6155" />
    <path d="M 77.78175 12.20529 L 84.85281 8.6155" />
    <path d="M 77.78175 46.66728 L 77.78175 12.20529 L 77.78175 39.4877" />
    <path d="M 7.07107 82.56519 L 77.78175 46.66728" />
    <path d="M 7.07107 48.1032 L 7.07107 82.56519" />
    <path d="M -77.78175 39.4877 L -77.78175 12.20529" />
    <path d="M 0 78.9754 L 7.07107 82.56519" />
    <path d="M 70.71068 -43.07749 L 77.78175 -39.4877" />
    <path d="M -70.71068 -43.07749 L -77.78175 -46.66728" />
    <path d="M 77.78175 -12.20529 L 84.85281 -8.6155" />
    <path d="M 7.07107 -82.56519 L 77.78175 -46.66728" />
    <path d="M 0 -78.9754 L 7.07107 -82.56519" />
</svg>