<svg version="1.1" xmlns="http://www.w3.org/2000/svg" viewBox="-96.92778344224547 -15.993140673349679 195.87255140414908 31.742299396173934" fill="none" stroke="black" stroke-width="0.6%" vector-effect="non-scaling-stroke">
    <path d="M 46.63268 -6.84801 L 28.07642 -4.12302 L -69.86834 -4.73298 L -69.86834 -3.83141" />
    <path d="M 28.07642 -0.12485 L 28.07642 -4.12302" />
    <path d="M 28.07642 -0.12485 L 27.26963 -0.00637 L 27.26963 10.9886 L 22.18683 10.95694" />
    <path d="M 47.43948 8.02665 L 27.26963 10.9886" />
    <path d="M 47.43948 -2.96831 L 47.43948 8.02665" />
    <path d="M 46.63268 -2.84984 L 47.43948 -2.96831 L 46.63268 -2.97334" />
    <path d="M 46.63268 -6.84801 L 46.63268 -2.84984" />
    <path d="M -69.86834 -4.73298 L -51.31209 -7.45796 L 46.63268 -6.84801" />
    <path d="M 22.18683 -0.16153 L 28.07642 -0.12485" />
    <path d="M 22.18683 -0.03803 L 27.26963 -0.00637" />
    <path d="M 22.18683 -3.25813 L 2.82378 -0.41467 L -95.12099 -1.02463 L -95.12099 2.97354 L -95.92778 3.09202 L -95.92778 14.08699" />
    <path d="M 2.82378 3.5835 L 2.82378 -0.41467" />
    <path d="M 2.82378 3.5835 L 2.01698 3.70198 L 2.01698 14.69695 L -37.16092 14.45296 L -39.17791 14.74916 L -58.76686 14.62717" />
    <path d="M 22.18683 11.735 L 2.01698 14.69695" />
    <path d="M 22.18683 -3.25813 L 22.18683 11.735" />
    <path d="M -75.75794 -3.86809 L 22.18683 -3.25813" />
    <path d="M -95.12099 -1.02463 L -75.75794 -3.86809" />
    <path d="M -95.12099 2.97354 L 2.82378 3.5835" />
    <path d="M -37.16092 3.45799 L 2.01698 3.70198" />
    <path d="M -39.17791 3.75419 L -37.16092 3.45799 L -37.16092 14.45296" />
    <path d="M -58.76686 3.6322 L -39.17791 3.75419 L -39.17791 14.74916" />
    <path d="M -56.74988 3.336 L -58.76686 3.6322 L -58.76686 14.62717" />
    <path d="M -95.92778 3.09202 L -56.74988 3.336" />
    <path d="M -58.76686 14.31841 L -95.92778 14.08699" />
    <path d="M -47.43948 -8.02665 L -28.07642 -10.87012 L 69.86834 -10.26016 L 69.86834 -6.26199 L 70.67514 -6.38047 L 70.67514 4.6145 L 50.50529 7.57644 L 47.43948 7.55735" />
    <path d="M -47.43948 -8.02665 L -47.43948 -7.43385" />
    <path d="M 50.50529 -7.4167 L -47.43948 -8.02665" />
    <path d="M 69.86834 -10.26016 L 50.50529 -7.4167 L 50.50529 7.57644" />
    <path d="M 70.67514 -6.38047 L 69.86834 -6.38549" />
    <path d="M -20.16984 -10.82088 L -20.16984 -12.0312 L 19.00806 -11.78722 L 16.99108 -11.49102 L 36.58003 -11.36903 L 38.59702 -11.66523 L 77.77492 -11.42124 L 97.94477 -14.38318 L 0 -14.99314 L -20.16984 -12.0312" />
    <path d="M 97.94477 0.60995 L 97.94477 -14.38318" />
    <path d="M 70.67514 3.52768 L 77.77492 3.5719 L 77.77492 -11.42124" />
    <path d="M 77.77492 3.5719 L 97.94477 0.60995" />
    <path d="M 16.99108 -10.58946 L 16.99108 -11.49102" />
    <path d="M 38.59702 -10.45491 L 38.59702 -11.66523" />
    <path d="M 36.58003 -10.46747 L 36.58003 -11.36903" />
</svg>