<svg viewBox="0 0 800 800" xmlns="http://www.w3.org/2000/svg"><path d="M595.7563499061969,497.6473357339547 L595.8362330971856,-12.740137366643012 M627.7550188668812,502.5930308687247 L627.8704671597807,-7.799965247860257 M595.7563499061969,497.6473357339547 L627.7550188668812,502.5930308687247 M595.8362330971856,-12.740137366643012 L627.8704671597807,-7.799965247860257 M591.9397083267344,579.774139214344 L592.0153769069016,69.29498317014657 M627.7550188668812,502.5930308687247 L591.9397083267344,579.774139214344 M627.8704671597807,-7.799965247860257 L592.0153769069016,69.29498317014657 M482.6881499127286,562.8822655031563 L482.64235858267455,52.421961508884635 M591.9397083267344,579.774139214344 L482.6881499127286,562.8822655031563 M592.0153769069016,69.29498317014657 L482.64235858267455,52.421961508884635 M482.6881499127286,562.8822655031563 L595.7563499061969,497.6473357339547 M482.64235858267455,52.421961508884635 L595.8362330971856,-12.740137366643012 M324.2849537780975,654.2733142300017 L324.06297801928696,143.71104689633347 M437.4426608554594,588.9867431652634 L437.3465594267152,78.49730662721299 M324.2849537780975,654.2733142300017 L437.4426608554594,588.9867431652634 M324.06297801928696,143.71104689633347 L437.3465594267152,78.49730662721299 M631.1349934275263,618.9381136809068 L631.2542587745103,108.41525960231593 M437.4426608554594,588.9867431652634 L631.1349934275263,618.9381136809068 M437.3465594267152,78.49730662721299 L631.2542587745103,108.41525960231593 M595.3035130928973,696.197061233849 L595.3829618163718,185.5880473909208 M631.1349934275263,618.9381136809068 L595.3035130928973,696.197061233849 M631.2542587745103,108.41525960231593 L595.3829618163718,185.5880473909208 M595.3035130928973,696.197061233849 L324.2849537780975,654.2733142300017 M595.3829618163718,185.5880473909208 L324.06297801928696,143.71104689633347 M165.75509587011396,745.7374407266318 L165.35665415829766,235.07320948646148 M279.0035971813994,680.3984857425086 L278.7312312803547,169.80708589024565 M165.75509587011396,745.7374407266318 L279.0035971813994,680.3984857425086 M165.35665415829766,235.07320948646148 L278.7312312803547,169.80708589024565 M634.5202536801448,735.4025011226453 L634.6433458417023,224.74978718002848 M279.0035971813994,680.3984857425086 L634.5202536801448,735.4025011226453 M278.7312312803547,169.80708589024565 L634.6433458417023,224.74978718002848 M598.6713245695382,812.740137366643 L598.7545617392293,302.00126314179283 M634.5202536801448,735.4025011226453 L598.6713245695382,812.740137366643 M634.6433458417023,224.74978718002848 L598.7545617392293,302.00126314179283 M598.6713245695382,812.740137366643 L165.75509587011396,745.7374407266318 M598.7545617392293,302.00126314179283 L165.35665415829766,235.07320948646148" stroke="black"  stroke-width="4"  fill="red"/></svg>