<svg viewBox="0 0 800 800" xmlns="http://www.w3.org/2000/svg"><path d="M548.9538915791795,227.7626102609001 L549.7585321739122,56.340168056052164 M-46.641975681674694,567.851281537993 L-49.16529747391917,394.4872601334693 M548.9538915791795,227.7626102609001 L-46.641975681674694,567.851281537993 M549.7585321739122,56.340168056052164 L-49.16529747391917,394.4872601334693 M846.6975847991341,395.928002964214 L849.1652974739192,223.53511913877506 M846.6975847991341,395.928002964214 L548.9538915791795,227.7626102609001 M849.1652974739192,223.53511913877506 L549.7585321739122,56.340168056052164 M251.10049176629198,743.6598319439479 L250.24021442781725,569.3246770598611 M-46.641975681674694,567.851281537993 L251.10049176629198,743.6598319439479 M-49.16529747391917,394.4872601334693 L250.24021442781725,569.3246770598611 M251.10049176629198,743.6598319439479 L846.6975847991341,395.928002964214 M250.24021442781725,569.3246770598611 L849.1652974739192,223.53511913877506 M477.1593302129533,265.9160120316101 L468.36739893592164,260.25646567960075 M468.36739893592164,260.25646567960075 L460.89433858574137,254.02105209411027 M460.89433858574137,254.02105209411027 L454.8570945063987,247.30939985688386 M454.8570945063987,247.30939985688386 L450.3494317843087,240.22847426701003 M450.3494317843087,240.22847426701003 L447.4405603946688,232.89082384990678 M447.4405603946688,232.89082384990678 L446.1741401813499,225.41274581206352 M446.1741401813499,225.41274581206352 L446.56774533737496,217.91242579449693 M446.56774533737496,217.91242579449693 L448.61273543436135,210.5080443291599 M448.61273543436135,210.5080443291599 L452.27453216120995,203.31594785533235 M452.27453216120995,203.31594785533235 L457.4933399894156,196.44880310025422 M457.4933399894156,196.44880310025422 L464.1852085536494,190.01389342284068 M464.1852085536494,190.01389342284068 L472.2434092934873,184.1114918523881 M472.2434092934873,184.1114918523881 L481.5402767643445,178.8333442022366 M481.5402767643445,178.8333442022366 L491.9291860686532,174.26131696215484 M491.9291860686532,174.26131696215484 L503.2469014481094,170.4661710346004 M503.2469014481094,170.4661710346004 L515.31609292796,167.50656967527905 M515.31609292796,167.50656967527905 L527.9480800850339,165.42817935953218 M527.9480800850339,165.42817935953218 L540.9457025384611,164.26304009174757 M540.9457025384611,164.26304009174757 L554.1062460264059,164.0291168287236 M554.1062460264059,164.0291168287236 L567.2246206142476,164.7299932117634 M567.2246206142476,164.7299932117634 L580.096289609906,166.3548878443401 M580.096289609906,166.3548878443401 L592.5204682902711,168.87875593802457 M592.5204682902711,168.87875593802457 L604.3030746252527,172.26267596934736 M604.3030746252527,172.26267596934736 L615.2597654580071,176.45437464850795 M615.2597654580071,176.45437464850795 L625.2186632948897,181.38902343648223 M625.2186632948897,181.38902343648223 L634.0230058679123,186.9901841871509 M634.0230058679123,186.9901841871509 L641.5337000527032,193.17087172090294 M641.5337000527032,193.17087172090294 L647.6314304173326,199.83489904954058 M647.6314304173326,199.83489904954058 L652.2185985972638,206.87831191852808 M652.2185985972638,206.87831191852808 L655.2210211544525,214.1909061382398 M655.2210211544525,214.1909061382398 L656.5891542258723,221.65796222816806 M656.5891542258723,221.65796222816806 L656.299060142103,229.16197135311666 M656.299060142103,229.16197135311666 L654.3528425293953,236.58454014392527 M654.3528425293953,236.58454014392527 L650.7788846842417,243.80817295096156 M650.7788846842417,243.80817295096156 L645.6314630673847,250.71822159329065 M645.6314630673847,250.71822159329065 L638.9900425434632,257.2047070106353 M638.9900425434632,257.2047070106353 L630.9581818109554,263.1641155247231 M630.9581818109554,263.1641155247231 L621.6618910772429,268.5011194188751 M621.6618910772429,268.5011194188751 L611.2477588543821,273.13015399480173 M611.2477588543821,273.13015399480173 L599.8806056919091,276.97687647192924 M599.8806056919091,276.97687647192924 L587.7408677892345,279.97938258653886 M587.7408677892345,279.97938258653886 L575.0216582862147,282.0893100339098 M575.0216582862147,282.0893100339098 L561.9256180176866,283.2726371962257 M561.9256180176866,283.2726371962257 L548.6616342099107,283.510262551908 M548.6616342099107,283.510262551908 L535.4413294467508,282.7983510458424 M535.4413294467508,282.7983510458424 L522.4756178223655,281.1483930854537 M522.4756178223655,281.1483930854537 L509.97119914616684,278.5870049310204 M509.97119914616684,278.5870049310204 L498.12717511987125,275.1554783909474 M498.12717511987125,275.1554783909474 L487.13178061228473,270.90905948513654 M487.13178061228473,270.90905948513654 L477.1593302129533,265.9160120316101 M176.03584152236792,437.8272395405749 L167.2578532517254,432.03945314998185 M167.2578532517254,432.03945314998185 L159.82514174428496,425.66281754529126 M159.82514174428496,425.66281754529126 L153.85397502855608,418.7992292380539 M153.85397502855608,418.7992292380539 L149.4370553185573,411.55806807015296 M149.4370553185573,411.55806807015296 L146.64207796817385,404.0544526273837 M146.64207796817385,404.0544526273837 L145.510850734884,396.4073137748807 M145.510850734884,396.4073137748807 L146.0587276001683,388.73752815804136 M146.0587276001683,388.73752815804136 L148.2746169156303,381.1659256010188 M148.2746169156303,381.1659256010188 L152.1211897835152,373.8114815712243 M152.1211897835152,373.8114815712243 L157.53570572087412,366.78939731868684 M157.53570572087412,366.78939731868684 L164.43111118739355,360.2093650567183 M164.43111118739355,360.2093650567183 L172.69746559429805,354.1739052195107 M172.69746559429805,354.1739052195107 L182.2038345332649,348.77681646526446 M182.2038345332649,348.77681646526446 L192.8003168407916,344.1017942896069 M192.8003168407916,344.1017942896069 L204.3204439242768,340.22117835884956 M204.3204439242768,340.22117835884956 L216.5837438095271,337.1949392855664 M216.5837438095271,337.1949392855664 L229.39853250086398,335.069760310599 M229.39853250086398,335.069760310599 L242.56482767818858,333.87839431683705 M242.56482767818858,333.87839431683705 L255.87732616063388,333.6391992579762 M255.87732616063388,333.6391992579762 L269.12856424117643,334.3558580814058 M269.12856424117643,334.3558580814058 L282.11198623164836,336.01733329486825 M282.11198623164836,336.01733329486825 L294.62507709170376,338.5980262854528 M294.62507709170376,338.5980262854528 L306.4723998172153,342.05813616877805 M306.4723998172153,342.05813616877805 L317.4685673568928,346.3442449146779 M317.4685673568928,346.3442449146779 L327.4410690292592,351.3900817314457 M327.4410690292592,351.3900817314457 L336.23294738425597,357.11747898900563 M336.23294738425597,357.11747898900563 L343.7052329967607,363.4375296582614 M343.7052329967607,363.4375296582614 L349.7391765384207,370.25188950580014 M349.7391765384207,370.25188950580014 L354.23816498762545,377.45425258340657 M354.23816498762545,377.45425258340657 L357.1293234893884,384.9319510799562 M357.1293234893884,384.9319510799562 L358.3648071638985,392.56767900476433 M358.3648071638985,392.56767900476433 L357.92268305171115,400.24129274663534 M357.92268305171115,400.24129274663534 L355.8074322629932,407.83170259948207 M355.8074322629932,407.83170259948207 L352.05004858419977,415.218757975606 M352.05004858419977,415.218757975606 L346.7076685892391,422.2852086290854 M346.7076685892391,422.2852086290854 L339.8628132060177,428.9185747557414 M339.8628132060177,428.9185747557414 L331.6222467463164,435.0129848061177 M331.6222467463164,435.0129848061177 L322.1152830607223,440.4709361186316 M322.1152830607223,440.4709361186316 L311.49186053024556,445.2049089231818 M311.49186053024556,445.2049089231818 L299.9201404369526,449.13885957364784 M299.9201404369526,449.13885957364784 L287.58383640102267,452.20946596651663 M287.58383640102267,452.20946596651663 L274.6792195625942,454.36725713249945 M274.6792195625942,454.36725713249945 L261.41191642859417,455.57743102292096 M261.41191642859417,455.57743102292096 L247.99358875372008,455.82044111023873 M247.99358875372008,455.82044111023873 L234.63831588786564,455.09238425427077 M234.63831588786564,455.09238425427077 L221.55921885610033,453.404997968447 M221.55921885610033,453.404997968447 L208.96481821547707,450.785512540385 M208.96481821547707,450.785512540385 L197.0556828402949,447.27615341368727 M197.0556828402949,447.27615341368727 L186.02104991130412,442.93345247802455 M186.02104991130412,442.93345247802455 L176.03584152236792,437.8272395405749 M476.8693467567237,386.96213720174404 L468.11166290633616,381.2798406009187 M468.11166290633616,381.2798406009187 L460.667713807106,375.01934293487886 M460.667713807106,375.01934293487886 L454.65399273513407,368.28066857098474 M454.65399273513407,368.28066857098474 L450.1639049996563,361.1712091378048 M450.1639049996563,361.1712091378048 L447.26639799806094,353.8039633134269 M447.26639799806094,353.8039633134269 L446.00496949401384,346.29569514994165 M446.00496949401384,346.29569514994165 L446.3971335161092,338.76506649341076 M446.3971335161092,338.76506649341076 L448.43429117684457,331.33073586241017 M448.43429117684457,331.33073586241017 L452.08200562290654,324.1095220340429 M452.08200562290654,324.1095220340429 L457.2807192357023,317.21455081684906 M457.2807192357023,317.21455081684906 L463.94681130982144,310.75354426120106 M463.94681130982144,310.75354426120106 L471.97396890077215,304.8271867915719 M471.97396890077215,304.8271867915719 L481.23502069933517,299.52760179645065 M481.23502069933517,299.52760179645065 L491.5839066735508,294.93699362614115 M491.5839066735508,294.93699362614115 L502.8580176209627,291.1264159319401 M502.8580176209627,291.1264159319401 L514.8807023028522,288.1547751742588 M514.8807023028522,288.1547751742588 L527.4640009941681,286.0679274723892 M527.4640009941681,286.0679274723892 L540.4115054082799,284.89804605361326 M540.4115054082799,284.89804605361326 L553.5212741038512,284.66317063238085 M553.5212741038512,284.66317063238085 L566.5889991238424,285.3668997698694 M566.5889991238424,285.3668997698694 L579.4109243268608,286.99840719232293 M579.4109243268608,286.99840719232293 L591.7870324747141,289.5325439270516 M591.7870324747141,289.5325439270516 L603.5239852081804,292.93022670659826 M603.5239852081804,292.93022670659826 L614.43814804682,297.1389653341629 M614.43814804682,297.1389653341629 L624.358307047815,302.09366277243544 M624.358307047815,302.09366277243544 L633.1283083680421,307.7175650132868 M633.1283083680421,307.7175650132868 L640.609602366563,313.9233283803118 M640.609602366563,313.9233283803118 L646.6833438563679,320.6143706305419 M646.6833438563679,320.6143706305419 L651.252323648134,327.68631170897754 M651.252323648134,327.68631170897754 L654.2426593386496,335.02849757665825 M654.2426593386496,335.02849757665825 L655.6050145623562,342.52574215801576 M655.6050145623562,342.52574215801576 L655.3155611032428,350.06006045222824 M655.3155611032428,350.06006045222824 L653.3764114695525,357.512581146638 M653.3764114695525,357.512581146638 L649.815855489781,364.76533605532546 M649.815855489781,364.76533605532546 L644.6879744659415,371.7032176172088 M644.6879744659415,371.7032176172088 L638.071938389274,378.2158076741835 M638.071938389274,378.2158076741835 L630.0709149766161,384.1991806645872 M630.0709149766161,384.1991806645872 L620.8104332354873,389.5576307573565 M620.8104332354873,389.5576307573565 L610.4365172343093,394.20525483735173 M610.4365172343093,394.20525483735173 L599.1133488481112,398.06741683675887 M599.1133488481112,398.06741683675887 L587.0206616434888,401.08196880034217 M587.0206616434888,401.08196880034217 L574.3508138868137,403.20035837476166 M574.3508138868137,403.20035837476166 L561.305652013878,404.3884304219955 M561.305652013878,404.3884304219955 L548.0932426947045,404.6270085174314 M548.0932426947045,404.6270085174314 L534.9243761592876,403.9122425731222 M534.9243761592876,403.9122425731222 L522.0091364995087,402.2556680427654 M522.0091364995087,402.2556680427654 L509.55341026198687,399.68400559408883 M509.55341026198687,399.68400559408883 L497.755516485324,396.23870918536124 M497.755516485324,396.23870918536124 L486.80295128788475,391.9752421145997 M486.80295128788475,391.9752421145997 L476.8693467567237,386.96213720174404 M476.8693467567237,386.96213720174404 L477.1593302129533,265.9160120316101 M176.29073568310565,472.7049208596549 L167.5225277605842,466.91057743406327 M167.5225277605842,466.91057743406327 L160.09806582066255,460.5267120171015 M160.09806582066255,460.5267120171015 L154.1334899597097,453.65533515536873 M154.1334899597097,453.65533515536873 L149.72140180842334,446.4059495179639 M149.72140180842334,446.4059495179639 L146.92942493906506,438.893803431711 M146.92942493906506,438.893803431711 L145.79932490846429,431.23796230691045 M145.79932490846429,431.23796230691045 L146.34644347675084,423.559440066919 M146.34644347675084,423.559440066919 L148.55970648940053,415.97920429892304 M148.55970648940053,415.97920429892304 L152.40183177145505,408.6163666476117 M152.40183177145505,408.6163666476117 L157.81015362394692,401.58626072290957 M157.81015362394692,401.58626072290957 L164.69771990795286,394.9987052301332 M164.69771990795286,394.9987052301332 L172.95471628156142,388.95633923439294 M172.95471628156142,388.95633923439294 L182.4503571820887,383.55307028041625 M182.4503571820887,383.55307028041625 L193.03491054934094,378.87269130377524 M193.03491054934094,378.87269130377524 L204.54209445121194,374.98762640529907 M204.54209445121194,374.98762640529907 L216.79163830471407,371.9579163460101 M216.79163830471407,371.9579163460101 L229.59207120734408,369.83029906863817 M229.59207120734408,369.83029906863817 L242.74363251621773,368.6375658847038 M242.74363251621773,368.6375658847038 L256.04124615885814,368.3980963049085 M256.04124615885814,368.3980963049085 L269.2776776354184,369.1155776029888 M269.2776776354184,369.1155776029888 L282.24659934642057,370.7789593225913 M282.24659934642057,370.7789593225913 L294.74571993131144,373.3626128019087 M294.74571993131144,373.3626128019087 L306.57981845805233,376.8266904865185 M306.57981845805233,376.8266904865185 L317.5637131870826,381.11771180417026 M317.5637131870826,381.11771180417026 L327.52508496021454,386.1693285247437 M327.52508496021454,386.1693285247437 L336.3071511550947,391.9032818936163 M336.3071511550947,391.9032818936163 L343.77109779057366,398.2305615198099 M343.77109779057366,398.2305615198099 L349.79830908278905,405.0527091852224 M349.79830908278905,405.0527091852224 L354.2922814397351,412.2632961390704 M354.2922814397351,412.2632961390704 L357.18022340874967,419.74952488145493 M357.18022340874967,419.74952488145493 L358.41434587849903,427.3939548976709 M358.41434587849903,427.3939548976709 L357.97274284557557,435.0763053283048 M357.97274284557557,435.0763053283048 L355.8598927920797,442.6753486780309 M355.8598927920797,442.6753486780309 L352.1067569678318,450.07079817130284 M352.1067569678318,450.07079817130284 L346.7704097120729,457.14527117098373 M346.7704097120729,457.14527117098373 L339.9332806893878,463.7861613383428 M339.9332806893878,463.7861613383428 L331.70201505396517,469.8874784419507 M331.70201505396517,469.8874784419507 L322.20578140617056,475.35161087738646 M322.20578140617056,475.35161087738646 L311.5943488987629,480.09094137659565 M311.5943488987629,480.09094137659565 L300.0356883157006,484.0293418028836 M300.0356883157006,484.0293418028836 L287.71330457707893,487.1034198536754 M287.71330457707893,487.1034198536754 L274.8232454084153,489.26364981577234 M274.8232454084153,489.26364981577234 L261.5709029544477,490.47519118102497 M261.5709029544477,490.47519118102497 L248.16769759603972,490.71847583960164 M248.16769759603972,490.71847583960164 L234.8274645924787,489.9895963438954 M234.8274645924787,489.9895963438954 L221.76308219090947,488.30030316342913 M221.76308219090947,488.30030316342913 L209.18283380676883,485.6778566629675 M209.18283380676883,485.6778566629675 L197.28706078167568,482.1645289778519 M197.28706078167568,482.1645289778519 L186.26478634258507,477.81691460904767 M186.26478634258507,477.81691460904767 L176.29073568310565,472.7049208596549 M176.29073568310565,472.7049208596549 L176.03584152236792,437.8272395405749" stroke="black"  stroke-width="4"  fill="red"/></svg>