<svg viewBox="0 0 800 800" xmlns="http://www.w3.org/2000/svg"><path d="M642.0909656232964,260.24213209387904 L642.0909683130285,260.186222402493 M157.88537654173908,539.7983592932374 L157.88537385140916,539.7424464956712 M642.0909656232964,260.24213209387904 L692.9964342590556,297.75130936450483 M692.9964342590556,297.75130936450483 L726.8761361865622,341.20461008958114 M726.8761361865622,341.20461008958114 L741.7603976858672,388.0771460032833 M741.7603976858672,388.0771460032833 L736.7831456305134,435.64509732604927 M736.7831456305134,435.64509732604927 L712.2325639588123,481.1438947984129 M712.2325639588123,481.1438947984129 L669.5345364474069,521.9289698633304 M669.5345364474069,521.9289698633304 L611.1700038485928,555.6294656682528 M611.1700038485928,555.6294656682528 L540.5308904462797,580.2862021839587 M540.5308904462797,580.2862021839587 L461.72302023788905,594.4656577379253 M461.72302023788905,594.4656577379253 L379.3272964983298,597.3434133374255 M379.3272964983298,597.3434133374255 L298.13338027642243,588.7521379687171 M298.13338027642243,588.7521379687171 L222.8609680482427,569.1913650986596 M222.8609680482427,569.1913650986596 L157.88537654173908,539.7983592932374 M642.0909683130285,260.186222402493 L692.9964375144211,297.6953992563101 M692.9964375144211,297.6953992563101 L726.8761398184165,341.1486994985411 M726.8761398184165,341.1486994985411 L741.7604014831691,388.0212348914226 M741.7604014831691,388.0212348914226 L736.7831493725832,435.58918568566077 M736.7831493725832,435.58918568566077 L712.2325674281569,481.08798265250556 M712.2325674281569,481.08798265250556 L669.5345394423623,521.8730572642921 M669.5345394423623,521.8730572642921 L611.1700061950532,555.573552694806 M611.1700061950532,555.573552694806 L540.5308920078278,580.2302889365847 M540.5308920078278,580.2302889365847 L461.72302092373536,594.4097443330254 M461.72302092373536,594.4097443330254 L379.327296268597,597.2874999005555 M379.327296268597,597.2874999005555 L298.1333791444682,588.696224627291 M298.1333791444682,588.696224627291 L222.86096607988088,569.1354519745446 M222.86096607988088,569.1354519745446 L157.88537385140916,539.7424464956712 M157.88537654173908,539.7983592932374 L106.98298917315685,502.2819644534587 M106.98298917315685,502.2819644534587 L73.11182517088935,458.8230996161906 M73.11182517088935,458.8230996161906 L58.23960231420472,411.94792772017047 M58.23960231420472,411.94792772017047 L63.22963582627227,364.380872415829 M63.22963582627227,364.380872415829 L87.79081368658302,318.88629769526466 M87.79081368658302,318.88629769526466 L130.4948246638466,278.1078047355065 M130.4948246638466,278.1078047355065 L188.85935726269946,244.4147425063717 M188.85935726269946,244.4147425063717 L259.492487199198,219.76458809530482 M259.492487199198,219.76458809530482 L338.28976121895164,205.58935529434996 M338.28976121895164,205.58935529434996 L420.67270350172237,202.71249571465665 M420.67270350172237,202.71249571465665 L501.8545810809515,211.3011350997415 M501.8545810809515,211.3011350997415 L577.1184553839016,230.85634385900724 M577.1184553839016,230.85634385900724 L642.0909656232964,260.24213209387904 M157.88537385140916,539.7424464956712 L106.98298591726194,502.22605207270124 M106.98298591726194,502.22605207270124 L73.11182153869561,458.7671877182783 M73.11182153869561,458.7671877182783 L58.239598516830995,411.89201634307886 M58.239598516830995,411.89201634307886 L63.229632084414334,364.3249615672653 M63.229632084414334,364.3249615672653 L87.79081021768593,318.83038735221965 M87.79081021768593,318.83038735221965 L130.49482166947178,278.05189484559236 M130.49482166947178,278.05189484559236 L188.85935491681946,244.35883299086626 M188.85935491681946,244.35883299086626 L259.49248563809726,219.70867885372655 M259.49248563809726,219.70867885372655 L338.28976053331735,205.53344621029768 M338.28976053331735,205.53344621029768 L420.672703731383,202.65658666257454 M420.672703731383,202.65658666257454 L501.85458221256613,211.24522595221538 M501.85458221256613,211.24522595221538 L577.1184573517339,230.80043449417016 M577.1184573517339,230.80043449417016 L642.0909683130285,260.186222402493" stroke="black"  stroke-width="4"  fill="red"/></svg>