<svg viewBox="0 0 800 800" xmlns="http://www.w3.org/2000/svg"><path d="" stroke="black"  stroke-width="4"  fill="red"/>
<path d="M597.4487189959216,514.4074879674594 L597.6683357407326,57.56226836084346 M202.3581950811389,742.2595167304594 L202.13808921217475,285.1592935705655 M597.4487189959216,514.4074879674594 L638.9966320284836,544.9528302551943 M638.9966320284836,544.9528302551943 L666.6723127683103,580.3489824311787 M666.6723127683103,580.3489824311787 L678.8614329728362,618.5427150814153 M678.8614329728362,618.5427150814153 L674.847179625876,657.3161988286438 M674.847179625876,657.3161988286438 L654.8539515889886,694.4154482029959 M654.8539515889886,694.4154482029959 L620.036252205742,727.6814410754184 M620.036252205742,727.6814410754184 L572.4133791998551,755.176296510357 M572.4133791998551,755.176296510357 L514.7529963464387,775.2969226970476 M514.7529963464387,775.2969226970476 L450.41027890187746,786.8693802193461 M450.41027890187746,786.8693802193461 L383.13201203988524,789.2181839901118 M383.13201203988524,789.2181839901118 L316.83708849771966,782.2061879240033 M316.83708849771966,782.2061879240033 L255.38672939782523,766.2427632366436 M255.38672939782523,766.2427632366436 L202.3581950811389,742.2595167304594 M597.6683357407326,57.56226836084346 L639.2625041566007,88.07339274157306 M639.2625041566007,88.07339274157306 L666.9690257665378,123.42990563284116 M666.9690257665378,123.42990563284116 L679.171766771564,161.5808813022898 M679.171766771564,161.5808813022898 L675.1531038408763,200.3109752386727 M675.1531038408763,200.3109752386727 L655.1376722606957,237.36872363737382 M655.1376722606957,237.36872363737382 L620.2812492303278,270.5975162932242 M620.2812492303278,270.5975162932242 L572.6053736152742,298.0616342381154 M572.6053736152742,298.0616342381154 L514.8807894831117,318.1597720482221 M514.8807894831117,318.1597720482221 L450.46641251989143,329.71929728146574 M450.46641251989143,329.71929728146574 L383.1132090072025,332.0654764276271 M383.1132090072025,332.0654764276271 L316.7444466296368,325.0613159560563 M316.7444466296368,325.0613159560563 L255.22565649202906,309.11573167706206 M255.22565649202906,309.11573167706206 L202.13808921217475,285.1592935705655 M202.3581950811389,742.2595167304594 L160.83543784485477,711.6553150057172 M160.83543784485477,711.6553150057172 L133.22946156580542,676.2137873818644 M133.22946156580542,676.2137873818644 L121.13862598452783,637.9985582482376 M121.13862598452783,637.9985582482376 L125.25722833643238,599.2323815477916 M125.25722833643238,599.2323815477916 L145.33696469628188,562.1675688034979 M145.33696469628188,562.1675688034979 L180.20351368130264,528.9552531308608 M180.20351368130264,528.9552531308608 L227.8263867187249,501.52101868379737 M227.8263867187249,501.52101868379737 L285.43792000619516,481.4540697306326 M285.43792000619516,481.4540697306326 L349.6941291054294,469.9160488537808 M349.6941291054294,469.9160488537808 L416.8680469012391,467.57455214949755 M416.8680469012391,467.57455214949755 L483.06468577294737,474.5650516924023 M483.06468577294737,474.5650516924023 L544.4453404196669,490.48310091982745 M544.4453404196669,490.48310091982745 L597.4487189959216,514.4074879674594 M202.13808921217475,285.1592935705655 L160.569132618919,254.58931019086887 M160.569132618919,254.58931019086887 L132.9324707135557,219.18742218944814 M132.9324707135557,219.18742218944814 L120.82823322843603,181.01495019660922 M120.82823322843603,181.01495019660922 L124.95147756712902,142.2921632526215 M124.95147756712902,142.2921632526215 L145.0536101391173,105.2688512276697 M145.0536101391173,105.2688512276697 L179.95899156773984,72.09373537211542 M179.95899156773984,72.09373537211542 L227.63486721446952,44.69023796396914 M227.63486721446952,44.69023796396914 L285.3104929843652,24.645776987965405 M285.3104929843652,24.645776987965405 L349.63816893331284,13.120688143934842 M349.63816893331284,13.120688143934842 L416.8867909764856,10.781816009888132 M416.8867909764856,10.781816009888132 L483.15704978672505,17.76448011820139 M483.15704978672505,17.76448011820139 L544.6059802273953,33.6646892748966 M544.6059802273953,33.6646892748966 L597.6683357407326,57.56226836084346" stroke="black"  stroke-width="4"  fill="red"/></svg>