<svg viewBox="0 0 800 800" xmlns="http://www.w3.org/2000/svg"><path d="M548.9538915791795,227.7626102609001 L549.7585321739122,56.340168056052164 M-46.641975681674694,567.851281537993 L-49.16529747391917,394.4872601334693 M548.9538915791795,227.7626102609001 L-46.641975681674694,567.851281537993 M549.7585321739122,56.340168056052164 L-49.16529747391917,394.4872601334693 M846.6975847991341,395.928002964214 L849.1652974739192,223.53511913877506 M846.6975847991341,395.928002964214 L548.9538915791795,227.7626102609001 M849.1652974739192,223.53511913877506 L549.7585321739122,56.340168056052164 M251.10049176629198,743.6598319439479 L250.24021442781725,569.3246770598611 M-46.641975681674694,567.851281537993 L251.10049176629198,743.6598319439479 M-49.16529747391917,394.4872601334693 L250.24021442781725,569.3246770598611 M251.10049176629198,743.6598319439479 L846.6975847991341,395.928002964214 M476.74575665685853,438.5516412809819 L486.66280544685554,443.5732010732738 M486.66280544685554,443.5732010732738 L497.5971171950705,447.84385443593004 M497.5971171950705,447.84385443593004 L509.3753506822597,451.29495519274883 M509.3753506822597,451.29495519274883 L521.8103246254034,453.8709484886946 M521.8103246254034,453.8709484886946 L534.7040535326504,455.5303120402927 M534.7040535326504,455.5303120402927 L547.8509974430489,456.24628118638356 M547.8509974430489,456.24628118638356 L561.0414259838413,456.0073014926332 M561.0414259838413,456.0073014926332 L574.0649036473795,454.81722938118946 M574.0649036473795,454.81722938118946 L586.7137134606942,452.6952728378391 M586.7137134606942,452.6952728378391 L598.786347541474,449.6756432615325 M598.786347541474,449.6756432615325 L610.0907693371738,445.8069730874938 M610.0907693371738,445.8069730874938 L620.4475447373626,441.1515129597335 M620.4475447373626,441.1515129597335 L629.6927640721949,435.78402253843035 M629.6927640721949,435.78402253843035 L637.6806438495482,429.79054755503574 M637.6806438495482,429.79054755503574 L644.2858601677766,423.26695319410055 M644.2858601677766,423.26695319410055 L649.4054119722532,416.3173386117565 M649.4054119722532,416.3173386117565 L652.9602549787843,409.0523070411261 M652.9602549787843,409.0523070411261 L654.8963910986367,401.5871596787577 M654.8963910986367,401.5871596787577 L655.1855703788137,394.04006390393647 M655.1855703788137,394.04006390393647 L653.825676565817,386.5300925147603 M653.825676565817,386.5300925147603 L650.8404912656608,379.1754312606525 M650.8404912656608,379.1754312606525 L646.2792624443514,372.09146294308164 M646.2792624443514,372.09146294308164 L640.2157442349854,365.3890312779404 M640.2157442349854,365.3890312779404 L632.7469799849067,359.1726958673072 M632.7469799849067,359.1726958673072 L623.9916144796988,353.5392056299075 M623.9916144796988,353.5392056299075 L614.0879657363934,348.5760554247095 M614.0879657363934,348.5760554247095 L603.1919282876961,344.36013246857897 M603.1919282876961,344.36013246857897 L591.4744332630987,340.9566470370578 M591.4744332630987,340.9566470370578 L579.118813089641,338.41818080955875 M579.118813089641,338.41818080955875 L566.3180891520135,336.7838852722815 M566.3180891520135,336.7838852722815 L553.2719515592458,336.07895334043906 M553.2719515592458,336.07895334043906 L540.1838237514881,336.3142302161595 M540.1838237514881,336.3142302161595 L527.2576803747429,337.48611104532137 M527.2576803747429,337.48611104532137 L514.6951334622194,339.5765245822465 M514.6951334622194,339.5765245822465 L502.6922707278844,342.5532414097227 M502.6922707278844,342.5532414097227 L491.43674470867154,346.3703254232481 M491.43674470867154,346.3703254232481 L481.104917344274,350.968767589991 M481.104917344274,350.968767589991 L471.859130783169,356.27739079504704 M471.859130783169,356.27739079504704 L463.84520430216867,362.21384820492233 M463.84520430216867,362.21384820492233 L457.1900986072033,368.6858572067515 M457.1900986072033,368.6858572067515 L451.9999495108261,375.5925598985524 M451.9999495108261,375.5925598985524 L448.3582372266565,382.82604925233545 M448.3582372266565,382.82604925233545 L446.32441798999196,390.2730058957501 M446.32441798999196,390.2730058957501 L445.9328683820357,397.81641191066166 M445.9328683820357,397.81641191066166 L447.19216960448443,405.3374072685072 M447.19216960448443,405.3374072685072 L450.08483328977525,412.71712937700505 M450.08483328977525,412.71712937700505 L454.56743077012874,419.83861739571336 M454.56743077012874,419.83861739571336 L460.5711265729045,426.58868290636826 M460.5711265729045,426.58868290636826 L468.0026687354241,432.8597545923337 M468.0026687354241,432.8597545923337 L476.74575665685853,438.5516412809819 M236.9882723834298,646.4764979323461 L246.95993612326959,651.6343231665298 M246.95993612326959,651.6343231665298 L257.97445899213665,656.0209084138389 M257.97445899213665,656.0209084138389 L269.85724107817396,659.565725279761 M269.85724107817396,659.565725279761 L282.41946441237394,662.2116738316402 M282.41946441237394,662.2116738316402 L295.4610712942469,663.9161018310053 M295.4610712942469,663.9161018310053 L308.7741622879297,664.6515160955203 M308.7741622879297,664.6515160955203 L322.1462859750367,664.4060547633071 M322.1462859750367,664.4060547633071 L335.36409158872954,663.1836500185232 M335.36409158872954,663.1836500185232 L348.21675595469594,661.0040678026946 M348.21675595469594,661.0040678026946 L360.49944922343667,657.902435595224 M360.49944922343667,657.902435595224 L372.01678996978455,653.9287373594252 M372.01678996978455,653.9287373594252 L382.5859124849253,649.1469173224912 M382.5859124849253,649.1469173224912 L392.0395385301616,643.6337929751164 M392.0395385301616,643.6337929751164 L400.2285765160474,637.4777639085623 M400.2285765160474,637.4777639085623 L407.02450922141315,630.7773039110384 M407.02450922141315,630.7773039110384 L412.3213635589048,623.6393644599327 M412.3213635589048,623.6393644599327 L416.0373004183408,616.1775431249043 M416.0373004183408,616.1775431249043 L418.1158655049155,608.5102975744089 M418.1158655049155,608.5102975744089 L418.5265894566295,600.7589699739044 M418.5265894566295,600.7589699739044 L417.2654870362764,593.0458860827569 M417.2654870362764,593.0458860827569 L414.3548890947909,585.4924142407311 M414.3548890947909,585.4924142407311 L409.8429125187917,578.2170413341883 M409.8429125187917,578.2170413341883 L403.80262631775423,571.3335837509098 M403.80262631775423,571.3335837509098 L396.33073072961,564.9494301696463 M396.33073072961,564.9494301696463 L387.54595345053747,559.1639243571292 M387.54595345053747,559.1639243571292 L377.587147164722,554.0668818176523 M377.587147164722,554.0668818176523 L366.611052792297,549.7372698635892 M366.611052792297,549.7372698635892 L354.78986112475803,546.2420339273617 M354.78986112475803,546.2420339273617 L342.3085551952686,543.6351398622464 M342.3085551952686,543.6351398622464 L329.36207713689197,541.9567940556731 M329.36207713689197,541.9567940556731 L316.15237267980984,541.2328575008748 M316.15237267980984,541.2328575008748 L302.88535731796424,541.4744804605548 M302.88535731796424,541.4744804605548 L289.7677982367116,542.6779445597772 M289.7677982367116,542.6779445597772 L277.00424279748637,544.8247012684117 M277.00424279748637,544.8247012684117 L264.7938855974502,547.8816644373125 M264.7938855974502,547.8816644373125 L253.32758628389342,551.8016704858769 M253.32758628389342,551.8016704858769 L242.78499003624336,556.5241412101607 M242.78499003624336,556.5241412101607 L233.33171692870167,561.9759931367007 M233.33171692870167,561.9759931367007 L225.11683652517013,568.0726766917473 M225.11683652517013,568.0726766917473 L218.27048150815222,574.7194419716636 M218.27048150815222,574.7194419716636 L212.9018067535251,581.8127191694095 M212.9018067535251,581.8127191694095 L209.09714076868596,589.2417032819764 M209.09714076868596,589.2417032819764 L206.91854910852837,596.8900209276437 M206.91854910852837,596.8900209276437 L206.40276288085568,604.637492308163 M206.40276288085568,604.637492308163 L207.56034771284345,612.3620610851017 M207.56034771284345,612.3620610851017 L210.37551663054845,619.941627745108 M210.37551663054845,619.941627745108 L214.80612512295397,627.2560591971098 M214.80612512295397,627.2560591971098 L220.78424800917756,634.1890767254299 M220.78424800917756,634.1890767254299 L228.21705607846292,640.6301962811231 M228.21705607846292,640.6301962811231 L236.9882723834298,646.4764979323461 M250.24021442781725,569.3246770598611 L849.1652974739192,223.53511913877506 M477.1593302129533,265.9160120316101 L468.36739893592164,260.25646567960075 M468.36739893592164,260.25646567960075 L460.89433858574137,254.02105209411027 M460.89433858574137,254.02105209411027 L454.8570945063987,247.30939985688386 M454.8570945063987,247.30939985688386 L450.3494317843087,240.22847426701003 M450.3494317843087,240.22847426701003 L447.4405603946688,232.89082384990678 M447.4405603946688,232.89082384990678 L446.1741401813499,225.41274581206352 M446.1741401813499,225.41274581206352 L446.56774533737496,217.91242579449693 M446.56774533737496,217.91242579449693 L448.61273543436135,210.5080443291599 M448.61273543436135,210.5080443291599 L452.27453216120995,203.31594785533235 M452.27453216120995,203.31594785533235 L457.4933399894156,196.44880310025422 M457.4933399894156,196.44880310025422 L464.1852085536494,190.01389342284068 M464.1852085536494,190.01389342284068 L472.2434092934873,184.1114918523881 M472.2434092934873,184.1114918523881 L481.5402767643445,178.8333442022366 M481.5402767643445,178.8333442022366 L491.9291860686532,174.26131696215484 M491.9291860686532,174.26131696215484 L503.2469014481094,170.4661710346004 M503.2469014481094,170.4661710346004 L515.31609292796,167.50656967527905 M515.31609292796,167.50656967527905 L527.9480800850339,165.42817935953218 M527.9480800850339,165.42817935953218 L540.9457025384611,164.26304009174757 M540.9457025384611,164.26304009174757 L554.1062460264059,164.0291168287236 M554.1062460264059,164.0291168287236 L567.2246206142476,164.7299932117634 M567.2246206142476,164.7299932117634 L580.096289609906,166.3548878443401 M580.096289609906,166.3548878443401 L592.5204682902711,168.87875593802457 M592.5204682902711,168.87875593802457 L604.3030746252527,172.26267596934736 M604.3030746252527,172.26267596934736 L615.2597654580071,176.45437464850795 M615.2597654580071,176.45437464850795 L625.2186632948897,181.38902343648223 M625.2186632948897,181.38902343648223 L634.0230058679123,186.9901841871509 M634.0230058679123,186.9901841871509 L641.5337000527032,193.17087172090294 M641.5337000527032,193.17087172090294 L647.6314304173326,199.83489904954058 M647.6314304173326,199.83489904954058 L652.2185985972638,206.87831191852808 M652.2185985972638,206.87831191852808 L655.2210211544525,214.1909061382398 M655.2210211544525,214.1909061382398 L656.5891542258723,221.65796222816806 M656.5891542258723,221.65796222816806 L656.299060142103,229.16197135311666 M656.299060142103,229.16197135311666 L654.3528425293953,236.58454014392527 M654.3528425293953,236.58454014392527 L650.7788846842417,243.80817295096156 M650.7788846842417,243.80817295096156 L645.6314630673847,250.71822159329065 M645.6314630673847,250.71822159329065 L638.9900425434632,257.2047070106353 M638.9900425434632,257.2047070106353 L630.9581818109554,263.1641155247231 M630.9581818109554,263.1641155247231 L621.6618910772429,268.5011194188751 M621.6618910772429,268.5011194188751 L611.2477588543821,273.13015399480173 M611.2477588543821,273.13015399480173 L599.8806056919091,276.97687647192924 M599.8806056919091,276.97687647192924 L587.7408677892345,279.97938258653886 M587.7408677892345,279.97938258653886 L575.0216582862147,282.0893100339098 M575.0216582862147,282.0893100339098 L561.9256180176866,283.2726371962257 M561.9256180176866,283.2726371962257 L548.6616342099107,283.510262551908 M548.6616342099107,283.510262551908 L535.4413294467508,282.7983510458424 M535.4413294467508,282.7983510458424 L522.4756178223655,281.1483930854537 M522.4756178223655,281.1483930854537 L509.97119914616684,278.5870049310204 M509.97119914616684,278.5870049310204 L498.12717511987125,275.1554783909474 M498.12717511987125,275.1554783909474 L487.13178061228473,270.90905948513654 M487.13178061228473,270.90905948513654 L477.1593302129533,265.9160120316101 M236.0536533492434,472.67542174030285 L227.23328014063657,466.86146520267346 M227.23328014063657,466.86146520267346 L219.7589433343215,460.45601005610575 M219.7589433343215,460.45601005610575 L213.7475640321412,453.5614138659369 M213.7475640321412,453.5614138659369 L209.29247921734006,446.28755488901675 M209.29247921734006,446.28755488901675 L206.46197804636907,438.7500719208413 M206.46197804636907,438.7500719208413 L205.29842127806876,431.06843437356196 M205.29842127806876,431.06843437356196 L205.81766230594098,423.3640645512706 M205.81766230594098,423.3640645512706 L208.0090533563549,415.7583391221942 M208.0090533563549,415.7583391221942 L211.83563489007008,408.370766012609 M211.83563489007008,408.370766012609 L217.23497248232783,401.3170654912952 M217.23497248232783,401.3170654912952 L224.120235372519,394.7074183829657 M224.120235372519,394.7074183829657 L232.38164196161097,388.6448090213011 M232.38164196161097,388.6448090213011 L241.88831936373037,383.2234499486816 M241.88831936373037,383.2234499486816 L252.49035612530707,378.5274098145641 M252.49035612530707,378.5274098145641 L264.0212020462749,374.62935530876706 M264.0212020462749,374.62935530876706 L276.30020752917284,371.58951840855946 M276.30020752917284,371.58951840855946 L289.13544950035254,369.454792657307 M289.13544950035254,369.454792657307 L302.3266263666188,368.25807451720794 M302.3266263666188,368.25807451720794 L315.66805603537733,368.0178060885731 M315.66805603537733,368.0178060885731 L328.95182541430364,368.737684402184 M328.95182541430364,368.737684402184 L341.9708780827007,370.40662319091524 M341.9708780827007,370.40662319091524 L354.52214879276903,372.9989097972634 M354.52214879276903,372.9989097972634 L366.40961333768905,376.474568201712 M366.40961333768905,376.474568201712 L377.4472597900493,380.7799412772668 M377.4472597900493,380.7799412772668 L387.46193688744194,385.84846581032366 M387.46193688744194,385.84846581032366 L396.29602615771574,391.6016242635989 M396.29602615771574,391.6016242635989 L403.8098938125158,397.9501112803847 M403.8098938125158,397.9501112803847 L409.88414017298913,404.79514561256025 M409.88414017298913,404.79514561256025 L414.4215132073215,412.02994459574506 M414.4215132073215,412.02994459574506 L417.3485219389576,419.5413318069237 M417.3485219389576,419.5413318069237 L418.6167656009832,427.2114840598517 M418.6167656009832,427.2114840598517 L418.2037732298909,434.91971019622184 M418.2037732298909,434.91971019622184 L416.11353778735946,442.5443642719462 M416.11353778735946,442.5443642719462 L412.37668625784113,449.96477579795044 M412.37668625784113,449.96477579795044 L407.0499787151855,457.0631402616707 M407.0499787151855,457.0631402616707 L400.2157057821869,463.7264840912146 M400.2157057821869,463.7264840912146 L391.98043152389005,469.84844120091196 M391.98043152389005,469.84844120091196 L382.47339519328415,475.33107499655864 M382.47339519328415,475.33107499655864 L371.8445306424796,480.08646666652896 M371.8445306424796,480.08646666652896 L360.26206513096963,484.03821539080815 M360.26206513096963,484.03821539080815 L347.90990518792916,487.1227229969899 M347.90990518792916,487.1227229969899 L334.9845469553989,489.2902755286275 M334.9845469553989,489.2902755286275 L321.6919907782856,490.50593499530714 M321.6919907782856,490.50593499530714 L308.24426561188506,490.7500419914889 M308.24426561188506,490.7500419914889 L294.8559426085032,490.0186855139471 M294.8559426085032,490.0186855139471 L281.7406876733587,488.32366351099193 M281.7406876733587,488.32366351099193 L269.10758707673085,485.69232093121053 M269.10758707673085,485.69232093121053 L257.1578381047284,482.1670797849911 M257.1578381047284,482.1670797849911 L246.08133102818846,477.8047312904955 M246.08133102818846,477.8047312904955 L236.0536533492434,472.67542174030285 M476.74575665685853,438.5516412809819 L477.1593302129533,265.9160120316101 M236.9882723834298,646.4764979323461 L236.0536533492434,472.67542174030285" stroke="black"  stroke-width="4"  fill="red"/></svg>